<?xml version="1.0" standalone="no"?>
  <!DOCTYPE svg PUBLIC "-//W3C//DTD SVG 1.1//EN" "http://www.w3.org/Graphics/SVG/1.1/DTD/svg11.dtd" >
  <svg>
  <metadata>
  Created by font-carrier
  </metadata>
  <defs>
  <font id="iconfont" horiz-adv-x="1024" vert-adv-y="1024" >
    <font-face
      
      font-family="iconfont"
      
      font-weight="400"
      
      font-stretch="normal"
      
      units-per-em="1024"
      
      ascent="819"
      
      descent="-204"
      
    />
      <missing-glyph />

      
      <glyph glyph-name="x" unicode="&#x78;" horiz-adv-x="100"
        d="M20 20 L50 20 L50 -20 Z" />
      

      
      <glyph glyph-name="uni90E8" unicode="&#x90E8;" d="M278 370Q255 431 242 459.50Q229 488 213 510L201 526L213 537L233 518L304 454Q313 445 314 440.50Q315 436 309 419L291 371L387 380Q426 462 436.50 499.50Q447 537 446 544L443 567L456 570L513 514Q488 494 471.50 470Q455 446 420 383Q508 392 558 410L599 378Q606 372 604 367.50Q602 363 593 363L519 359Q416 350 193 326L143 319L105 311L86 325L67 338Q53 347 77 350L143 356Q215 362 278 370M146 544L122 560Q107 569 131 572L214 581L325 593Q458 607 536 633L583 600Q586 597 585.50 592.50Q585 588 578 588L495 580L345 563Q285 555 223 547L185 540L162 535Q158 535 146 544M221 287L246 232L449 255L468 284Q477 298 489 288L521 258Q528 250 528.50 247Q529 244 524 239L514 231Q499 219 494.50 202Q490 185 489 167L479 62L500 42Q506 35 504 30.50Q502 26 492 26L261 7L259-45Q257-86 253.50-88.50Q250-91 246-90.50Q242-90 232-72L215-44L204-27Q203-24 209.50-9.50Q216 5 218.50 23Q221 41 221 68L218 171Q217 200 208 285L221 287M261 40L436 61L450 219L253 195L261 40M298 774L309 785L327 772L360 747L408 710Q422 698 421.50 692.50Q421 687 420 682L415 665L408 645Q401 627 395.50 618.50Q390 610 384 627L379 640Q355 700 309 760L298 774M629 715L658 636L820 652L837 676Q846 688 849 688.50Q852 689 862 681L897 651Q901 646 900.50 641.50Q900 637 882 625.50Q864 614 829 536L773 412Q762 388 763 386Q764 384 778 373Q792 362 836.50 311Q881 260 889 217.50Q897 175 897 150Q896 129 891.50 100.50Q887 72 861.50 26Q836-20 821-17Q815-17 801 0L791 13L701 116L688 130L699 144L718 131L789 83Q815 64 819 65Q826 65 834.50 85.50Q843 106 847 121.50Q851 137 851 161Q850 226 824 268.50Q798 311 776.50 333.50Q755 356 743 365Q731 374 730 378L743 413L818 616L660 600L655-99L654-161Q653-198 646.50-199Q640-200 627-174L617-155L606-133Q596-114 596.50-108Q597-102 605-80.50Q613-59 614 24L618 616L615 712L629 715Z"  horiz-adv-x="1024" vert-adv-y="1024"  />

      
      <glyph glyph-name="uni5E38" unicode="&#x5E38;" d="M223 531L494 555L494 698Q494 719 493 730Q492 741 489 757.50Q486 774 474 804L485 813L555 762Q540 743 537.50 733Q535 723 534.50 708Q534 693 534 677L534 559L616 568Q666 666 674 687Q682 708 686.50 722.50Q691 737 691.50 742.50Q692 748 692 753L691 772L705 775L752 701Q734 690 718 672.50Q702 655 647 570L833 592L862 627Q867 633 870 634Q873 635 887 622L920 589Q926 582 926.50 579Q927 576 916 569Q895 556 879.50 541.50Q864 527 796 444L782 427L769 436L782 460L810 511L831 555L552 528L330 506L217 494Q213 465 207 441Q201 417 181 379.50Q161 342 155 342.50Q149 343 144 362L132 401Q129 410 129 413Q129 416 140 427Q166 450 178.50 485Q191 520 194 537.50Q197 555 201 587L204 616L222 615L223 585L223 531M489 284L387 272L385 248Q382 222 364 250L353 266L345 278Q338 287 337.50 291.50Q337 296 345 313Q350 325 350 347L348 398Q347 403 345 418Q343 433 343 435L332 476L346 481L377 436L635 468L650 491Q656 500 659 500.50Q662 501 672 494L701 471Q706 466 706.50 461.50Q707 457 701 453L691 446Q682 439 679.50 431Q677 423 675 407L665 340L691 320Q696 315 695.50 310Q695 305 681 304L522 287L549 256Q538 246 535.50 240Q533 234 533 218L533 201L718 223L740 253Q747 262 749.50 262.50Q752 263 764 253L794 225Q800 218 799.50 215Q799 212 788.50 203.50Q778 195 774.50 190.50Q771 186 767 175Q763 164 760 148.50Q757 133 751.50 91Q746 49 741.50 27Q737 5 724-42Q711-89 704-91Q697-93 679-73.50Q661-54 648-41L604 0L584 16L593 29L610 20L679-13Q686-17 688-16.50Q690-16 692.50-10Q695-4 698 8L705 37Q709 55 714.50 100Q720 145 722 158L725 190L533 167L534-52L531-143Q529-180 525.50-183.50Q522-187 519-186Q512-186 501-164L488-140Q474-116 475-108Q475-105 481-92Q487-79 490.50-60Q494-41 494-23L494 164L324 145L333-39Q335-93 329.50-95.50Q324-98 313-82L299-64L284-40Q276-28 276.50-24Q277-20 284.50-3.50Q292 13 291 46L287 133Q286 142 281.50 168.50Q277 195 262 239L277 245L322 178L494 197L494 228Q494 238 489 284M386 306L627 335L637 436L384 403L386 306M302 741L316 728L362 687L392 660Q402 650 403 644.50Q404 639 400 625L387 585Q381 569 374.50 568.50Q368 568 366 577L362 589Q354 612 344 636.50Q334 661 305 707L290 730L302 741Z"  horiz-adv-x="1024" vert-adv-y="1024"  />

      
      <glyph glyph-name="uni627F" unicode="&#x627F;" d="M57-38Q63-32 88.50-8Q114 16 152.50 63Q191 110 219.50 158.50Q248 207 261.50 234Q275 261 295 316.50Q315 372 324 409L224 395L183 387L158 382L130 373L117 384L97 400Q92 403 92.50 407Q93 411 102 412L136 414L203 423L288 436L322 442L337 467Q344 478 353 471L391 437L433 442L477 448Q472 475 457.50 513.50Q443 552 392 611L404 622Q439 592 453 575Q467 558 482 535L506 560L551 609L605 670L630 699L572 692L502 684L407 673L337 664L309 659L275 651Q271 652 266 657L238 682Q234 685 234.50 687Q235 689 239 690L257 692L341 700L453 711L572 724L646 733L675 767Q680 773 687 766L728 723Q732 718 731.50 716Q731 714 729 712.50Q727 711 714 706Q701 701 683 687Q665 673 492 514Q505 474 511 455Q547 461 577 474L607 449Q613 443 612.50 440Q612 437 604 436L552 430L518 425Q527 354 530 336Q548 340 566 343Q584 346 608 357L640 331Q650 322 636 320L531 305Q533 283 534 272L536 240L538 213Q604 224 644 239L679 210Q682 207 681.50 204Q681 201 675 200L622 192L538 180Q538 155 537.50 135.50Q537 116 536 92.50Q535 69 531.50 31.50Q528-6 522.50-47.50Q517-89 501.50-121.50Q486-154 483-153.50Q480-153 476-147L466-134Q440-101 424-81.50Q408-62 349-6L358 6L381-8L423-36L456-56Q467-63 470-63.50Q473-64 479-47Q482-36 486-16Q490 4 492.50 23Q495 42 497 79Q499 116 499 144L499 174L460 168L431 162L403 156L370 148L364 154L339 175Q335 178 334.50 180.50Q334 183 344 185L362 187L398 192L451 199L499 207Q499 225 499 235L497 267L495 299L457 291L422 284L389 275L382 281L357 299Q354 301 354.50 305Q355 309 360 310L412 316L476 327L494 330Q492 347 490.50 364.50Q489 382 483 419L452 412L431 406L415 401Q413 401 407 406L383 424Q375 418 372 414Q369 410 365 399.50Q361 389 342 336.50Q323 284 301 236.50Q279 189 216 100.50Q153 12 67-51L57-38M696 355Q745 426 767 470Q789 514 792 527.50Q795 541 795 550L795 562L807 566L849 487Q822 473 808.50 459Q795 445 774.50 417.50Q754 390 705 332Q733 267 766 204Q799 141 816.50 113Q834 85 863 63Q892 41 981 31L981 15L805 9L791 46L768 100L734 183Q654 377 639.50 409.50Q625 442 613.50 470.50Q602 499 588 516L592 527L646 518Q643 511 641 505.50Q639 500 638.50 495.50Q638 491 645 473Q652 455 696 355Z"  horiz-adv-x="1024" vert-adv-y="1024"  />

      
      <glyph glyph-name="uni4F20" unicode="&#x4F20;" d="M537 394L565 532Q475 524 429 510L391 536Q385 539 385.50 544Q386 549 395 550L459 555L574 568L595 685Q601 723 602 756Q602 772 601 777L596 802L609 811L669 740Q648 714 641 678L619 573L725 588Q776 595 809 612L859 580Q863 577 863.50 573.50Q864 570 857 567.50Q850 565 792 559L610 538L579 398L768 419Q825 425 846.50 431Q868 437 890 447L935 414Q943 408 942.50 404.50Q942 401 935 398L862 391L571 363L539 224L767 250L788 278Q797 290 806 283L842 254Q854 244 853.50 238Q853 232 845 226L831 218Q811 206 784 166L659-15L735-65Q755-79 758.50-84.50Q762-90 763-102L761-154Q760-171 757-177.50Q754-184 745-172L737-163Q736-163 703-118.50Q670-74 485 61L496 77L633 0L651 28Q672 63 758 215L542 189L527 174Q512 159 508.50 159.50Q505 160 500 165L467 193Q462 197 461.50 201Q461 205 469 210L481 217Q499 228 505 254L529 358Q419 348 348 330L310 357Q303 361 303.50 365.50Q304 370 312 371L369 376L537 394M60 306L74 321Q116 366 132 385.50Q148 405 194 467Q240 529 282.50 613Q325 697 332 737Q339 777 339 788L338 809L353 814L407 725Q387 707 381 698.50Q375 690 358 659L294 547L293-74Q292-118 291-132Q290-146 290.50-154Q291-162 288.50-168.50Q286-175 280.50-175.50Q275-176 257-144L247-127Q227-95 228-89.50Q229-84 235-73.50Q241-63 246.50-43Q252-23 253 85L254 490Q197 414 90 312L70 293L60 306Z"  horiz-adv-x="1024" vert-adv-y="1024"  />

      
      <glyph glyph-name="uni5927" unicode="&#x5927;" d="M69-148L80-140Q86-136 204-61.50Q322 13 386 154Q450 295 471 382L282 362L227 355L183 346Q180 347 164 361L142 380Q137 383 137.50 387Q138 391 147 392L216 396L301 401L480 416Q494 523 497 548Q500 573 503 615.50Q506 658 506.50 684.50Q507 711 506.50 726.50Q506 742 503.50 752.50Q501 763 492 797L501 802L582 734Q571 719 567 706.50Q563 694 560.50 677Q558 660 547.50 577Q537 494 530 456L523 421L649 434Q799 449 843 471L890 434Q897 428 896.50 423.50Q896 419 885 418L603 393L538 388L573 318L609 246L659 153Q687 100 729.50 36.50Q772-27 797.50-49Q823-71 856.50-82Q890-93 952-102L952-122L751-125L723-62L612 162L547 299L513 373Q491 296 462 221Q433 146 362 57.50Q291-31 221.50-78Q152-125 126.50-138Q101-151 97-153L78-164L69-148Z"  horiz-adv-x="1024" vert-adv-y="1024"  />

      
      <glyph glyph-name="uni5355" unicode="&#x5355;" d="M484 147L484 265L310 247L312 203Q312 200 311 184Q310 168 305 169Q300 170 292 182L273 208L261 230L253 243L262 261Q265 269 266 277.50Q267 286 267 299L267 315L256 535L246 589L237 624L251 632L296 556L552 584L562 600Q566 607 593.50 661.50Q621 716 630 743.50Q639 771 641 785L643 804L657 810L707 730Q681 717 667.50 702.50Q654 688 642 671L617 635L585 589L720 605L745 636Q753 646 766 634L795 607Q801 600 801.50 595.50Q802 591 790 582Q769 565 765 533L739 327L764 307Q770 301 769.50 297.50Q769 294 765.50 292Q762 290 721 287L526 269L525 151L718 170Q825 180 879 200L931 165Q936 161 936.50 157Q937 153 931 149L822 141L705 131L525 115L521-128L519-154Q516-205 490-158L472-126Q457-100 457.50-95Q458-90 466.50-76Q475-62 477-49.50Q479-37 480-17.50Q481 2 482 18L483 112L339 98Q224 85 201 79.50Q178 74 138 63L94 95Q87 100 87 104Q87 108 100 110L223 123L484 147M484 300L484 405Q430 398 374 383L332 410Q325 413 325.50 417.50Q326 422 335 423L410 431L484 439L484 543L300 521L309 282L484 300M526 305L696 325L726 570L526 548L526 445Q597 452 634 468L678 440Q684 436 683.50 431.50Q683 427 676 425L653 423L526 410L526 305M320 760L333 771L397 716L448 671Q458 661 458.50 656Q459 651 454 633L444 597Q437 571 423 597L413 615Q369 692 320 760Z"  horiz-adv-x="1024" vert-adv-y="1024"  />

      
      <glyph glyph-name="uni9876" unicode="&#x9876;" d="M230 638L297 647Q352 654 398 673L441 640Q454 629 435 628L275 612L322 565Q315 558 309.50 550Q304 542 304 508L303 464Q302 461 303 458L305 74Q305 73 304.50 65.50Q304 58 303.50 35.50Q303 13 302 3L295-36Q288-78 274-61L212 9L116 102L124 114L189 70L236 41L258 27Q261 28 263 40Q265 52 266 78.50Q267 105 267 106L266 474L262 547Q260 574 260 577L254 609Q169 601 130 588L94 611Q84 617 84 621Q84 625 98 626L171 631L230 638M358-155L380-142Q441-106 505-38.50Q569 29 584.50 88Q600 147 605.50 188Q611 229 613.50 261.50Q616 294 617 330Q617 364 614 374L606 402L615 413L677 357Q671 344 668.50 335Q666 326 664 307L660 272Q656 245 647 187.50Q638 130 617 70Q596 10 530-56Q464-122 392-157L365-170L358-155M520 696L607 702L695 711Q782 719 810 725.50Q838 732 867 744L913 713Q924 705 923.50 701Q923 697 911 697L775 686L651 673L677 638Q663 625 657.50 613.50Q652 602 644 571.50Q636 541 628 515L763 532L779 562Q782 567 785.50 568Q789 569 805 559L836 537Q840 533 840.50 530Q841 527 835 520Q818 503 815 492.50Q812 482 811.50 468Q811 454 811 431L811 379L804 206Q802 159 798.50 133Q795 107 793 84.50Q791 62 784 69Q777 76 769 95L749 138Q744 146 744.50 150Q745 154 752 166Q759 178 760.50 191Q762 204 764.50 244Q767 284 768 291L770 496L514 467L518 301L518 184Q518 94 512 85.50Q506 77 497 91L472 127Q464 137 464.50 141Q465 145 468.50 155Q472 165 474.50 183Q477 201 478 215Q479 229 479.50 243.50Q480 258 480 260L475 456L473 491L471 529L465 571L481 576L510 501L601 512Q608 570 611 594Q614 618 615 632L615 648L615 671Q589 667 560.50 664Q532 661 486 649L447 678Q440 682 439.50 685.50Q439 689 458 691L520 696M668 87L686 76L777 19L836-18Q852-29 855.50-34Q859-39 860-57L862-108L862-123Q862-126 861.50-128.50Q861-131 858-132Q855-133 841-116L817-89Q789-58 760-28Q731 2 705.50 26.50Q680 51 674 59L660 74L668 87Z"  horiz-adv-x="1024" vert-adv-y="1024"  />

      
      <glyph glyph-name="uni8BA2" unicode="&#x8BA2;" d="M303 44L357 99L492 238L503 225L353 35Q311-17 310-19L284-60L232-39Q221-35 219.50-32Q218-29 217.50-27Q217-25 220-22Q222-19 234.50-12Q247-5 254 3Q261 11 261.50 26.50Q262 42 262 73L261 384Q195 376 173 371.50Q151 367 116 354L76 380Q69 384 69 388.50Q69 393 81 397L107 400L174 409L252 421L281 457Q289 467 302 458L330 435Q343 424 342.50 416.50Q342 409 328.50 400Q315 391 309.50 384Q304 377 304 358L303 44M162 724L248 672L310 633Q327 622 329.50 617Q332 612 331.50 605.50Q331 599 331 594L326 558Q323 537 315 537.50Q307 538 301 547L285 569L265 597Q240 629 154 707L162 724M573-77L530-43L486-6L494 6L615-61Q632-71 639-69.50Q646-68 645-48L645 1L644 454Q643 491 641.50 522Q640 553 636 589Q578 580 532.50 573.50Q487 567 425 552L385 577Q377 581 377.50 585.50Q378 590 388 594L418 597L490 605L586 617L650 626L735 638Q825 652 890 674L938 642Q943 638 942.50 632.50Q942 627 928 626L814 612L670 594L707 548Q696 533 691.50 522.50Q687 512 688 482L688 450L689 93Q689-14 690-29Q691-44 691-50Q690-54 690-67L687-116Q683-150 678.50-161Q674-172 667-171Q664-171 659-167Q654-163 637-144Q620-125 614-118L573-77Z"  horiz-adv-x="1024" vert-adv-y="1024"  />

      
      <glyph glyph-name="uni6597" unicode="&#x6597;" d="M586 266L585 642Q584 671 583.50 681.50Q583 692 580 717Q577 742 573.50 752.50Q570 763 558 786L567 799L634 744Q647 733 646.50 729.50Q646 726 638 715.50Q630 705 628 678Q626 651 627 637L628 273L737 290Q820 303 860 319L906 288Q914 282 913.50 279.50Q913 277 909 274L844 267L788 260L720 251L629 238L629-21Q629-42 628-77Q627-112 626.50-127.50Q626-143 625-153.50Q624-164 619.50-175.50Q615-187 605-169L586-138L567-104Q562-96 561.50-93.50Q561-91 568-81Q578-66 580.50-39Q583-12 584 3L585 36L587 76L587 231L525 222L454 211L312 191L271 184L241 179L213 173L191 168Q177 164 175 164.50Q173 165 166 170L127 194Q111 204 132 209Q137 210 158 209.50Q179 209 236 218L285 225L436 244L586 266M263 469L268 482L301 470L386 434L443 404Q452 399 456.50 392.50Q461 386 462 372L464 326Q464 309 460 306Q456 303 452 309L436 332Q427 343 386 381Q345 419 263 469M324 678L361 663L429 630L471 605Q486 595 487 575L488 540Q488 514 483.50 511.50Q479 509 476 515L451 548Q414 596 318 665L324 678Z"  horiz-adv-x="1024" vert-adv-y="1024"  />

      
      <glyph glyph-name="uni8FD4" unicode="&#x8FD4;" d="M327 43L340 66Q370 120 388.50 162Q407 204 419 263Q431 322 437.50 402Q444 482 445 517L445 556Q445 578 445 583Q444 605 441 631.50Q438 658 435 674L427 711L440 715L484 632Q613 674 681 708.50Q749 743 752 754L759 772L770 773L818 726Q829 715 828.50 712.50Q828 710 816 707L793 701Q783 698 696 667.50Q609 637 487 608Q485 578 483.50 538Q482 498 480.50 476Q479 454 475.50 412Q472 370 468 340.50Q464 311 451 256.50Q438 202 416.50 156.50Q395 111 357 58L339 33L327 43M410 35L428 49Q436 55 496 108.50Q556 162 622 257Q622 257 537 342L522 357L532 371L554 354L602 317L642 287Q696 381 731 474L638 456L591 445L557 436L531 428Q530 428 522 434L488 458Q477 465 493 468L557 477L635 491L728 508L749 542Q755 552 769 540L808 505Q814 499 813.50 494.50Q813 490 799 478.50Q785 467 779.50 459Q774 451 751 403Q728 355 672 262L709 233L757 194L788 167Q816 142 819 135Q822 128 822 116L821 79L819 52L819 40Q813 22 800 42L793 52L780 74Q757 110 650 229Q600 170 554.50 124Q509 78 437 32L420 21L410 35M158 712L169 724L194 705L243 665L275 638L292 622Q305 609 307.50 603.50Q310 598 306 582L296 545L293 530Q290 517 282.50 514.50Q275 512 271 524L267 535Q258 557 230.50 603.50Q203 650 178 685L158 712M278 392L305 434Q311 443 314.50 443.50Q318 444 328 435L359 406Q367 398 366.50 393.50Q366 389 348.50 377.50Q331 366 307 322L261 239L253 222Q261 207 271 191.50Q281 176 286.50 166Q292 156 293.50 147.50Q295 139 294.50 128Q294 117 290 104.50Q286 92 282 79L271 51L260 22Q354 0 407-11.50Q460-23 478-27L586-56Q736-93 794.50-97Q853-101 962-88L965-106L872-138L831-154L774-175Q670-128 600-103.50Q530-79 413.50-48.50Q297-18 237.50-13.50Q178-9 119-29L71 14Q55 29 100 29Q190 27 236 25Q252 75 254.50 91.50Q257 108 257 124Q256 143 253 155.50Q250 168 243.50 184Q237 200 231.50 209.50Q226 219 226 223L236 246L277 356L216 346L164 336L130 328L104 321Q100 321 91 328L62 347Q56 351 57.50 355.50Q59 360 66 361L117 368L186 377L278 392Z"  horiz-adv-x="1024" vert-adv-y="1024"  />

      
      <glyph glyph-name="uni98CE" unicode="&#x98CE;" d="M318 685L708 709L730 743Q735 751 739 751.50Q743 752 755 741L786 709Q797 697 796.50 694Q796 691 782.50 680Q769 669 766 664Q763 659 759 644Q755 629 754 589L747 467Q744 422 745 379Q745 353 746 310.50Q747 268 751.50 218Q756 168 779 109.50Q802 51 828 21.50Q854-8 874.50-25Q895-42 899-43Q903-44 908-10L924 115L942 115Q945 52 946.50 16.50Q948-19 950-33L956-92L957-105L959-121Q958-131 951-130Q933-130 876.50-90Q820-50 777 18Q734 86 719 156.50Q704 227 703 280.50Q702 334 703 361Q703 412 704 461.50Q705 511 710 584L715 668L322 646Q321 618 320 579.50Q319 541 318 514.50Q317 488 311 420Q305 352 289.50 248.50Q274 145 215.50 54Q157-37 75-119L63-106Q83-85 113.50-43.50Q144-2 188.50 72Q233 146 249 253.50Q265 361 270.50 429Q276 497 276 556L275 611Q273 702 273 707L268 772L284 773L318 685M513 366Q556 463 567 511Q578 559 584 601L597 603L639 513Q617 492 606.50 474.50Q596 457 572.50 407Q549 357 537 332L637 196Q643 187 645.50 182Q648 177 648.50 171.50Q649 166 647 153L635 87Q631 66 624 65.50Q617 65 614 75L605 102Q574 194 516 291Q503 273 484.50 244.50Q466 216 441.50 180.50Q417 145 364 93Q311 41 280 20L270 32Q330 87 389.50 166.50Q449 246 491 327Q447 407 366 528L378 540Q445 461 513 366Z"  horiz-adv-x="1024" vert-adv-y="1024"  />

      
      <glyph glyph-name="uni56FD" unicode="&#x56FD;" d="M473 133L476 329Q456 326 429 322.50Q402 319 376 315L339 340Q323 350 345 352L393 355L476 363L478 501Q381 487 347 481L309 506Q292 516 314 519L357 523L425 530L546 542Q628 550 680 569L720 537Q726 532 724.50 527.50Q723 523 716 523L698 522Q695 521 636 516L520 504L518 366L561 372Q626 381 648 390L680 365Q689 357 687.50 352.50Q686 348 678 348L599 342L518 333L515 135L619 145Q656 148 705 161L748 126Q751 122 749 117Q747 112 740 112L671 111L566 106Q377 92 305 81L264 108Q258 111 259 115Q260 119 273 120L307 121Q368 124 473 133M548 297L556 310L564 307L605 286L645 265Q661 256 662.50 253Q664 250 665 230L666 193Q666 159 651 179L643 189L630 209Q626 214 603 240Q580 266 578 269L561 284L548 297L548 297M792 709L817 744Q826 756 838 745L870 713Q874 708 873.50 704.50Q873 701 860.50 692Q848 683 846 668.50Q844 654 844 623L828 58L822-34L817-83Q814-109 809-127.50Q804-146 787-112L758-55L685-57L233-77L229-123Q226-150 219-153Q212-156 198-126L190-110L180-89Q170-68 170.50-64Q171-60 179-47Q187-34 189-11Q191 12 191 52L184 662L177 754L191 756L222 674L792 709M805 672L225 636L234-41L547-25Q676-19 731-6L770-41Q776-27 778-10L780 9Q781 22 782 25L805 672Z"  horiz-adv-x="1024" vert-adv-y="1024"  />

      
      <glyph glyph-name="uni6237" unicode="&#x6237;" d="M362 532L482 545L722 573L747 609Q752 616 756 616.50Q760 617 774 606L806 579Q817 569 816.50 565.50Q816 562 802.50 552.50Q789 543 782 530.50Q775 518 771 490L745 338L774 310Q785 299 784.50 297Q784 295 781.50 293Q779 291 699 285L546 272L350 250Q341 188 327.50 136Q314 84 265-4Q216-92 117-166L101-178L92-163L103-153Q177-85 219.50-9.50Q262 66 275 114.50Q288 163 295.50 210.50Q303 258 307.50 332Q312 406 312.50 428Q313 450 313 499L313 540L310 588L306 618L324 625L362 532M364 492L355 291L697 326L727 533L364 492M473 791L532 737L573 690Q581 680 581.50 675Q582 670 579 659L565 608Q557 581 549 591Q541 601 536.50 627.50Q532 654 513 692Q494 730 463 780L473 791Z"  horiz-adv-x="1024" vert-adv-y="1024"  />

      
      <glyph glyph-name="uni56DE" unicode="&#x56DE;" d="M405 463L587 486L606 517Q614 530 624 523L659 495Q664 490 664.50 486Q665 482 661 477L648 463Q645 459 639.50 443Q634 427 634 418L620 274L645 253Q651 247 650.50 242Q650 237 641 237L546 227L416 212L414 144Q412 97 393 129L380 150L366 175Q359 186 359.50 191Q360 196 368 214.50Q376 233 376.50 255Q377 277 377 279L373 433L369 479L362 535L377 538L405 463M415 250L530 265L582 272L596 450L408 425L415 250M226 652L629 689L770 703L789 739Q795 751 813 736L846 707Q853 700 852.50 696Q852 692 840.50 683Q829 674 826 661Q823 648 821 591L813 380L805 230L794 23L789-20L784-51Q777-93 756-36L734 21L668 19L246-14L243-87Q241-118 238-121Q235-124 231.50-125Q228-126 215-101L202-77L195-60Q188-45 188.50-42Q189-39 194.50-26.50Q200-14 202 5.50Q204 25 204 60L197 416L192 599L189 643L182 697L177 737L191 742L226 652M739 34Q747 46 749.50 56Q752 66 756 95Q760 124 762 150L766 228L775 432L782 665L232 614L234 496L245 25L437 38Q633 51 698 70L739 34Z"  horiz-adv-x="1024" vert-adv-y="1024"  />

      
      <glyph glyph-name="uni4EF7" unicode="&#x4EF7;" d="M471 398L481 409L541 349Q535 339 531 331.50Q527 324 524.50 314Q522 304 520 275L515 231L511 180Q508 152 500.50 111Q493 70 482.50 39.50Q472 9 441.50-34.50Q411-78 365.50-116Q320-154 297-165L275-176L268-162L288-149Q340-116 382-60Q424-4 438 35Q452 74 458.50 109Q465 144 473.50 227.50Q482 311 481 350Q480 374 471 398M282 270L298 283Q308 291 334 319L365 352Q393 384 454.50 472Q516 560 549.50 642.50Q583 725 586.50 742.50Q590 760 591 779L592 803L606 810L660 730Q645 721 635 706L623 688Q633 671 639 663L668 620L706 558Q707 555 743 502.50Q779 450 803.50 416Q828 382 863 361.50Q898 341 968 331L968 316L809 311Q746 423 687.50 521.50Q629 620 607 654Q557 559 516.50 495Q476 431 430.50 383Q385 335 350.50 304Q316 273 309 268L292 256L282 270M666 427L724 363Q713 340 711 332.50Q709 325 707.50 308.50Q706 292 706 271L704-77Q703-94 702.50-122.50Q702-151 701.50-160.50Q701-170 696.50-182.50Q692-195 684.50-186Q677-177 669-159L657-135Q642-106 643-96Q643-93 652-76Q661-59 663-33.50Q665-8 666 31L668 293Q668 339 666.50 361Q665 383 654 418L666 427M38 304L52 319Q137 410 182.50 477.50Q228 545 242 573Q256 601 274 639.50Q292 678 300 699.50Q308 721 312.50 748Q317 775 317 785L316 806L330 813L385 723Q366 706 355 689L336 656L272 545L271-76L269-127Q268-146 264.50-160Q261-174 256-173Q249-173 238-149L221-115Q204-82 204.50-76.50Q205-71 214.50-52.50Q224-34 227-11Q230 12 231 83L232 488Q159 391 68 309L48 291L38 304Z"  horiz-adv-x="1024" vert-adv-y="1024"  />

      
      <glyph glyph-name="uni89C1" unicode="&#x89C1;" d="M558 279Q553 271 549 260.50Q545 250 541.50 207Q538 164 535.50 110Q533 56 536 32Q539-3 555.50-24.50Q572-46 634-52Q696-58 739-55Q835-51 844-41.50Q853-32 857 37L862 129L862 154L879 155L881 130L888 57Q895-18 900-35L906-57L908-68Q909-75 907-78.50Q905-82 850-88.50Q795-95 730-95Q701-96 627-89Q553-82 532.50-60Q512-38 506.50-19Q501 0 500.50 22Q500 44 502 87L504 155Q505 208 505.50 224Q506 240 505 255Q502 284 489 304Q479 257 461.50 195.50Q444 134 393.50 73Q343 12 281.50-33.50Q220-79 182.50-96Q145-113 75-141L69-126Q209-61 279.50 2.50Q350 66 384 126.50Q418 187 427 217.50Q436 248 447 300Q458 352 465 432.50Q472 513 470.50 531Q469 549 455 581L467 591L535 531Q527 521 523 513.50Q519 506 515.50 468.50Q512 431 495 328L558 279M291 763L306 768L340 689L662 718L688 751Q694 758 696.50 758.50Q699 759 709 751L744 722Q748 718 748.50 714.50Q749 711 740 703Q728 692 721.50 678.50Q715 665 714 648Q713 631 708 568L692 395L684 308L679 248L675 214L671 194L667 183Q659 162 651 177L645 187L638 201L631 218L627 225Q623 230 623.50 234Q624 238 631 249.50Q638 261 642 287L649 359Q650 376 651 378L676 682L338 652L334 386L331 272L329 222L325 189L323 179Q321 171 315 170.50Q309 170 299 192L289 212L281 227Q277 233 278 237Q278 240 284 251.50Q290 263 292 274Q294 285 294.50 300Q295 315 297 398L300 614Q300 615 301 634.50Q302 654 299 697Q296 729 295 738L291 763L291 763Z"  horiz-adv-x="1024" vert-adv-y="1024"  />

      
      <glyph glyph-name="uni7ECF" unicode="&#x7ECF;" d="M479 73Q443 57 318 6Q193-45 180-53Q167-61 151-74L99-45Q87-39 84.50-35.50Q82-32 82-29.50Q82-27 92-22L154-8L236 14L354 51L472 88L479 73M201 406L281 422L362 438Q405 523 407 538L410 563L423 568L464 480Q435 469 423 454Q411 439 244 195L338 211L432 227L436 212Q259 160 222 141L202 130L182 120L147 155Q141 160 140 164Q139 168 164 176Q190 184 215.50 213.50Q241 243 342 404Q236 375 214 368.50Q192 362 153 341L125 372Q116 381 116.50 384.50Q117 388 120 390Q123 392 141.50 402Q160 412 174 432Q188 452 224 517Q260 582 282 635Q304 688 309.50 705Q315 722 316.50 732Q318 742 318 744L316 774L326 778L382 697Q361 684 351.50 669Q342 654 307 592Q272 530 245 485.50Q218 441 201 406M614-55L614 202Q547 196 511 185L477 212Q469 218 468.50 221.50Q468 225 488 227L531 231Q590 236 664 242Q738 248 788 268L831 235Q847 222 829 221L757 216L656 206L656-52Q760-46 803.50-39.50Q847-33 876-23L927-58Q946-72 922-72L869-74Q708-81 583.50-91.50Q459-102 412-113L371-84Q363-79 360-74.50Q357-70 393-68L450-65L506-62L560-59L614-55M722 626Q591 614 559.50 609.50Q528 605 485 593L438 627Q430 632 427 636Q424 640 462 643L523 647L589 652L655 658L732 666L762 700Q771 710 773.50 710.50Q776 711 790 695L815 665Q822 655 821.50 652.50Q821 650 819 648.50Q817 647 806.50 641Q796 635 787.50 627Q779 619 763 598Q747 577 662 477Q694 458 727.50 440Q761 422 812 394L859 367Q873 358 873.50 358Q874 358 874 335L874 292Q874 276 872.50 272.50Q871 269 868.50 268Q866 267 854 281L832 304Q791 345 728 394Q665 443 643 459Q567 387 517.50 349Q468 311 408 278L384 265L377 281L402 297Q438 320 511.50 381.50Q585 443 635.50 506Q686 569 722 626Z"  horiz-adv-x="1024" vert-adv-y="1024"  />

      
      <glyph glyph-name="uni5BA2" unicode="&#x5BA2;" d="M488 314L420 358Q405 367 361 384L362 397L427 406Q431 393 441 383.50Q451 374 512 335Q572 393 634 478L526 462L485 455L456 449L431 442L418 452L404 461Q392 448 356.50 407Q321 366 255 316L242 306L232 318L245 332Q247 334 282.50 369Q318 404 357.50 461.50Q397 519 412 549.50Q427 580 437 614L258 600Q247 557 240 536.50Q233 516 218.50 493Q204 470 198.50 467Q193 464 190 475L175 515Q170 527 170.50 531.50Q171 536 178 543L188 552Q205 568 216.50 594.50Q228 621 230 629Q232 637 236 656.50Q240 676 241 681L244 701L259 700L260 675L261 635L536 656Q511 719 454 788L443 801L452 812L471 801L507 778L538 757L560 741Q570 733 571 723.50Q572 714 569 705L560 680L552 658L809 682L831 715Q835 721 839 721.50Q843 722 854 713L891 681Q895 676 895.50 672Q896 668 889 664Q888 663 872.50 655Q857 647 844 632Q831 617 791 557L765 518L748 527L757 546L805 646L652 634L449 616L493 559Q469 549 455 529L422 483L457 488L530 497L640 513L658 540Q664 549 668.50 549.50Q673 550 682 542L715 509Q722 501 721.50 498Q721 495 707 486Q693 477 685.50 470Q678 463 635 411.50Q592 360 546 314Q709 205 787 181Q865 157 962 151L964 135L898 125L794 108L665 199L704 159Q711 151 710.50 147Q710 143 698 133Q686 123 683 117.50Q680 112 676 86L656-23L687-52Q701-66 683-66L600-68L511-73L387-81L386-133Q384-198 356-143L337-107Q331-97 331.50-94Q332-91 339-78.50Q346-66 346.50-47Q347-28 347-26L345 77Q344 84 342 113.50Q340 143 340 145L337 169Q213 108 107 71L87 64L82 78L96 85Q135 104 211 140.50Q287 177 350 215Q413 253 488 314M354 177L372 142L488 153L636 170L652 189L662 202Q592 246 523 293Q460 243 354 177M385-47L619-27L643 134L381 108L385-47Z"  horiz-adv-x="1024" vert-adv-y="1024"  />

      
      <glyph glyph-name="uni5386" unicode="&#x5386;" d="M200-155L224-139Q232-134 275-97.50Q318-61 365.50-7Q413 47 446.50 122Q480 197 507 325Q409 316 354 299L311 329Q292 341 317 344L380 350L515 363Q517 381 519 391L530 462Q532 482 536 515Q540 548 541 571Q542 594 540 607L535 633L548 642L589 596L612 572Q611 570 601 557Q591 544 585.50 516Q580 488 575 452L567 401L562 367L742 386L769 419Q776 427 787 416L818 383Q823 377 822.50 372Q822 367 808 357.50Q794 348 789 336.50Q784 325 781.50 309Q779 293 773.50 263.50Q768 234 761.50 197Q755 160 754 150L743 92L736 52Q732 36 721.50-5.50Q711-47 704-70Q697-93 680.50-125.50Q664-158 656.50-156.50Q649-155 640-141L605-91L564-39L522 7L529 21L635-57Q646-66 652-65.50Q658-65 673-16.50Q688 32 701.50 104.50Q715 177 724.50 229.50Q734 282 736 299L742 348L554 330Q529 231 509.50 165Q490 99 419 5.50Q348-88 231-157L209-170L200-155M48-111L66-89Q98-49 134 13Q170 75 190.50 133Q211 191 222.50 250.50Q234 310 243.50 412.50Q253 515 256 565L259 630Q260 652 259.50 660Q259 668 259 679L252 764L267 767L306 670L660 705Q766 715 829 739L883 701Q888 697 888.50 693Q889 689 876 685L805 681L684 671L308 635Q306 606 305 593L300 532L294 456Q291 424 285 377Q279 330 269.50 273.50Q260 217 235 140.50Q210 64 160.50-4Q111-72 78-105L59-124L48-111Z"  horiz-adv-x="1024" vert-adv-y="1024"  />

      
      <glyph glyph-name="uni9A6C" unicode="&#x9A6C;" d="M557 106L349 80L254 67L207 59L183 54L159 47L150 53L106 78Q93 85 102.50 88Q112 91 202 99L274 105L331 112L457 127L496 133Q608 150 627.50 155Q647 160 673 171L722 139Q729 134 728.50 129Q728 124 721 124L686 120L640 115L602 112L557 106M560-10L571 3L651-54Q689-82 697-83Q705-84 714-69Q722-54 734-14Q746 26 749.50 40Q753 54 771.50 140Q790 226 793 242L804 316L705 304L636 295L374 257L356 238Q346 227 330 240L300 263Q294 267 293.50 271.50Q293 276 303 282Q317 291 321.50 300Q326 309 328 315L332 332L350 460Q355 499 356.50 518.50Q358 538 358 557Q357 573 357 578L353 609L366 617L420 553Q405 534 399.50 517.50Q394 501 387 448L367 296L583 324Q626 536 637 615L647 685L526 669L442 659L391 652L362 648L339 644L293 634L282 643L244 672Q240 674 244 676.50Q248 679 315 684L375 688L438 694L522 705L598 717Q630 722 635 725.50Q640 729 648 739Q656 749 660.50 758Q665 767 669 766.50Q673 766 685 758L717 733Q729 722 728.50 718Q728 714 726 711Q724 708 714.50 697Q705 686 701 678Q697 670 692 655.50Q687 641 681 608L626 330L795 354L818 389Q827 403 840 393L872 365Q884 353 883.50 349Q883 345 879 341L862 327Q856 321 852.50 315Q849 309 845.50 296Q842 283 840 273Q838 263 825.50 192Q813 121 795 47.50Q777-26 758.50-83.50Q740-141 726-157.50Q712-174 704-164L667-122L623-74L560-10Z"  horiz-adv-x="1024" vert-adv-y="1024"  />

      
      <glyph glyph-name="uni540D" unicode="&#x540D;" d="M722 591L646 578L578 566L530 554L503 547L478 539Q478 539 463 548L433 566L392 515L418 492L465 454L485 436Q496 425 496.50 416.50Q497 408 495 401L488 377L481 359Q474 341 468 341.50Q462 342 460 350L456 361Q452 369 438 397.50Q424 426 415 441.50Q406 457 378 498Q351 468 314 432.50Q277 397 260 385Q243 373 241 372L218 353L207 366L220 378Q360 507 424 617Q488 727 496.50 753Q505 779 506 783L509 810L522 812L573 736Q547 722 529 699.50Q511 677 488.50 643Q466 609 443 578L488 584L564 598L730 627L760 668Q767 677 778 668L821 629Q826 624 825.50 620.50Q825 617 819.50 613.50Q814 610 802 603Q790 596 782.50 588.50Q775 581 764.50 567Q754 553 728 522L677 461Q604 377 526 312L466 264L435 239L447 220L753 267L778 298Q786 308 800 296L835 263Q841 257 840.50 252.50Q840 248 825 239Q810 230 805 217.50Q800 205 798 181L777-3L805-25Q814-33 813-38Q812-43 803-43L664-50L462-68L460-119Q458-148 453.50-153.50Q449-159 438-141L424-120L412-99Q403-85 403.50-80Q404-75 409-63.50Q414-52 417-39Q420-26 420.50-10Q421 6 421 10L416 171L412 222Q328 169 276 140.50Q224 112 120 72L102 65L97 81L112 88Q359 203 482 320.50Q605 438 644.50 486Q684 534 722 591M462-33L559-23L658-13L736-6L763 232L454 187L462-33Z"  horiz-adv-x="1024" vert-adv-y="1024"  />

      
      <glyph glyph-name="uni6D3E" unicode="&#x6D3E;" d="M104 462L112 474L130 467L188 438L226 418Q239 411 241 405.50Q243 400 243 390L241 338Q240 327 234.50 323.50Q229 320 224 329L217 341Q202 365 179.50 387.50Q157 410 141 425Q125 440 117 449L104 462M328 445L345 439L337 405L285 173L246 4L238-36Q225-96 218-96.50Q211-97 180-59L143-15L117 13L127 25L141 17L172 0Q190-10 192.50-9.50Q195-9 207 32.50Q219 74 251 184L299 353L317 413L328 445M193 716L212 703L271 664L302 640Q310 633 312.50 626Q315 619 313 609L304 562Q301 548 295 546.50Q289 545 285 555L280 565Q255 613 196 687L183 703L193 716M257-128L266-116Q284-92 326.50-14Q369 64 386 159Q403 254 407 301Q411 348 414.50 408Q418 468 419 510L419 558Q419 581 419 587Q418 615 415 642L408 700L423 703L465 611Q495 624 591 664.50Q687 705 714.50 724Q742 743 761 764L772 763L810 719Q819 707 819.50 704.50Q820 702 803 699Q773 692 754.50 687Q736 682 464 583Q463 542 462 500Q461 458 457.50 403Q454 348 447 289.50Q440 231 433 196Q426 161 409.50 105Q393 49 365.50-8.50Q338-66 280-129L269-141L257-128M509 509L524 511L557 438Q634 478 692.50 516Q751 554 760.50 564.50Q770 575 781 596L794 598L827 544Q832 535 831.50 533Q831 531 817 528.50Q803 526 624 437L702 251Q727 273 770 321.50Q813 370 818 382L832 414L845 413L876 344Q858 337 848.50 331.50Q839 326 792 289L751 258L712 227Q757 117 791 55.50Q825-6 858.50-31.50Q892-57 975-71L975-91L806-102Q706 144 597 427L559 409L559-48L676 50L697 68L709 53L693 38L644-9L584-74L553-113Q524-149 525.50-149Q527-149 517-142L482-119Q476-116 477-112Q478-108 489.50-99Q501-90 506.50-79.50Q512-69 514.50-52.50Q517-36 517-7L517 393Q516 454 514 473L509 509L509 509Z"  horiz-adv-x="1024" vert-adv-y="1024"  />

      
      <glyph glyph-name="uni8BC4" unicode="&#x8BC4;" d="M598 282L596 628Q506 616 473.50 609.50Q441 603 408 592L366 620Q359 624 359.50 629.50Q360 635 369 636L402 639Q673 669 726 679Q779 689 815 706L859 675Q871 666 854 660L802 654L636 632L638 288L673 292L685 314Q709 358 736.50 434Q764 510 767.50 531Q771 552 771 558L769 579L782 586L832 505Q808 489 783 444L700 296L757 303Q825 311 883 330L929 296Q933 292 933.50 289Q934 286 923 284Q898 278 866 276.50Q834 275 638 254L638-56Q638-87 636.50-110.50Q635-134 635.50-144.50Q636-155 632-168.50Q628-182 619-167L601-138L579-98Q573-89 573.50-87Q574-85 581-74.50Q588-64 591-48.50Q594-33 596-9Q598 15 598 41L598 249Q447 229 430.50 225Q414 221 371 207L323 236Q315 240 314.50 244Q314 248 326 250L372 255L441 263L598 282M400 525L462 469L514 416Q527 402 526.50 395.50Q526 389 523 379L506 334Q502 324 497 324.50Q492 325 490 331L485 345Q473 378 459 405Q445 432 389 512L400 525M237 408L263 440Q268 446 272.50 446.50Q277 447 287 438L312 414Q318 407 318.50 402.50Q319 398 307 389Q294 378 289 364Q284 350 284 330L280 16L422 186L435 174L319 8Q275-54 265-77L221-48Q216-46 214.50-42.50Q213-39 212.50-37Q212-35 215-31L229-16Q236-7 238 10Q240 27 241 56L246 375Q169 360 151.50 355.50Q134 351 101 338L64 362Q58 366 58 370.50Q58 375 68 377L95 381L137 389L237 408M165 712L312 626Q326 617 327 609Q328 601 326 587L323 566Q317 524 300 544Q296 547 286.50 563Q277 579 255.50 603.50Q234 628 153 698L165 712Z"  horiz-adv-x="1024" vert-adv-y="1024"  />

      
      <glyph glyph-name="uni5176" unicode="&#x5176;" d="M349 143L346 527Q239 513 196 500L151 534Q147 536 146.50 540.50Q146 545 159 546L215 550L345 562L345 663Q345 682 344 700Q343 718 341 735Q339 752 328 775L338 787L411 721Q396 699 393 687.50Q390 676 389.50 660Q389 644 389 632L389 566L643 590L647 686Q647 689 646.50 696.50Q646 704 646.50 724.50Q647 745 645 760Q643 772 637 795L649 804L704 747Q718 732 717.50 730Q717 728 710.50 721.50Q704 715 699.50 705Q695 695 692.50 685.50Q690 676 690 662L688 596Q780 608 795 611.50Q810 615 842 626L888 595Q896 589 895.50 585.50Q895 582 890 579.50Q885 577 824 572L687 559L672 169Q776 177 810.50 182Q845 187 881 200L931 163Q935 159 936 155Q937 151 922 148L865 146L656 134L516 124L366 112Q230 96 215 93L183 85L150 77L102 109Q97 112 97 117.50Q97 123 115 125L227 134L349 143M392 263L392 147L627 166L642 556L390 532L390 424Q505 435 559 455L602 427Q608 423 607 418.50Q606 414 552 408L391 389L391 299Q519 308 565 328L606 296Q612 291 611 287.50Q610 284 603 282L554 278L392 263M102-165L111-159Q113-158 154-134.50Q195-111 273.50-42.50Q352 26 365.50 47Q379 68 385 96L400 98L432 9Q396-2 375.50-16Q355-30 309.50-63Q264-96 227.50-117.50Q191-139 162.50-152.50Q134-166 130-168L109-180L102-165M564 70L574 84L667 27L742-22L790-54Q808-67 810.50-74.50Q813-82 813-96L811-138Q809-179 788-150L770-126Q717-57 564 70Z"  horiz-adv-x="1024" vert-adv-y="1024"  />

      
      <glyph glyph-name="uni8D77" unicode="&#x8D77;" d="M208 289L222 294L272 207Q253 188 246 168L240 148L228 111L333 62L333 282Q333 311 323 357Q206 338 143 316L98 339Q70 353 109 356.50Q148 360 229 374L329 391L329 517Q252 504 208 492L164 517Q152 523 154.50 527Q157 531 175 530.50Q193 530 329 550L329 644Q329 692 327.50 706Q326 720 323 736Q320 752 319 757L310 780L321 787L389 715Q375 687 372 673Q369 659 369 630L369 556Q440 571 465 586L510 560Q522 552 521.50 548.50Q521 545 511 544L369 525L369 396Q430 406 447 410Q464 414 494 427L542 399Q549 394 548.50 390Q548 386 538 385L347 361L393 305Q384 294 378.50 283.50Q373 273 373 254L373 224Q449 237 484 253L524 227Q535 219 534 215Q533 211 525 211L373 194L373 41Q679-90 758-105.50Q837-121 961-100L967-121Q877-143 755-173Q699-143 668.50-127.50Q638-112 568-80.50Q498-49 219 82Q179-8 141.50-62Q104-116 62-156L50-142Q125-45 144 0Q163 45 181 98.50Q199 152 205.50 191Q212 230 212.50 244Q213 258 212 265L208 289L208 289M747 638L768 672Q774 682 777.50 682.50Q781 683 792 675L825 649Q833 642 832.50 638.50Q832 635 831 632.50Q830 630 819 620.50Q808 611 802 597Q796 583 793 561L776 437L804 422Q818 414 815.50 409Q813 404 804 403L600 375L600 194Q600 145 601.50 133.50Q603 122 616.50 107.50Q630 93 695 94Q814 95 824 104.50Q834 114 835 121.50Q836 129 837 147L842 268L856 270Q863 211 869 182L876 146L881 116Q882 106 886 95.50Q890 85 890 82Q889 77 885 74.50Q881 72 837 64.50Q793 57 705 57Q628 56 597.50 71Q567 86 563.50 108Q560 130 559.50 148Q559 166 559 172L559 407L558 436L558 451L556 480L573 481L594 405L736 427L758 606Q630 592 565 572L523 598Q512 604 513 608.50Q514 613 530.50 612.50Q547 612 685 630L747 638Z"  horiz-adv-x="1024" vert-adv-y="1024"  />

      
      <glyph glyph-name="uni4EBA" unicode="&#x4EBA;" d="M791-91L713 55L537 360L492 434Q479 396 460.50 347.50Q442 299 430.50 275.50Q419 252 367.50 165.50Q316 79 242.50 10Q169-59 85-124L67-138L57-124L75-108Q77-107 107.50-83Q138-59 247.50 59.50Q357 178 411.50 332Q466 486 476.50 550Q487 614 491.50 653.50Q496 693 496 716Q495 742 492 755L485 781L498 788L577 705Q562 690 557 681Q552 672 545.50 649.50Q539 627 529.50 583Q520 539 505 477L542 410L618 284L678 187L758 67Q802 0 835.50-19Q869-38 896.50-46Q924-54 944-58Q964-62 975-65L973-82L791-91Z"  horiz-adv-x="1024" vert-adv-y="1024"  />

      
      <glyph glyph-name="uni4E0A" unicode="&#x4E0A;" d="M447 781L457 791L546 703Q531 678 526.50 663.50Q522 649 520.50 632.50Q519 616 518.50 600Q518 584 519 583L520 382Q643 396 687 405Q731 414 775 431L827 394Q832 389 832.50 383.50Q833 378 819 377L728 367L645 358L519 342L521-51Q773-41 883-8L941-51Q949-58 948.50-63Q948-68 936-68L885-71L700-81Q338-101 263.50-108.50Q189-116 137-128L86-92Q82-89 82-84Q82-79 92-78L197-72L475-54L470 605Q469 635 467.50 667.50Q466 700 462.50 720.50Q459 741 447 781Z"  horiz-adv-x="1024" vert-adv-y="1024"  />

      
      <glyph glyph-name="uni6DF1" unicode="&#x6DF1;" d="M68 36L78 50L98 39L141 14Q158 3 161 4Q164 4 168 20L174 37L231 226L269 368L295 453L304 482L321 478L314 447L292 352L264 225L199-51Q192-79 190-83.50Q188-88 186-88.50Q184-89 180-84L157-58L80 23L68 36M75 470L82 485L108 476L164 454L200 440Q220 431 223.50 425Q227 419 227 399L226 366Q225 349 220 346.50Q215 344 210 351L202 361Q194 370 158 404Q122 438 96 456L75 470M131 727L155 717L201 696L254 671Q269 663 273.50 657Q278 651 277 641L271 587Q268 560 254 579L244 592Q236 602 206.50 632.50Q177 663 170 671L139 698L123 713L131 727M218-73L230-64Q382 49 438.50 130.50Q495 212 524 263L414 246L372 238L342 231Q341 231 329 241L306 259Q299 263 300.50 267.50Q302 272 310 273L373 279L557 301L557 361Q557 370 555 390Q553 410 551.50 419Q550 428 538 463L550 472L621 410Q610 397 606 388.50Q602 380 600 364.50Q598 349 598 335L598 305Q733 322 774 333L801 341L819 346L863 316Q869 311 868 307Q867 303 855 302L706 286L607 275Q705 147 738.50 107.50Q772 68 801 49Q830 30 864 20.50Q898 11 964 2L963-14L870-22L795-30Q682 118 598 241L597-40L595-126Q594-155 590.50-158Q587-161 583-160.50Q579-160 569-142L556-120L541-92Q533-78 533.50-71.50Q534-65 544.50-45Q555-25 556 24L557 242Q512 174 476 126.50Q440 79 387 30Q334-19 248-76L230-88L218-73M784 684L618 664L398 641Q395 620 390 587Q385 554 366 521Q347 488 338 517L328 548Q322 563 322.50 566Q323 569 342.50 592Q362 615 366.50 658Q371 701 371 716L371 742L387 743L391 722L397 670L788 717L807 746Q815 759 827 750L865 719Q873 711 873.50 707Q874 703 863 697Q844 685 833.50 676Q823 667 789 623L753 577L741 560L727 569L735 585L784 684M333 359L345 370Q415 434 449.50 487.50Q484 541 490.50 559Q497 577 498 582L500 599L513 602L555 536Q541 530 535 525.50Q529 521 521.50 513.50Q514 506 469 455Q424 404 362 358L343 344L333 359M617 593L629 605L646 593L692 562L755 517L787 492Q800 481 801 475.50Q802 470 800 459L791 419Q789 411 785 410Q781 409 779 414L762 438Q734 477 688 524L659 553Q640 572 637 576L617 593Z"  horiz-adv-x="1024" vert-adv-y="1024"  />

      
      <glyph glyph-name="uni5E08" unicode="&#x5E08;" d="M621 444L506 431L506 202L504 106Q503 59 497 53.50Q491 48 481 65L468 85L455 107Q449 116 448.50 121Q448 126 456 141Q463 155 464.50 172Q466 189 466 233L466 419L462 476L456 529L472 532L502 466L621 478L621 663L538 651L485 644L437 635Q432 636 423 644L393 667Q387 671 385.50 673.50Q384 676 405 678L459 681L528 688L629 699L711 707Q808 716 861 735L911 702Q919 696 918.50 691Q918 686 907 686L852 683L756 677L661 668L661 482L794 497L814 531Q820 542 833 534L867 509Q875 502 875.50 498.50Q876 495 869 489L859 481Q849 471 846 458Q843 445 842 434Q841 423 838 386Q835 349 831 290.50Q827 232 822.50 181Q818 130 808 94.50Q798 59 795.50 54.50Q793 50 790 50.50Q787 51 775 66L742 104L700 152L679 175L666 188L677 200L702 183L745 155Q769 139 771 138.50Q773 138 777 151Q783 173 784 195.50Q785 218 791 293.50Q797 369 798 396L799 463L661 449L658-1L655-126Q654-164 648-169.50Q642-175 628-152L614-130L604-111Q594-93 594.50-88.50Q595-84 605.50-64.50Q616-45 617 1L621 444M158 656L171 664L235 600Q226 588 221.50 576.50Q217 565 217 535L217 243L215 150Q213 96 194 129L180 152L164 181Q157 192 157.50 197Q158 202 163 211.50Q168 221 170 227Q172 233 174.50 249Q177 265 177 287L177 532Q177 543 175 569Q173 595 171.50 609Q170 623 158 656M118-126L130-114Q172-72 206.50-28.50Q241 15 271 85Q301 155 309.50 226.50Q318 298 322 365Q326 432 327 479L328 604Q328 641 328.50 650Q329 659 328 703Q327 729 325.50 745Q324 761 322 766L307 806L319 815L395 752Q387 738 384.50 731Q382 724 379.50 714.50Q377 705 375.50 693.50Q374 682 374 655L370 567Q369 561 366.50 477Q364 393 357.50 298.50Q351 204 312 90.50Q273-23 149-123L128-140L118-126Z"  horiz-adv-x="1024" vert-adv-y="1024"  />

      
      <glyph glyph-name="uni53F2" unicode="&#x53F2;" d="M459 81Q347 152 318 166Q289 180 254 188L254 203L333 214Q382 167 476 111Q497 162 505.50 195.50Q514 229 516 242L521 281L354 263L351 245Q347 222 345.50 219.50Q344 217 341.50 215.50Q339 214 327 233L317 248L305 270Q299 279 299.50 283Q300 287 305.50 297Q311 307 313.50 323.50Q316 340 316 349L316 424Q316 429 312.50 472Q309 515 309 521L306 540L300 582L313 587L350 503L538 527Q539 552 540 565L541 608Q542 651 541.50 660.50Q541 670 540 694.50Q539 719 536.50 740Q534 761 523 801L534 809L611 740Q600 726 595 714.50Q590 703 587 680.50Q584 658 584 622L583 582L582 533L768 556L792 595Q796 602 803 597L847 561Q856 553 855 549.50Q854 546 852.50 544Q851 542 838.50 532Q826 522 821 512Q816 502 812 474L790 347L816 324Q823 317 822.50 314Q822 311 820 309.50Q818 308 792 307L757 305L710 302L638 295L565 286Q562 264 560 251.50Q558 239 551.50 209.50Q545 180 538 156Q531 132 512 88Q592 36 685.50-16Q779-68 822.50-81.50Q866-95 980-100L981-117L793-146L700-77L670-56L606-13L493 59Q440-17 366.50-65Q293-113 145-163L110-175L105-154L140-140Q287-82 340-41.50Q393-1 414 22.50Q435 46 459 81M354 297L526 317Q528 341 530 354L533 403L536 447L538 492L355 470L354 297M568 322L749 343L775 522L580 498Q577 472 577 459L574 401Q572 365 568 322Z"  horiz-adv-x="1024" vert-adv-y="1024"  />

      
      <glyph glyph-name="uni52BF" unicode="&#x52BF;" d="M325 484L325 576L256 566L224 560L195 553Q195 553 183 562L159 580Q145 590 167 592L211 596L265 601L325 608L325 691Q325 716 323 731Q321 746 317.50 758Q314 770 302 797L312 805L386 750Q374 733 371 726.50Q368 720 366 708.50Q364 697 364 688L364 613L399 619Q435 625 468 638L505 610Q510 606 509.50 600Q509 594 499 594L483 593Q460 591 364 580L364 495L459 525L481 532L487 514L474 508L364 464L363 322Q362 316 359.50 290.50Q357 265 355.50 256.50Q354 248 345.50 224Q337 200 323 218L315 228Q258 298 208 341L219 352L296 306Q312 296 315.50 295.50Q319 295 320.50 302Q322 309 323 331L325 450L247 418L213 403L175 385L156 375Q154 375 146 382L116 405Q108 410 108 412.50Q108 415 126 421L183 438L262 463L325 484M120-159L136-151Q295-72 355.50 5Q416 82 449 160L328 148L269 142L235 136L221 147L200 163Q192 168 192.50 172Q193 176 203 177L237 179L313 183L461 196Q479 253 482 270L486 293Q428 250 388 229L377 223L366 238L385 250Q394 255 428.50 282.50Q463 310 490 340Q517 370 551 421Q533 430 525 435L487 454L469 464L476 479L563 450Q578 493 590 554L547 546L508 538Q507 538 496 547L474 564Q470 566 469.50 570Q469 574 478 575L543 582L594 589Q596 614 598 628L602 686Q605 720 604.50 729.50Q604 739 601.50 753.50Q599 768 587 801L598 808L675 749Q659 736 657 728Q655 720 653 706L647 677L642 636L636 596L734 612L756 641Q761 648 771 640L803 612Q810 605 809.50 600.50Q809 596 806 593.50Q803 591 790.50 583Q778 575 773 555Q768 535 767.50 507Q767 479 771 453Q778 392 803.50 358.50Q829 325 852.50 313.50Q876 302 883.50 295Q891 288 893 304Q893 305 892.50 312Q892 319 893.50 366.50Q895 414 895 419L895 439L910 440L913 419L935 303L944 267Q946 252 948.50 247Q951 242 951.50 238Q952 234 938 233Q927 231 897.50 242Q868 253 818 288.50Q768 324 750.50 373Q733 422 732.50 456.50Q732 491 733 503Q733 527 734 539L736 576L631 560Q616 488 609 468L598 436L668 406Q682 399 684.50 394.50Q687 390 689 379L692 345Q693 332 691 323.50Q689 315 679 326L669 336Q638 366 583 403Q548 355 510 315L546 276Q532 263 527 249L518 224L509 201L696 218L718 246Q726 257 739 246L769 218Q776 211 775.50 206.50Q775 202 763 194.50Q751 187 746.50 179.50Q742 172 739.50 163Q737 154 732.50 134.50Q728 115 711 54Q694-7 667.50-67Q641-127 628-145Q615-163 612-162Q608-162 595.50-144Q583-126 573-111L535-62L504-24L491-9L502 2L522-11L581-57Q605-77 610-76Q620-76 643-15Q666 46 677 80.50Q688 115 703 183L495 165Q450 61 381.50-21.50Q313-104 154-165L128-175L120-159Z"  horiz-adv-x="1024" vert-adv-y="1024"  />

      
      <glyph glyph-name="uni6C34" unicode="&#x6C34;" d="M62-63L75-53Q109-27 153.50 10.50Q198 48 249.50 115Q301 182 325 226Q349 270 371 325.50Q393 381 405 417Q298 403 261 394Q224 385 187 372L140 399Q133 402 133.50 406.50Q134 411 143 413L229 425L405 450L423 477Q432 491 445 479L475 449Q482 441 481 436.50Q480 432 471.50 425.50Q463 419 457 409Q451 399 443 378.50Q435 358 418.50 319Q402 280 393.50 263.50Q385 247 338.50 172.50Q292 98 207.50 25Q123-48 89-67L68-79L62-63M357-13L471-73Q482-80 485-79.50Q488-79 491-70Q494-61 495-42L496-12L502 634Q502 636 501.50 639.50Q501 643 499.50 685.50Q498 728 495.50 747Q493 766 481 793L491 805L572 731Q558 716 553 701.50Q548 687 547 668Q546 649 546 626L546 535L639 332L657 350Q684 377 734.50 443Q785 509 790 546L794 570L806 575L852 484Q821 472 805 457.50Q789 443 757.50 410.50Q726 378 674 329L652 308Q682 239 727 155Q772 71 809 30.50Q846-10 961-21L961-38L771-38Q728 50 684 146Q640 242 597.50 340.50Q555 439 546 460L541-27Q540-62 538-91Q536-120 528.50-143.50Q521-167 516-174.50Q511-182 498-166L463-127L404-72L349-27L357-13Z"  horiz-adv-x="1024" vert-adv-y="1024"  />

      
      <glyph glyph-name="uni4ED6" unicode="&#x4ED6;" d="M458 353L458 473Q458 506 454 531.50Q450 557 435 589L445 600L515 534Q509 524 505.50 515.50Q502 507 500.50 494.50Q499 482 499 454L499 371L607 428L608 654Q608 662 606 700Q604 738 602.50 743.50Q601 749 590 781L603 790L673 717Q659 699 656 692Q653 685 650 667.50Q647 650 647 632L647 449L773 515L797 553Q803 563 818 553L847 532Q858 523 857.50 518.50Q857 514 854 510L842 498Q835 490 830 478.50Q825 467 821.50 450Q818 433 816 418L809 366L796 292L788 244Q785 228 773.50 186.50Q762 145 752 129.50Q742 114 737 115Q732 115 720 134L643 244L642 96L640 68Q640 45 634.50 34Q629 23 616 47L600 76Q586 99 587 105Q587 108 592 118Q597 128 600 145Q603 162 603.50 170.50Q604 179 605 217L606 390L500 334L500 103Q500 89 502 48Q504 7 509.50-12Q515-31 541.50-52.50Q568-74 746-69Q871-66 880-53.50Q889-41 890-20L895 153L913 154L935 7L947-59L950-75Q948-87 939-89.50Q930-92 922.50-92.50Q915-93 855-101.50Q795-110 687-108Q586-107 547.50-96.50Q509-86 489.50-64.50Q470-43 465-4.50Q460 34 460 56L460 316Q404 284 375 259L327 273Q318 275 317.50 280.50Q317 286 329 292L458 353M645 254L653 260L706 213Q723 197 728 198Q731 198 733.50 204Q736 210 745 246.50Q754 283 765.50 364Q777 445 781 477L646 410L645 254M70 292L84 307Q130 356 183.50 422.50Q237 489 262.50 539Q288 589 305.50 627.50Q323 666 331.50 687.50Q340 709 344.50 735.50Q349 762 349 772L348 794L361 803L417 711Q398 694 387 677L368 644L304 533L303-88Q302-155 296-177Q290-199 270-157L250-116L241-98Q239-92 240-87Q240-85 248.50-69.50Q257-54 259.50-23.50Q262 7 263 71L264 476Q236 439 187 385Q138 331 100 297L80 279L70 292Z"  horiz-adv-x="1024" vert-adv-y="1024"  />

      
      <glyph glyph-name="uni6CF0" unicode="&#x6CF0;" d="M60 50L97 78Q227 176 274.50 242Q322 308 347 347Q268 340 176 318L136 350Q130 354 131 358.50Q132 363 143 364Q214 368 250 371L367 380Q393 429 411 469Q356 462 325 453L283 481Q277 484 277.50 488.50Q278 493 299 495L324 496Q330 496 364 499L426 504Q444 548 459 598Q313 584 276 574L236 607Q229 612 229.50 614Q230 616 232 617.50Q234 619 273 621L318 623L400 627L469 632Q490 706 489.50 742Q489 778 485 800L498 809L563 740Q544 726 536 708Q528 690 514 636L610 644Q687 650 730 670L775 638Q782 632 781 628Q780 624 773 624L504 601Q496 580 487 553Q478 526 470 507L559 515Q642 522 695 545L736 512Q744 505 743 500.50Q742 496 735 496L455 472Q441 439 413 385L600 402Q792 419 837 440L888 402Q891 399 890.50 394.50Q890 390 883 390L631 371L659 335L688 300L748 235Q765 215 798.50 189.50Q832 164 865.50 149Q899 134 962 124L961 106L802 94L759 153L732 190L595 368L483 359L541 303Q531 281 528 265.50Q525 250 525 232L525 139Q592 194 611 217Q630 240 643 268L655 269L677 196Q650 191 631 181Q612 171 529 120L726 43L743 37Q747 33 750 17L759-40Q759-42 758-52Q757-62 746-51L730-37Q693-6 661 16.50Q629 39 525 100L525-51Q525-60 522.50-90Q520-120 519-129.50Q518-139 513-157.50Q508-176 501.50-176.50Q495-177 480-161L456-137L415-99L355-50L365-33L438-70Q473-88 476-88.50Q479-89 482-77Q485-65 485-26L485 108Q336 21 313 4.50Q290-12 256-43L203-19Q187-12 188.50-8.50Q190-5 215 5L251 20L310 45L384 81L485 131L485 222Q485 257 482 284.50Q479 312 465 356L395 350Q382 333 360.50 302Q339 271 315 241L348 226L382 210L413 195Q425 188 426 181Q427 174 425 164L419 138Q415 124 412 121Q409 118 400 131L390 145Q366 178 303 227Q286 210 278 202L237 160Q183 107 109 57L72 32L60 50Z"  horiz-adv-x="1024" vert-adv-y="1024"  />

      
      <glyph glyph-name="uni575B" unicode="&#x575B;" d="M268 83L266 348L215 337L175 327L151 320L142 327L111 351Q107 353 107.50 356.50Q108 360 119 362L197 374L266 387L267 609Q267 620 264 655.50Q261 691 258.50 704.50Q256 718 239 762L254 771L330 710Q320 694 314.50 677Q309 660 309 602L308 394Q333 398 355 402Q377 406 420 421L457 394Q465 388 463.50 382Q462 376 455 376L384 367L308 355L311 101L462 160L479 167L489 150L465 138L341 74L268 37L197-2L173-17L154-32Q154-32 142-24L100 3Q93 7 93 11Q93 15 100 18L162 39L235 69L268 83M629 315L665 262Q642 244 634.50 230.50Q627 217 606.50 171.50Q586 126 485-54L727-15L782-4Q770 15 756 41.50Q742 68 741 71L706 129L693 153L706 163L718 150L797 60L860-13Q872-29 873-34L870-47L868-59L854-109Q849-125 843-124.50Q837-124 834-115L830-106L817-74L795-29L592-78L539-91L495-104L470-112L449-120Q448-120 435-108L404-81Q399-78 399.50-73.50Q400-69 404.50-66.50Q409-64 424-58Q439-52 456-37Q473-22 514.50 72Q556 166 569 199.50Q582 233 586.50 256.50Q591 280 592 288L593 311L543 303L493 293L448 283L421 275Q419 275 408 285L384 305Q380 308 379.50 312Q379 316 388 318L447 326L513 336L668 360Q785 378 858 404L909 370Q914 366 913.50 360.50Q913 355 906 355L816 343L629 315M839 596L763 587L670 575L594 562L548 553L489 539L476 549L448 570Q440 575 440.50 577.50Q441 580 451 582L535 593L618 605Q735 621 795 645L841 610Q856 598 839 596Z"  horiz-adv-x="1024" vert-adv-y="1024"  />

      
      <glyph glyph-name="uni9898" unicode="&#x9898;" d="M54-141L60-132Q64-125 93-77Q122-29 136-4Q150 21 172 75.50Q194 130 198.50 147Q203 164 209 191Q215 218 215.50 225Q216 232 216 236Q215 247 213 271L226 276L277 209Q261 200 252 177L240 144L230 118L331 74L330 320L254 311L204 305L168 298L136 291Q134 291 122 300L96 318Q89 322 89.50 325.50Q90 329 102 331L148 335L260 346L332 354Q446 366 485 385L525 356Q530 352 529.50 347.50Q529 343 523 343L368 325L368 212Q391 216 413.50 220.50Q436 225 459 236L493 213Q498 209 497.50 204.50Q497 200 490 199L429 190L368 180L368 60L496 9Q552 60 585 104.50Q618 149 635.50 202Q653 255 658 319Q663 383 663.50 396Q664 409 662.50 420Q661 431 654 449L666 457L717 408Q711 400 709 395Q707 390 704.50 381Q702 372 694 316.50Q686 261 675 214.50Q664 168 643 133.50Q622 99 601.50 76Q581 53 552.50 29.50Q524 6 519 1L608-31Q615-34 690-56Q765-78 788-82Q811-86 859-85Q910-85 950-80L954-98L767-149L707-122L517-36L218 91Q209 69 186 23.50Q163-22 139-59.50Q115-97 97.50-119Q80-141 79-143L70-156L54-141M456 483L479 463Q485 457 484 452Q483 447 478 447L463 446Q402 441 278 426L277 407Q275 378 269.50 377Q264 376 255 388L244 402L232 419Q226 426 226.50 430Q227 434 230.50 441.50Q234 449 236.50 470.50Q239 492 239 496L238 513L233 639Q231 664 229 682Q227 700 217 763L229 768L269 693L438 714L455 741Q460 750 469 743L500 716Q503 712 503.50 709.50Q504 707 499 701Q483 683 479.50 670Q476 657 474 637L456 483M272 572Q332 582 342 584.50Q352 587 377 598L407 572Q410 569 409.50 564.50Q409 560 404 560L274 543L277 456L422 476L439 679L269 658L272 572M695 652L719 628Q707 616 703 607L693 578L676 526L791 543L802 563Q809 576 821 567L852 540Q855 536 855.50 533Q856 530 849 523Q836 511 833.50 504Q831 497 829 481.50Q827 466 827 464L814 251Q810 189 805 175.50Q800 162 795 161.50Q790 161 783 176L774 192L766 208Q760 218 760.50 221Q761 224 763.50 229.50Q766 235 771.50 250.50Q777 266 778 276.50Q779 287 781 312L792 511L584 483L582 279Q581 224 579 201.50Q577 179 571.50 166Q566 153 553 177L544 193L538 207L531 222Q528 226 528.50 228.50Q529 231 536.50 243.50Q544 256 547 285L547 315L549 455Q549 456 548.50 468Q548 480 547.50 491Q547 502 541 572L553 576L578 513L643 522Q667 620 669 630L672 649L627 645L591 639L560 635L538 630Q536 630 528 637L505 655Q498 659 498.50 662.50Q499 666 510 667L552 670L595 674L668 681L733 689Q809 698 854 716L892 686Q895 682 895.50 677.50Q896 673 886 673L865 671Q761 661 695 652M695 174L716 162L780 121L825 93Q847 78 848 75Q849 72 849.50 65.50Q850 59 850 58L845 1Q843-15 836.50-8.50Q830-2 822 11.50Q814 25 771.50 74.50Q729 124 699 152L687 163L695 174Z"  horiz-adv-x="1024" vert-adv-y="1024"  />

      
      <glyph glyph-name="uni540C" unicode="&#x540C;" d="M248 672L784 727L808 757Q818 770 830 760L866 727Q875 718 874 713Q873 708 862 701Q851 694 845.50 688.50Q840 683 838.50 674.50Q837 666 837 635L837-28Q837-33 835-63.50Q833-94 833-100L829-124Q823-171 798-143L750-91L708-52L639 4L647 16L775-51Q782-56 787-54.50Q792-53 791-30L792 5L792 689L250 634L250-59Q250-66 249-95L248-127Q246-161 238-162.50Q230-164 224-150L204-112Q189-83 189-77.50Q189-72 192-65L200-44Q202-36 203.50-28Q205-20 206.50 1.50Q208 23 208 55L207 633L204 683L197 731L189 772L207 779L248 672M750 532Q755 525 754.50 522.50Q754 520 750 518L673 509L427 480Q362 472 334 462L299 489Q292 494 293 498Q294 502 300 503L380 511L609 537Q662 543 700 562L750 532M387 427L422 360L614 383L634 411Q642 422 653 412L682 385Q689 378 688.50 373Q688 368 676.50 358Q665 348 661 341Q657 334 655 319L639 203L664 183Q669 178 669.50 174Q670 170 664.50 168Q659 166 618 164L518 157L433 149L432 81Q431 38 412 69L395 96Q380 119 380.50 123Q381 127 386.50 140Q392 153 393 177.50Q394 202 394 209L388 335L381 380L372 420L387 427M433 185L598 201L617 347L428 327L433 185Z"  horiz-adv-x="1024" vert-adv-y="1024"  />

      
      <glyph glyph-name="uni7EDF" unicode="&#x7EDF;" d="M430 117L437 103Q311 44 264.50 23Q218 2 187-13Q156-28 151-30L106-7Q92 0 92 2Q92 4 94 6.50Q96 9 139 21L181 32L248 54L430 117M307 777L357 695Q337 679 321 653.50Q305 628 274 571L188 413L323 435L341 469L351 494Q356 508 357 517L358 532L371 539L405 469Q395 460 387 453.50Q379 447 357 414L318 356L244 240L226 212L397 253L417 258L422 239L401 231L309 203L267 189L235 178L220 171L203 162Q184 152 181.50 152.50Q179 153 170 164L154 183Q144 194 144.50 197Q145 200 166 207Q187 214 210 247L243 295L290 372L308 404L222 382L192 373L177 368L168 363Q154 355 149.50 355.50Q145 356 140 365L126 385Q116 398 117 400Q118 402 120 403.50Q122 405 142.50 413.50Q163 422 210 520L242 587L272 656Q279 673 282 683.50Q285 694 289.50 716.50Q294 739 295 745L296 772L307 777M248-150L300-114Q328-95 388-36Q448 23 473.50 87Q499 151 514 206.50Q529 262 528 276L527 294Q473 275 459 269L422 304Q415 309 415.50 313.50Q416 318 422 322L446 329Q459 334 480 366L517 423L553 487Q575 527 577 539L578 547Q462 534 428 520L395 548Q386 555 386.50 559.50Q387 564 400 565L424 566L472 570L520 575L603 584L714 598Q796 608 847 628L891 594Q896 589 896.50 585.50Q897 582 884 581L850 578L788 573L613 552L635 509Q606 492 590 469L529 385L486 326L759 372Q750 384 737.50 405Q725 426 681 483L691 495L739 452L773 418L804 388Q845 348 844 342.50Q843 337 839 324L824 282Q815 258 806 271L796 295L785 321L769 350L653 324L707 267Q694 255 688 244.50Q682 234 682 218L682 20Q682-40 700-58Q718-76 774-75Q850-75 860-64.50Q870-54 870-9L870 116L887 117L897 55L908-7L917-49L927-92Q926-97 923.50-100Q921-103 868-109Q815-115 772-114Q688-114 670.50-92Q653-70 647-51.50Q641-33 642-10L643 230L643 237Q643 263 642 272L637 298L633 320L550 299L588 245Q579 237 574.50 233.50Q570 230 567 226.50Q564 223 561.50 215.50Q559 208 545 170L521 105Q485 11 421-48.50Q357-108 302-140L259-165L248-150M561 787L573 799L599 771L632 735L654 707Q669 686 669.50 683Q670 680 664 668L645 629Q632 602 623 615L619 633L615 647L610 668Q607 678 600 695.50Q593 713 585 733.50Q577 754 561 787Z"  horiz-adv-x="1024" vert-adv-y="1024"  />

      
      <glyph glyph-name="uni95EE" unicode="&#x95EE;" d="M161 664L172 673L240 605Q231 587 227.50 576Q224 565 223 551Q222 537 222 475L222 12L220-93Q218-157 195-111L168-59Q159-40 159-36Q159-32 167.50-18Q176-4 180 15Q184 34 184 64L184 536Q184 549 181 574Q178 599 174.50 616.50Q171 634 161 664M228 790L240 800L264 781L304 748L338 719Q349 709 350 704Q351 699 347 683L335 640Q334 638 326 620Q318 602 312 628L309 639Q299 672 280 704Q261 736 250.50 753Q240 770 236 777L228 790M377 511L408 433L580 453L600 483Q608 495 619 486L655 456Q661 450 661.50 446Q662 442 651 435Q636 425 631 413Q626 401 624 378L613 264L639 245Q661 228 634 225L413 199L411 150Q409 124 404 120Q399 116 388 137L369 172Q359 189 360 192Q361 195 367 203Q373 211 374.50 219Q376 227 376.50 242.50Q377 258 377 267L371 441L364 508L377 511M411 236L573 254L587 419L406 395L411 236M651-1L660 12L684-1L742-35Q767-51 769-50Q777-50 780.50-8Q784 34 785 80L786 672Q759 668 669.50 659Q580 650 463 629L425 656Q419 660 418.50 663.50Q418 667 441 670L514 677Q612 685 778 707L800 739Q809 752 822 740L852 711Q862 700 861.50 696.50Q861 693 858 690L846 681Q837 674 834 663Q831 652 829.50 617.50Q828 583 828 569L828 16Q828-33 827.50-44Q827-55 823.50-82.50Q820-110 812-131.50Q804-153 800-152Q796-151 779-132L727-77L673-22L651-1Z"  horiz-adv-x="1024" vert-adv-y="1024"  />

      
      <glyph glyph-name="uni884C" unicode="&#x884C;" d="M283 345Q240 305 172 250.50Q104 196 86 185L67 173L61 189L71 197Q166 273 239 352Q312 431 338 469.50Q364 508 379 549L393 550L410 483Q414 463 413.50 460.50Q413 458 397.50 451.50Q382 445 359 421L339 402L322 383L322-25L320-115Q319-135 315-145.50Q311-156 307.50-156.50Q304-157 297-143L278-107L265-76Q260-65 260.50-61.50Q261-58 270-44.50Q279-31 281-8.50Q283 14 283 48L283 345M125 457L141 473Q280 612 317.50 673.50Q355 735 360 751L371 786L386 788L410 715L415 700Q414 698 402.50 694Q391 690 373 671L333 631L272 566Q235 527 158 462L138 445L125 457M716 417L745 386Q755 374 755.50 372Q756 370 751 363Q742 351 741.50 334Q741 317 742 271L745-46Q745-62 743-83.50Q741-105 739-116.50Q737-128 730-147.50Q723-167 714-157L642-86L560-9L568 3L636-40Q686-73 695-69Q699-68 701-28Q703 12 703 25L701 295Q700 310 699 327.50Q698 345 695 368.50Q692 392 685 413Q526 387 441 370L401 397Q387 406 399 409Q402 409 411 408Q420 407 442.50 411.50Q465 416 582.50 430.50Q700 445 777 461Q854 477 874.50 483.50Q895 490 900 492L948 462Q961 453 960 450Q959 447 956 445L916 442L834 433L716 417M556 659Q695 677 738.50 688Q782 699 810 710L854 686Q869 677 859 668L826 664L764 656Q670 639 627 632Q584 625 550 616L507 639Q483 651 518 655L556 659Z"  horiz-adv-x="1024" vert-adv-y="1024"  />

      
      <glyph glyph-name="uni5B66" unicode="&#x5B66;" d="M509 189Q503 208 499.50 217Q496 226 487 242.50Q478 259 475 268L471 277L484 287L493 278L523 237L602 323L631 355L581 350L467 337L401 328L362 321L334 315Q329 315 322 321L287 345Q280 349 282 352.50Q284 356 291 357L381 363L495 374Q579 383 655 394L683 424Q691 433 701 424L732 393Q741 383 740 380Q739 377 719.50 370Q700 363 651 320L573 252L536 217L545 192L691 207Q813 219 863 238L909 201Q916 195 914.50 191Q913 187 904 187L796 181L656 171L552 161Q557 118 560 97Q563 76 563.50 56.50Q564 37 564 8Q563-18 560.50-50.50Q558-83 553-100.50Q548-118 537.50-149Q527-180 522-180.50Q517-181 513-176L499-158L482-141L437-97L376-40L367-32L376-22L388-28L472-77Q496-92 500-90Q504-89 510.50-58.50Q517-28 520-2Q523 24 523.50 43.50Q524 63 523 96Q521 126 520 137L517 158L377 144Q312 137 248 129L206 122L183 118Q181 118 173 126L143 152Q131 163 149 163L173 165L263 169Q351 176 442 183L509 189M218 481L308 485L625 513Q658 578 682.50 638.50Q707 699 712 717L719 745Q724 768 723 778L720 796L735 801L791 722Q767 706 745.50 673Q724 640 656 515L776 525Q813 528 845 534L868 565Q878 578 888 569L922 536Q930 527 929.50 523.50Q929 520 923 515L904 502Q888 490 853 451L811 400L800 387L786 396L794 414L838 495L773 491L609 478L343 454L214 444Q211 434 207 413Q203 392 197.50 373Q192 354 181.50 331.50Q171 309 166 310Q161 311 159 319L141 365Q137 375 137.50 379.50Q138 384 157 402.50Q176 421 183 456Q190 491 193.50 512Q197 533 198 541L200 559L216 559L218 529Q219 512 219 510L218 481L218 481M281 741L296 727L354 664L399 613Q413 596 413.50 590.50Q414 585 406 564L396 540Q378 498 371 526L368 537Q360 562 335 613.50Q310 665 294 690.50Q278 716 278 718L270 733L281 741M476 801L492 779L516 746L545 701L568 664Q578 647 577.50 643.50Q577 640 575 634L551 578Q543 560 537.50 561.50Q532 563 531 570L529 582Q522 623 515 648Q508 673 491 719Q474 765 468 782L463 794L476 801Z"  horiz-adv-x="1024" vert-adv-y="1024"  />

      
      <glyph glyph-name="uni6613" unicode="&#x6613;" d="M451 421L375 412L372 380Q370 367 363.50 366.50Q357 366 353 373L347 382L333 405L325 418Q321 423 321.50 427.50Q322 432 325.50 440.50Q329 449 332 457Q335 465 335.50 485Q336 505 336 507L335 612Q334 643 333 671Q332 699 330 722.50Q328 746 323 783L340 789L369 712L461 721L618 736L701 747L718 774Q724 783 735 775L778 741Q781 738 781.50 734.50Q782 731 776 727Q754 710 749.50 703Q745 696 738 639L729 572L718 487L740 466Q745 460 744.50 454.50Q744 449 735 449L669 444L490 425L512 394Q491 385 484 379.50Q477 374 418 317L737 350L799 356L822 385Q830 395 840 386L875 354Q882 347 881.50 344.50Q881 342 869 332.50Q857 323 849 311Q841 299 836.50 284.50Q832 270 815 207.50Q798 145 782 97Q766 49 738-16.50Q710-82 684.50-118.50Q659-155 652-161.50Q645-168 641-158L635-146Q610-98 542 5L555 16L597-22L632-54Q651-72 662-69.50Q673-67 703 5.50Q733 78 740.50 100.50Q748 123 766.50 185.50Q785 248 787 258L800 320L697 311Q674 254 656.50 220.50Q639 187 589.50 121Q540 55 445-13.50Q350-82 307-103Q264-124 183-158L177-140Q253-107 390-18.50Q527 70 578 165Q629 260 645 306L543 295Q501 230 491 217Q481 204 435.50 156Q390 108 309.50 54Q229 0 161-30L153-14Q227 23 314 90.50Q401 158 434.50 205Q468 252 489 289L446 283L418 278L394 273L379 280Q277 197 237 172Q197 147 146 123L140 141Q245 200 329 281.50Q413 363 451 421M376 576Q413 580 483 588.50Q553 597 604 616L641 585Q646 580 644.50 576.50Q643 573 638 573L597 569L444 552L377 544L375 445L611 473L676 482L696 626L706 712L648 706L547 696L440 686L374 679L376 576Z"  horiz-adv-x="1024" vert-adv-y="1024"  />

      
      <glyph glyph-name="uni4F18" unicode="&#x4F18;" d="M283-162L300-142Q347-87 375.50-45Q404-3 432 55.50Q460 114 477 169Q494 224 498.50 241Q503 258 512 301.50Q521 345 523 353L529 391Q486 384 447 379.50Q408 375 360 358L318 387Q310 391 311.50 395Q313 399 321 401L366 407L534 424Q535 445 537 456L544 525Q547 563 550.50 605.50Q554 648 555.50 678.50Q557 709 556.50 726.50Q556 744 553.50 757Q551 770 542 803L554 811L627 735Q615 715 609.50 699Q604 683 601 644L580 430L657 439Q822 459 863 479L908 449Q916 443 913.50 438Q911 433 845 426L753 416L633 403L677 364Q657 335 656 280L649-10Q648-43 650-58Q652-73 668.50-85.50Q685-98 772-97Q869-97 876.50-88.50Q884-80 884-59L883 132L899 134L922 18L949-85Q954-107 951.50-115.50Q949-124 911-126L857-133Q813-139 742-137Q633-135 619.50-100Q606-65 607-42L613 287L616 359L613 389L612 399L574 396Q560 314 543.50 235.50Q527 157 462.50 36.50Q398-84 316-158L296-176L283-162M659 670L669 683L797 607Q813 597 811 580L803 532Q801 522 795 520.50Q789 519 785 526L778 536Q729 605 659 670M52 287L66 302Q109 348 152.50 400.50Q196 453 228.50 509Q261 565 283 613Q305 661 309.50 672.50Q314 684 320 705Q326 726 328.50 741.50Q331 757 331 769L330 789L345 797L399 706Q380 689 369 672L350 639L286 528L285-61Q284-189 268-187Q261-187 250-162L236-132Q220-99 220.50-96Q221-93 229-78Q237-63 240-45Q243-27 243.50-4Q244 19 245 66L246 471Q173 374 82 292L62 274L52 287Z"  horiz-adv-x="1024" vert-adv-y="1024"  />

      
      <glyph glyph-name="uni4E2D" unicode="&#x4E2D;" d="M488 531L488 655Q488 683 482 724Q476 765 457 805L467 817L552 750Q543 731 540.50 723.50Q538 716 537.50 705.50Q537 695 536.50 671.50Q536 648 536 636L536 537L777 565L803 602Q811 613 824 602L861 569Q867 563 866.50 558Q866 553 854 541Q842 529 834.50 516.50Q827 504 825 478L807 319L839 293Q845 287 844.50 283Q844 279 839 276.50Q834 274 776 269L533 248L532-80L530-148Q530-166 526-177Q522-188 517-187Q510-187 494-155L476-120Q465-100 465.50-96.50Q466-93 472-81.50Q478-70 480-61Q482-52 484-38Q486-24 486 23L485 243L268 223L267 167Q266 142 260 142.50Q254 143 249 152L231 180L213 209Q207 217 207.50 219.50Q208 222 213 232Q218 242 219.50 252Q221 262 222.50 278Q224 294 224 300L223 313L216 463L209 515L201 559L196 585L211 593L254 507L488 531M266 260L487 279L487 496L256 472L266 260M534 283L761 306L784 529L534 502L534 283Z"  horiz-adv-x="1024" vert-adv-y="1024"  />

      
      <glyph glyph-name="uni5468" unicode="&#x5468;" d="M59-135L76-115Q99-88 116.50-65Q134-42 161.50 11.50Q189 65 204 109Q219 153 223.50 168Q228 183 236.50 230.50Q245 278 250.50 333Q256 388 258 445Q260 502 260.50 530.50Q261 559 261 580Q260 614 259 627Q258 640 255.50 658.50Q253 677 251 684Q249 691 236 740L250 751L306 674L736 715L765 718L787 749Q793 758 798 758.50Q803 759 817 747L845 721Q855 711 856 708.50Q857 706 857.50 704.50Q858 703 857 701Q855 696 840 685.50Q825 675 820 658.50Q815 642 815 611L814 32Q813-9 812-40Q811-71 809.50-85.50Q808-100 800-134.50Q792-169 785.50-167.50Q779-166 776-162L754-136L714-94L627-13L636 1L711-41Q755-67 759-64Q765-60 767-33.50Q769-7 770 29.50Q771 66 772 154L773 682L527 659L583 604Q563 578 557.50 569.50Q552 561 553 536L553 525Q621 533 659 549L695 524Q705 517 704 513.50Q703 510 699 508L667 505L597 497L554 490L553 392Q670 404 708 421L749 393Q760 385 758.50 381Q757 377 742 376L536 355L476 348L421 340L394 335L380 332L367 328L354 322L342 332L310 357Q308 358 307.50 360.50Q307 363 311 366L329 367L379 371L427 376L475 382L515 388L516 487L480 482L461 479L434 474L418 469Q400 463 399 463.50Q398 464 388 472L364 490Q357 495 357.50 497Q358 499 360 500.50Q362 502 438 511L515 520L515 552Q515 573 514 592.50Q513 612 511 621Q509 630 499 657L305 638Q303 533 301.50 483Q300 433 296.50 388.50Q293 344 290 323Q287 302 281.50 262.50Q276 223 271 196Q266 169 238.50 92.50Q211 16 166.50-42.50Q122-101 106-118L74-152L59-135M391 314L420 263L569 282L609 287L623 310Q628 319 632 318.50Q636 318 646 309L671 284Q680 274 679 270Q678 266 676 264Q674 262 664 257.50Q654 253 651.50 246Q649 239 646 221L631 147L661 121Q667 115 666 110Q665 105 651 104L434 81L431 43Q426-18 406 17L397 33L386 54Q381 63 381.50 68Q382 73 387 83Q392 93 394 104Q396 115 396 121L393 197Q391 234 388.50 250Q386 266 377 306L391 314M434 118L595 138L611 251L431 228L434 118Z"  horiz-adv-x="1024" vert-adv-y="1024"  />

      
      <glyph glyph-name="uni8D44" unicode="&#x8D44;" d="M121 413L159 382Q185 360 188 361Q190 361 210 385L230 410L262 453Q263 455 366 584L379 575Q367 555 358.50 541Q350 527 331.50 500.50Q313 474 307 464L283 425L256 385L230 343L210 312Q194 288 191 289Q186 289 179 301L171 313Q162 325 109 400L121 413M213 265Q281 294 313.50 310Q346 326 425 378Q504 430 532 479Q560 528 571 550.50Q582 573 583 580L587 602Q579 601 551 596L535 593L518 587L508 594L495 602Q437 518 384 459L369 469Q450 576 478.50 649Q507 722 510 742.50Q513 763 513.50 774Q514 785 514 787L510 807L523 815L579 743Q562 730 555.50 721.50Q549 713 540 692.50Q531 672 509 625L654 644Q695 649 759 661L780 690Q789 702 791 701.50Q793 701 804 692L840 658Q843 654 843.50 649.50Q844 645 829 637Q815 629 796 607Q777 585 753.50 554Q730 523 716 508L703 518Q720 550 733.50 575.50Q747 601 760 627L645 611L612 606L641 570Q621 554 607 527Q734 408 768 380Q802 352 851 339.50Q900 327 953 328L954 310L794 288L735 353Q675 419 631 462L591 501Q557 453 521 414.50Q485 376 422 339L382 317L350 299L597 325L636 330L652 353Q658 363 662.50 362.50Q667 362 674 356L703 327Q707 322 707.50 319Q708 316 699 309Q689 300 684.50 290Q680 280 681 249L679 172L677 85L672 29Q671 18 670 12Q669 6 663.50-0.50Q658-7 652 3L634 34Q624 49 624.50 51Q625 53 629.50 61Q634 69 636 79Q638 89 641 133L644 185Q644 194 645 225Q646 256 646 278L646 297L345 268L344 74Q343 63 339.50 25.50Q336-12 328-16.50Q320-21 311-2L294 31Q291 36 290.50 39.50Q290 43 296 52Q304 66 306 86L307 109L309 150L310 282Q271 266 220 248L213 265M161-141Q228-121 287-91Q346-61 383.50-30.50Q421 0 435 28Q449 56 457 83.50Q465 111 468 126.50Q471 142 474 166.50Q477 191 477 206Q475 223 467 246L479 254L538 191Q527 180 522.50 173Q518 166 514 152L504 108Q499 90 490.50 64.50Q482 39 453.50-12Q425-63 329-105.50Q233-148 166-160L161-141M505 28L514 44Q665-29 721-62L749-79Q767-91 768.50-93Q770-95 771-107L772-128L772-148Q772-165 771-173.50Q770-182 751-162L741-152Q719-131 654.50-78.50Q590-26 505 28M191 738Q218 723 248 707.50Q278 692 284 689L308 675Q326 664 327.50 661.50Q329 659 329.50 651Q330 643 330 630L329 605L329 591Q328 583 323.50 581Q319 579 311 590L301 603Q267 646 181 724L191 738Z"  horiz-adv-x="1024" vert-adv-y="1024"  />

      

  </font>
</defs>
</svg>
