<?xml version="1.0" encoding="UTF-8"?>
<svg width="362px" height="83px" viewBox="0 0 362 83" version="1.1" xmlns="http://www.w3.org/2000/svg" xmlns:xlink="http://www.w3.org/1999/xlink">
    <!-- Generator: Sketch 42 (36781) - http://www.bohemiancoding.com/sketch -->
    <title>Group 2</title>
    <desc>Created with Sketch.</desc>
    <defs></defs>
    <g id="Page-1" stroke="none" stroke-width="1" fill="none" fill-rule="evenodd">
        <g id="首页--copy-14" transform="translate(-194.000000, -2338.000000)">
            <g id="Group-3" transform="translate(0.000000, 1927.000000)">
                <g id="Group-2" transform="translate(196.000000, 413.000000)">
                    <g id="Group">
                        <polyline id="Path-25" stroke="#DE3648" stroke-width="3" points="17.302641 13.8529278 10.830431 13.8529278 10.830431 21.4919354 22.947548 21.4919354 22.947548 7 0 7 0 72.0983448 22.9720965 72.0983448 22.9720965 58.1128782 10.8012986 58.1128782 10.8012986 64.5633981 17.04215 64.5633981"></polyline>
                        <polyline id="Path-25-Copy" stroke="#DE3648" stroke-width="3" transform="translate(346.486048, 39.549172) scale(-1, -1) translate(-346.486048, -39.549172) " points="352.302641 13.8529278 345.830431 13.8529278 345.830431 21.4919354 357.947548 21.4919354 357.947548 7 335 7 335 72.0983448 357.972097 72.0983448 357.972097 58.1128782 345.801299 58.1128782 345.801299 64.5633981 352.04215 64.5633981"></polyline>
                        <polyline id="Path-26" stroke="#DE3648" stroke-width="3" points="14 7.08319023 14 0 344 0.0977921903 344 7.08319023"></polyline>
                        <polyline id="Path-26-Copy" stroke="#DE3648" stroke-width="3" transform="translate(179.000000, 75.541595) scale(-1, -1) translate(-179.000000, -75.541595) " points="14 79.0831902 14 72 344 72 344 78.985398"></polyline>
                        <path d="M329,26 L329,6 L28,6 L28,26 L13,26 L13,54 L28,54 L28,74 L329,74 L329,54 L344,54 L344,26 L329,26 Z" id="Combined-Shape" fill="#DE3648"></path>
                    </g>
                    <g id="Group-3" transform="translate(47.000000, 15.000000)" fill="#FFFFFF">
                        <text id="解锁基本信息" font-family="PingFangSC-Regular, PingFang SC" font-size="36" font-weight="normal">
                            <tspan x="46.5" y="38">解锁基本信息</tspan>
                        </text>
                        <path d="M15.9996022,48.4648155 C7.16302429,48.4648155 0,41.7189139 0,33.3956673 C0,27.9883427 3.03582706,23.258426 7.57872753,20.5995648 L7.57872753,11.1884477 C7.57872753,6.37053336 11.7258149,2.46481546 16.8416167,2.46481546 C21.9576175,2.46481546 26.1055004,6.37053336 26.1055004,11.1884477 L26.1055004,21.7170246 C29.7005047,24.4804431 32,28.6848135 32,33.3956673 C31.9997348,41.7189139 24.8364453,48.4648155 15.9996022,48.4648155 Z M22.7358511,11.1884477 C22.7358511,8.12156276 20.097561,5.63689947 16.8416167,5.63689947 C13.5856062,5.63689947 10.9473161,8.12156276 10.9473161,11.1884477 L10.9473161,19.1059812 C12.5364693,18.6073284 14.2315043,18.3267118 15.9996022,18.3267118 C18.4097528,18.3267118 20.686507,18.8437215 22.7358511,19.7423107 L22.7358511,11.1884477 Z M15.9996022,20.705855 C8.55897831,20.705855 2.52617621,26.3874419 2.52617621,33.3956673 C2.52617621,40.4045988 8.55897831,46.0865066 15.9996022,46.0865066 C23.4405576,46.0865066 29.4730945,40.4045988 29.4730945,33.3956673 C29.4730945,26.3874419 23.4405576,20.705855 15.9996022,20.705855 Z M15.9996022,45.2926673 C9.02381012,45.2926673 3.36812445,39.966344 3.36812445,33.3956673 C3.36812445,26.8257609 9.02381012,21.4998869 15.9996022,21.4998869 C22.9764551,21.4998869 28.6314115,26.8257609 28.6314115,33.3956673 C28.6314115,39.966344 22.9764551,45.2926673 15.9996022,45.2926673 Z M18.5263088,30.2235191 C18.5263088,28.9094608 17.3947606,27.8434131 15.9996022,27.8434131 C14.604709,27.8434131 13.4740227,28.9094608 13.4740227,30.2235191 C13.4740227,31.3502858 14.3224021,32.249581 15.4389001,32.4960512 L13.4740227,39.7416967 L18.6314612,39.7416967 L16.4173607,32.5236507 C17.605861,32.3293629 18.5263088,31.3976543 18.5263088,30.2235191 Z" id="Fill-1"></path>
                    </g>
                </g>
            </g>
        </g>
    </g>
</svg>