<?xml version="1.0" standalone="no"?>
  <!DOCTYPE svg PUBLIC "-//W3C//DTD SVG 1.1//EN" "http://www.w3.org/Graphics/SVG/1.1/DTD/svg11.dtd" >
  <svg>
  <metadata>
  Created by font-carrier
  </metadata>
  <defs>
  <font id="iconfont" horiz-adv-x="1024" vert-adv-y="1024" >
    <font-face
      
      font-family="iconfont"
      
      font-weight="400"
      
      font-stretch="normal"
      
      units-per-em="1024"
      
      ascent="820"
      
      descent="-204"
      
    />
      <missing-glyph />

      
      <glyph glyph-name="x" unicode="&#x78;" horiz-adv-x="100"
        d="M20 20 L50 20 L50 -20 Z" />
      

      
      <glyph glyph-name="uniFF0C" unicode="&#xFF0C;" d="M136-20Q51-5 80.50 47.50Q110 100 188 48Q230-16 205-78Q180-140 102-184Q88-188 81.50-182Q75-176 86-164Q132-133 155-86Q178-39 150-12L136-20Z"  horiz-adv-x="1024" vert-adv-y="1024"  />

      
      <glyph glyph-name="uni6848" unicode="&#x6848;" d="M731 552Q732 552 733 546Q736 536 739 518Q739 490 744 480Q751 470 760 470Q770 469 779 482Q786 491 788 514Q788 524 788 530Q788 533 788 537Q794 574 773 596Q761 611 725 615Q616 616 545 616Q539 617 534 616Q541 628 547 638Q548 678 521 687Q490 696 477 680Q473 670 489 637Q495 630 498 616Q407 620 309 620Q257 619 245 608Q230 598 232 565Q232 562 232 555Q231 548 230 515Q230 484 237 474Q244 464 254 464Q266 464 277 487Q283 499 282 526Q283 533 285 545Q286 549 286 551Q299 575 483 578Q693 587 731 552M470 340Q412 327 375 324Q326 318 314 310Q302 303 301 287Q300 275 313 268Q329 261 371 267Q441 282 522 316Q573 292 628 263Q674 235 689 239Q707 242 714 255Q718 264 711 277Q702 290 650 313Q614 329 579 344Q639 377 664 405Q664 406 664 406Q677 407 694 406Q776 399 870 373Q901 360 918 377Q940 396 960 426Q972 447 946 447Q919 446 855 447Q797 450 668 452Q667 453 666 454Q641 488 572 532Q553 544 546 544Q537 544 531 537Q527 533 528 519Q532 513 541 504Q575 479 603 453Q545 456 474 456Q455 457 430 456Q434 460 442 466Q470 488 476 491Q498 498 504 515Q508 531 500 544Q496 551 487 552Q471 552 460 537Q451 521 418 497Q384 472 367 455Q298 455 202 451Q168 452 143 451Q106 450 80 429Q56 408 68 390Q80 372 119 381Q203 397 349 403Q350 400 354 396Q364 386 414 366Q442 354 470 340M581 384Q559 372 535 361Q522 367 508 372Q465 387 437 403Q433 404 429 406Q450 407 474 408Q535 409 613 407Q603 397 581 384M539 115Q549 111 561 102Q652 38 729-46Q751-71 785-57Q815-45 835-26Q851-5 820 3Q789 12 728 44Q647 87 556 149Q662 150 733 141Q764 135 783 146Q811 165 815 180Q816 193 781 194Q624 195 541 190Q541 203 543 217Q546 253 529 272Q516 290 493 271Q480 262 483 226Q483 216 484 189Q432 190 379 189Q336 188 321 195Q290 198 256 192Q226 185 213 163Q203 144 214 127Q226 114 278 127Q342 143 466 147Q435 105 381 74Q294 31 225 10Q191-2 185-17Q181-33 198-44Q216-53 260-40Q311-24 375 16Q436 58 484 107Q484 49 483-6Q479-46 490-59Q511-81 525-65Q544-46 539 7Q538 29 539 100Q539 107 539 115L539 115Z"  horiz-adv-x="1024" vert-adv-y="1024"  />

      
      <glyph glyph-name="uni516B" unicode="&#x516B;" d="M320 456Q317 429 301 391Q286 360 264 333Q237 300 194 263Q133 209 56 163Q40 153 42 137Q43 121 68 109Q89 100 113 116Q174 156 225 210Q268 255 309 312Q345 364 357 398Q370 431 378 446Q390 468 381 492Q374 514 351 520Q335 524 325 515Q318 508 320 491Q321 479 320 456M527 461Q612 319 775 118Q812 67 871 72Q929 75 954 96Q973 112 941 121Q904 133 824 187Q751 239 688 304Q627 367 600 423Q587 447 590 473Q591 515 564 537Q543 552 526 549Q507 545 510 516Q513 483 527 461L527 461Z"  horiz-adv-x="1024" vert-adv-y="1024"  />

      
      <glyph glyph-name="uni767E" unicode="&#x767E;" d="M673 9Q716 2 742 22Q764 38 762 91Q758 215 769 324Q776 358 756 373Q729 392 683 394Q611 395 502 391Q505 401 507 412Q520 488 532 512Q532 513 532 513Q605 514 695 512Q779 505 872 478Q905 465 924 483Q949 504 969 536Q982 560 955 559Q925 558 856 560Q762 563 475 568Q393 569 205 563Q171 563 147 562Q107 561 77 539Q52 517 64 496Q77 477 119 486Q234 508 460 512Q461 503 463 493Q464 477 459 430Q456 408 458 391Q454 392 448 391Q372 391 317 390Q292 390 280 379Q262 363 266 332Q267 310 267 286Q266 228 269 163Q272 103 272 59Q271 17 295 2Q311-8 358 2Q413 12 522 11Q646 10 673 9M513 186Q667 187 707 179Q708 179 709 178Q708 93 691 75Q675 62 639 65Q578 68 485 63Q419 62 383 59Q349 59 339 68Q326 78 322 167Q321 174 321 179Q366 186 513 186M512 229Q371 228 319 233Q318 323 331 332Q344 345 489 346Q673 350 691 337Q707 324 708 234Q671 230 512 229L512 229Z"  horiz-adv-x="1024" vert-adv-y="1024"  />

      
      <glyph glyph-name="uni5B9D" unicode="&#x5B9D;" d="M764 561Q674 562 542 562Q549 577 550 598Q551 623 542 643Q526 665 495 670Q482 671 470 654Q463 642 488 606Q501 590 503 575Q502 568 502 562Q501 563 500 562Q365 563 260 559Q202 558 186 544Q167 528 160 491Q147 433 142 393Q141 357 147 346Q154 334 168 331Q181 330 192 339Q204 352 203 388Q202 433 206 459Q207 478 216 488Q226 501 289 509Q362 519 487 518Q631 519 708 514Q798 508 819 497Q825 494 829 479Q836 457 838 431Q839 397 844 378Q847 353 855 345Q864 339 872 340Q879 341 888 351Q898 367 900 388Q901 407 896 424Q895 431 893 449Q892 465 893 475Q894 494 886 509Q879 528 851 542Q815 561 764 561M715 64Q642 71 581 74Q565 75 550 75Q550 76 550 79Q547 101 546 210Q588 210 617 207Q660 203 715 190Q728 187 743 196Q756 203 758 214Q762 230 758 236Q751 245 731 246Q626 253 545 253Q544 332 550 361Q551 365 551 370Q623 371 669 365Q700 359 719 370Q747 389 751 404Q752 417 717 418Q569 419 512 415Q470 416 427 415Q396 414 385 419Q354 422 320 416Q290 409 277 387Q267 368 278 351Q290 338 342 351Q391 364 485 368Q485 364 486 359Q490 335 491 253Q398 253 328 247Q291 243 281 231Q266 215 280 199Q293 184 330 195Q357 201 398 206Q435 210 492 211Q492 111 487 85Q486 81 485 76Q389 77 287 65Q175 52 138 56Q105 60 79 30Q54-1 69-23Q90-44 126-27Q157-14 208 4Q259 19 359 30Q465 39 575 31Q677 25 735 11Q801-5 867-35Q897-48 919-28Q935-15 953 15Q963 33 941 36Q835 52 745 61Q746 64 748 66Q755 85 768 102Q781 117 777 135Q773 156 756 161Q740 165 727 155Q711 139 715 119Q719 103 715 67Q715 66 715 64L715 64Z"  horiz-adv-x="1024" vert-adv-y="1024"  />

      
      <glyph glyph-name="uni672C" unicode="&#x672C;" d="M525 104Q550 105 572 104Q618 103 660 92Q703 82 728 104Q746 122 744 136Q741 158 665 153Q631 152 525 149Q525 204 525 281Q524 323 524 362Q542 356 558 342Q718 236 853 96Q875 68 914 82Q948 95 970 115Q989 137 954 148Q906 164 815 220Q691 296 550 403Q534 416 524 425Q524 441 525 458Q660 459 740 447Q776 441 795 453Q826 474 830 490Q834 506 793 506Q615 509 527 505Q528 544 531 581Q534 617 517 636Q504 654 481 635Q468 626 471 590Q472 566 473 505Q419 506 364 505Q318 504 301 511Q267 515 229 508Q196 499 181 476Q171 454 183 436Q196 420 253 436Q328 455 474 457Q474 450 474 441Q468 437 465 429Q420 345 326 283Q199 208 95 169Q56 153 51 134Q47 115 69 104Q90 95 140 113Q218 143 314 210Q405 282 475 363Q475 359 476 352Q476 249 474 149Q368 148 324 152Q287 156 266 134Q253 116 255 102Q259 80 293 89Q318 96 353 98Q420 102 473 103Q472 67 471 30Q467-10 478-23Q499-45 513-29Q532-10 527 43Q526 65 525 104L525 104Z"  horiz-adv-x="1024" vert-adv-y="1024"  />

      
      <glyph glyph-name="uni5FC5" unicode="&#x5FC5;" d="M188 417Q130 350 78 305Q57 292 55 279Q54 261 70 244Q95 219 112 226Q125 233 142 266Q179 338 218 395Q231 420 221 429Q209 436 188 417M792 408Q755 401 745 368Q738 341 703 294Q694 278 703 269Q710 263 732 278Q757 302 789 321Q820 336 827 368Q831 389 820 401Q808 411 792 408M420 174Q285 57 196 11Q169-4 177-21Q184-37 206-50Q228-63 278-22Q353 30 449 125Q461 138 474 152Q625 94 791 59Q843 49 881 85Q959 176 963 194Q967 216 937 198Q864 152 817 150Q715 144 620 167Q562 180 511 194Q574 267 612 328Q696 464 719 562Q728 593 723 605Q719 614 705 617Q686 621 678 612Q668 600 662 572Q638 451 570 343Q527 277 459 210Q431 220 405 231Q359 249 344 274Q331 304 343 338Q356 377 385 390Q409 405 406 436Q405 464 376 474Q345 484 336 458Q276 289 292 256Q310 222 403 182Q412 178 420 174M484 595Q462 568 472 539Q479 515 480 461Q483 442 495 441Q505 440 513 465Q519 496 533 527Q549 555 536 583Q529 602 512 605Q496 606 484 595L484 595Z"  horiz-adv-x="1024" vert-adv-y="1024"  />

      
      <glyph glyph-name="uni522B" unicode="&#x522B;" d="M213 627Q174 626 163 609Q156 599 165 571Q172 555 197 454Q204 418 220 408Q232 398 252 409Q271 418 326 419Q375 420 407 411Q432 405 451 414Q470 423 481 454Q494 482 501 514Q508 542 517 559Q530 583 522 596Q515 606 496 618Q471 631 396 632Q321 633 256 629Q237 629 213 627M249 464Q243 468 238 484Q228 521 226 551Q225 564 229 572Q233 578 252 581Q289 585 396 587Q435 586 447 579Q456 572 455 557Q452 524 437 482Q434 473 428 469Q421 465 388 466Q342 467 280 463Q255 462 249 464M326 267Q332 268 340 269Q415 270 439 264Q470 254 470 231Q473 200 454 154Q435 105 372 22Q350-6 361-22Q371-37 393-30Q409-24 436 13Q482 74 509 152Q531 225 529 261Q529 288 501 298Q474 307 340 305Q346 327 349 344Q355 375 348 387Q344 396 329 397Q310 398 303 389Q294 376 292 347Q291 326 286 305Q247 306 222 311Q192 315 166 296Q150 287 157 268Q163 250 207 257Q240 261 274 263Q270 250 263 234Q238 185 190 132Q121 59 75 28Q50 12 59-4Q68-19 90-28Q114-38 156 6Q192 40 236 101Q285 171 307 225Q317 247 326 267M906 647Q896 671 880 672Q862 672 854 658Q845 639 841 581Q838 232 845 170Q849 98 824 71Q788 37 733 24Q666 8 635 21Q623 24 621 15Q618 5 627-11Q636-33 645-38Q664-54 692-49Q747-48 811-13Q859 15 890 58Q906 89 897 173Q885 273 888 385Q895 497 909 572Q919 623 906 647M644 516Q647 458 644 344Q643 256 642 244Q641 219 648 209Q670 176 695 198Q705 207 700 252Q696 297 697 357Q697 421 700 450Q704 490 707 505Q711 521 700 532Q679 548 660 547Q644 546 644 516L644 516Z"  horiz-adv-x="1024" vert-adv-y="1024"  />

      
      <glyph glyph-name="uni4E19" unicode="&#x4E19;" d="M732 385Q656 386 545 385Q551 431 551 494Q550 513 547 525Q611 526 689 524Q771 517 865 490Q898 477 917 495Q942 516 962 548Q975 572 948 571Q918 570 849 572Q755 575 470 579Q388 582 200 575Q167 575 143 574Q103 573 73 551Q48 529 60 508Q73 489 115 498Q233 520 470 525Q474 526 481 525Q482 518 486 509Q496 481 498 440Q499 410 497 385Q496 386 493 384Q370 384 275 380Q217 379 202 364Q184 348 177 313Q149 168 144 71Q141 31 149 18Q156 5 172 2Q185 1 198 11Q211 24 211 66Q208 175 215 237Q219 283 239 309Q248 322 304 329Q368 338 480 339Q484 340 489 339Q485 330 482 322Q463 274 415 236Q361 193 305 167Q284 158 281 146Q277 131 291 118Q304 105 320 105Q336 104 355 116Q412 150 462 206Q483 230 500 257Q504 256 513 250Q520 244 540 225Q562 203 611 144Q638 113 677 121Q732 133 745 143Q773 162 729 172Q704 176 660 197Q608 222 574 247Q529 289 524 300Q523 301 522 302Q528 315 533 329Q534 333 536 339Q623 340 677 337Q756 333 776 324Q788 314 795 280Q808 225 806 167Q802 91 810 45Q814 17 822 9Q832 2 841 3Q850 4 859 15Q871 33 872 56Q876 111 863 158Q859 180 857 228Q854 271 858 298Q859 317 853 333Q846 352 817 366Q783 384 732 385L732 385Z"  horiz-adv-x="1024" vert-adv-y="1024"  />

      
      <glyph glyph-name="uni90E8" unicode="&#x90E8;" d="M497 321Q528 315 547 326Q575 345 579 360Q580 373 545 374Q472 375 419 373Q420 377 421 381Q439 471 454 497Q458 506 457 513Q475 513 496 513Q526 510 537 527Q544 540 533 552Q521 561 497 560Q427 561 359 561Q369 592 372 619Q373 661 346 671Q315 681 300 664Q293 652 311 619Q324 594 324 561Q284 562 245 562Q202 561 175 566Q147 572 124 550Q111 531 115 518Q121 503 152 505Q174 508 207 510Q207 510 208 509Q212 497 216 485Q223 461 229 396Q230 381 234 370Q224 371 213 370Q179 369 165 375Q134 378 100 372Q70 365 57 343Q47 324 58 307Q70 294 122 307Q180 323 295 326Q425 330 497 321M310 370Q291 371 273 370Q274 380 273 391Q264 481 270 512Q271 513 274 513Q326 513 394 513Q393 510 394 506Q394 479 382 386Q381 379 380 372Q337 373 310 370M204 245Q168 244 157 229Q150 219 160 192Q167 174 189 65Q196 31 211 21Q223 14 241 22Q260 31 313 32Q359 33 390 25Q414 19 431 27Q450 36 460 65Q473 96 479 132Q485 163 494 181Q506 203 499 216Q492 226 474 237Q450 249 379 250Q309 251 246 248Q227 247 204 245M239 75Q233 79 229 94Q219 139 217 174Q216 187 220 193Q224 199 242 202Q278 206 380 207Q417 207 427 200Q436 193 435 179Q434 142 418 92Q415 83 409 79Q403 75 372 76Q327 79 268 74Q246 73 239 75M626 541Q630 525 630 500Q631 250 626 55Q622-2 637-40Q643-55 656-55Q666-55 673-42Q685-21 684 12Q680 369 682 510Q683 537 692 557Q692 558 692 559Q711 563 741 564Q795 567 825 554Q853 538 858 516Q862 497 841 464Q811 422 770 398Q724 376 733 351Q740 333 772 356Q790 368 814 358Q841 348 861 331Q888 309 894 277Q898 250 883 225Q858 182 808 154Q766 135 732 137Q716 138 710 133Q703 124 703 117Q703 110 710 106Q717 103 741 102Q789 101 826 109Q860 119 896 146Q930 174 947 208Q957 227 953 258Q949 291 922 325Q891 362 848 387Q835 397 849 407Q891 441 923 476Q948 504 943 527Q939 546 906 567Q858 592 793 606Q736 616 644 602Q611 596 604 589Q595 577 600 560Q607 538 626 541L626 541Z"  horiz-adv-x="1024" vert-adv-y="1024"  />

      
      <glyph glyph-name="uni53C2" unicode="&#x53C2;" d="M657 495Q676 499 693 515Q703 525 704 536Q705 552 675 584Q659 603 650 609Q640 615 636 620Q629 630 612 634Q599 637 587 626Q580 619 583 608Q587 595 617 577Q623 573 632 560Q639 548 638 542Q635 538 628 536Q561 514 475 519Q420 522 389 531Q380 532 378 537Q379 543 404 564Q447 601 462 609Q490 619 496 631Q503 644 498 666Q494 685 482 686Q473 687 462 681Q452 675 440 659Q428 646 395 615Q362 587 347 576Q308 549 304 522Q304 509 317 497Q335 482 353 486Q377 493 407 487Q455 477 502 477Q550 477 657 495M585 370Q591 364 604 357Q652 329 715 275Q782 211 796 190Q829 144 875 137Q921 130 957 146Q988 165 943 187Q804 254 697 338Q672 357 661 369Q755 368 824 356Q858 350 877 361Q907 382 910 397Q914 412 875 412Q623 413 512 407Q513 413 515 419Q516 440 500 453Q490 463 478 458Q469 454 465 441Q461 431 452 412Q451 411 448 407Q388 408 327 406Q269 403 247 413Q214 416 179 410Q148 401 133 380Q123 359 134 342Q147 327 201 342Q277 361 414 367Q410 364 406 359Q379 337 347 321Q308 302 251 284Q170 260 79 249Q61 248 56 231Q52 218 67 197Q82 181 109 185Q184 198 255 228Q315 252 378 290Q433 324 460 351Q470 361 479 369Q483 370 489 370Q538 371 585 370M482 273Q415 254 364 249Q333 245 325 232Q318 219 332 207Q345 197 386 199Q423 203 472 221Q520 240 560 268Q591 286 594 308Q595 324 585 330Q575 336 563 322Q533 291 482 273M504 165Q398 141 317 137Q283 134 274 121Q267 108 280 94Q293 81 337 83Q398 84 479 110Q560 138 628 179Q661 195 666 220Q667 236 657 243Q647 250 634 236Q583 188 504 165M528 51Q387 12 275 2Q235-2 226-19Q216-35 234-51Q252-64 302-61Q386-54 496-14Q607 31 698 91Q734 112 738 139Q739 158 727 165Q717 172 702 156Q636 86 528 51L528 51Z"  horiz-adv-x="1024" vert-adv-y="1024"  />

      
      <glyph glyph-name="uni6D4B" unicode="&#x6D4B;" d="M172 535Q220 523 238 513Q254 504 269 505Q279 506 282 518Q283 536 264 549Q239 565 216 589Q192 617 156 600Q123 584 127 560Q131 542 172 535M112 323Q166 322 187 313Q203 307 219 311Q229 314 229 326Q228 344 205 353Q174 365 145 385Q117 407 84 385Q56 363 63 340Q70 324 112 323M240 185Q173 134 117 102Q95 95 91 83Q87 67 98 48Q116 21 132 24Q147 28 167 54Q216 112 263 159Q279 178 272 189Q263 199 240 185M869 637Q863 585 868 497Q875 310 873 136Q873 78 859 50Q843 22 809 7Q769-8 746-5Q704-2 699-8Q695-15 705-27Q724-46 762-52Q811-61 857-45Q897-29 916 6Q928 34 923 125Q913 420 921 519Q925 577 933 605Q943 633 925 655Q910 676 890 672Q872 668 869 637M562 555Q569 549 569 493Q573 384 567 212Q566 182 572 173Q579 161 588 162Q598 161 609 175Q616 184 618 209Q624 357 618 444Q615 490 622 539Q626 573 608 594Q598 607 563 610Q518 611 489 611Q444 612 392 614Q349 613 338 604Q326 595 328 569Q329 545 327 495Q326 449 325 206Q325 172 332 162Q339 152 350 152Q363 152 374 176Q381 189 380 217Q374 329 378 477Q379 543 385 554Q389 563 463 565Q547 569 562 555M504 430Q505 449 506 460Q510 488 489 507Q474 517 457 512Q442 506 446 481Q450 459 452 413Q449 317 439 263Q423 184 399 144Q374 96 334 64Q300 34 277 26Q232 8 235-16Q236-32 255-37Q282-44 319-21Q371 13 415 69Q446 109 461 157Q477 205 491 290Q503 375 504 430M516 84Q553 60 612 15Q637-7 646-6Q659-5 655 10Q651 23 634 39Q579 105 571 120Q558 139 533 134Q511 128 502 112Q495 97 516 84M710 380Q711 316 708 255Q705 216 715 205Q734 184 748 199Q766 217 762 267Q761 288 762 355Q762 413 765 465Q769 499 753 517Q740 533 718 516Q706 507 709 473Q710 454 710 380L710 380Z"  horiz-adv-x="1024" vert-adv-y="1024"  />

      
      <glyph glyph-name="uni67E5" unicode="&#x67E5;" d="M668 442Q647 451 598 477Q559 498 539 511Q539 518 540 524Q657 527 728 516Q762 510 781 521Q811 542 814 557Q818 572 779 572Q625 573 541 569Q542 594 547 614Q554 645 539 670Q526 689 501 685Q479 679 481 646Q485 604 487 567Q429 568 367 567Q324 566 307 573Q274 576 239 570Q208 561 193 540Q183 519 194 502Q207 487 261 502Q334 520 477 524Q477 524 478 524Q450 490 348 445Q251 405 151 400Q129 399 122 382Q115 366 128 349Q140 330 170 329Q210 330 319 375Q395 405 484 478Q485 479 488 481Q488 463 488 442Q482 384 498 366Q510 354 526 364Q542 374 541 421Q540 442 539 473Q572 454 634 414Q760 339 819 312Q844 299 873 315Q939 355 941 368Q942 377 929 379Q850 386 775 407Q705 426 668 442M385 70Q416 83 497 85Q570 86 618 73Q642 67 659 75Q678 84 688 113Q701 153 707 198Q713 237 722 261Q734 283 727 296Q720 306 702 317Q678 329 607 330Q502 333 410 328Q382 328 348 325Q312 324 301 309Q294 299 304 272Q311 250 333 113Q340 79 355 69Q367 62 385 70M372 179Q400 183 516 185Q628 186 655 180Q651 161 646 140Q643 131 637 127Q631 123 600 124Q521 128 412 122Q390 121 383 123Q377 127 373 142Q369 161 366 179Q367 179 372 179M516 221Q407 220 370 225Q364 226 361 225Q361 241 361 254Q360 267 364 273Q368 279 386 282Q444 289 608 287Q645 287 655 280Q664 273 663 259Q663 243 661 225Q639 222 516 221M787 24Q610 33 482 32Q380 33 266 31Q184 31 133 29Q102 28 79 6Q55-16 56-37Q57-52 71-59Q86-68 136-50Q211-28 314-18Q413-9 483-7Q639-11 733-28Q809-41 849-55Q883-67 904-58Q926-49 939-35Q970 1 966 10Q963 20 933 22Q896 15 787 24L787 24Z"  horiz-adv-x="1024" vert-adv-y="1024"  />

      
      <glyph glyph-name="uni5E38" unicode="&#x5E38;" d="M343 588Q362 584 399 562Q423 544 431 547Q440 551 436 561Q432 576 415 594Q402 607 391 625Q369 653 345 655Q315 656 313 629Q312 601 343 588M725 585Q750 589 754 612Q758 631 738 645Q716 658 678 628Q636 591 596 568Q581 561 582 550Q583 540 598 543Q628 547 682 573Q707 582 725 585M815 453Q821 450 826 436Q836 414 840 389Q844 356 852 338Q855 313 863 305Q872 299 880 300Q887 301 896 311Q906 327 908 348Q907 367 899 382Q896 389 892 406Q889 421 889 431Q890 450 883 464Q876 483 848 496Q814 515 763 515Q672 516 539 517Q540 530 541 549Q541 565 544 599Q544 609 547 618Q554 649 539 674Q526 693 501 689Q479 683 481 650Q484 629 485 612Q486 593 488 570Q484 537 488 517Q359 518 258 513Q200 512 185 498Q167 482 160 447Q141 387 134 345Q133 309 139 298Q146 286 160 283Q173 282 184 291Q196 304 195 340Q198 386 203 414Q207 433 216 444Q226 457 288 465Q361 475 485 474Q627 475 705 470Q793 464 815 453M493 173Q492 97 490 30Q486-25 501-64Q507-79 520-79Q530-79 537-66Q549-45 548-13Q547 105 545 175Q627 178 661 172Q677 171 684 162Q694 153 698 87Q701 23 710-28Q713-40 723-48Q733-55 741-55Q757-51 765-34Q769-24 762-4Q753 18 749 79Q748 115 749 132Q750 147 759 161Q766 174 764 183Q761 195 751 205Q738 218 714 216Q689 216 552 216Q548 216 545 216Q545 229 546 238Q546 262 554 280Q600 281 612 280Q646 274 665 290Q681 303 681 343Q682 359 686 374Q690 399 675 411Q656 424 619 427Q564 427 470 424Q421 425 386 423Q367 424 357 416Q344 403 347 380Q347 376 347 369Q348 356 349 342Q350 329 351 319Q351 286 369 275Q381 268 417 275Q442 281 487 281Q494 263 494 228Q494 222 493 216Q399 217 379 218Q351 221 339 222Q329 223 317 213Q307 203 306 170Q310 151 311 128Q310 103 276 67Q243 39 174 5Q153-4 149-13Q146-23 151-32Q161-51 173-54Q186-55 215-44Q246-28 276-6Q306 19 330 53Q354 92 354 127Q354 149 362 157Q369 170 475 173Q484 174 493 173M630 361Q630 336 626 331Q616 324 593 324Q554 327 495 323Q455 322 431 320Q409 320 403 326Q400 327 398 346Q394 377 397 380Q404 387 497 389Q615 392 626 384Q629 381 630 361L630 361Z"  horiz-adv-x="1024" vert-adv-y="1024"  />

      
      <glyph glyph-name="uni8FB0" unicode="&#x8FB0;" d="M380 516Q364 516 346 499Q330 483 333 469Q337 456 359 460Q419 470 516 470Q613 469 654 460Q681 453 697 465Q710 475 715 492Q718 505 708 512Q698 518 670 518Q600 518 493 516Q411 515 380 516M624 136Q757 24 821-19Q848-38 881-26Q960 5 966 19Q970 29 955 33Q865 58 783 99Q707 136 667 162Q651 174 617 199Q618 200 623 200Q681 206 772 227Q799 237 800 249Q800 262 783 282Q768 298 758 300Q748 301 733 284Q729 280 720 274Q702 264 636 239Q614 230 593 223Q590 223 589 221Q538 263 520 283Q510 295 495 293Q483 290 481 277Q480 262 491 253Q510 234 624 136M341 344Q340 335 343 318Q353 270 356 229Q360 180 353 144Q349 98 334 43Q321 19 323-6Q327-27 346-27Q374-28 482 15Q569 52 590 69Q603 79 600 90Q596 97 575 92Q502 73 422 50Q389 40 397 71Q397 125 399 198Q403 273 409 290Q419 321 394 343Q390 347 387 349Q445 353 516 352Q654 351 711 339Q739 332 756 344Q769 354 775 372Q779 385 768 393Q758 400 728 400Q628 400 477 398Q362 397 319 397Q307 398 296 391Q300 461 301 549Q302 568 307 575Q311 581 327 581Q529 588 609 588Q682 588 709 585Q740 581 750 594Q763 613 747 629Q732 642 627 637Q413 633 322 641Q298 642 274 634Q258 628 249 614Q242 601 245 579Q249 542 250 517Q250 387 244 326Q235 253 205 203Q178 154 54 57Q26 35 38 12Q45-1 61-4Q77-5 95 4Q126 20 161 55Q212 101 242 157Q276 217 288 308Q289 323 291 338Q292 338 296 338Q315 342 341 344L341 344Z"  horiz-adv-x="1024" vert-adv-y="1024"  />

      
      <glyph glyph-name="uni4E11" unicode="&#x4E11;" d="M872 2Q905-11 924 7Q949 28 969 60Q982 84 955 83Q925 82 856 84Q805 85 703 87Q703 88 704 91Q756 404 770 427Q786 460 785 487Q785 515 760 531Q739 549 680 547Q577 548 430 556Q351 560 316 570Q285 579 250 560Q222 545 227 525Q236 497 289 505Q353 512 467 510Q463 498 418 333Q414 334 411 333Q299 332 256 336Q219 340 198 318Q185 300 187 286Q191 264 225 273Q246 279 276 281Q352 285 405 286Q398 258 388 222Q361 134 341 91Q280 91 201 87Q168 87 143 86Q103 85 73 63Q48 41 60 20Q73 1 115 10Q235 32 473 37Q569 40 694 36Q778 29 872 2M473 92Q443 93 400 92Q413 126 434 200Q447 246 458 286Q459 287 462 286Q499 285 536 276Q579 266 604 288Q622 306 620 320Q617 342 541 337Q522 337 473 334Q507 454 523 495Q526 502 528 508Q655 504 684 493Q709 483 707 460Q708 438 693 350Q666 191 638 89Q565 90 473 92L473 92Z"  horiz-adv-x="1024" vert-adv-y="1024"  />

      
      <glyph glyph-name="uni521D" unicode="&#x521D;" d="M545 201Q484 134 438 113Q407 97 407 80Q408 62 439 54Q461 51 495 70Q553 103 609 182Q646 237 674 295Q699 344 723 409Q735 445 741 462Q742 466 743 469Q770 468 800 467Q843 466 864 450Q877 440 876 416Q877 392 859 337Q837 267 803 210Q773 158 746 132Q730 113 721 92Q720 85 725 69Q731 59 740 56Q755 55 768 62Q787 75 808 104Q829 128 866 220Q918 338 931 392Q934 404 941 418Q948 431 947 441Q946 450 940 464Q934 476 930 486Q926 498 900 514Q881 524 848 511Q835 507 783 509Q753 509 684 521Q644 527 616 538Q588 550 561 540Q533 527 523 511Q510 493 533 485Q549 478 565 482Q592 486 623 483Q644 483 668 478Q677 477 684 475Q681 417 644 343Q601 264 545 201M202 604Q253 597 315 586Q349 579 367 592Q377 599 368 613Q355 631 328 636Q301 643 294 647Q285 651 281 653Q256 668 238 667Q222 667 197 653Q173 638 174 624Q177 608 202 604M399 221Q380 228 361 237Q354 240 345 241Q341 241 337 236Q336 232 342 224Q360 197 380 170Q392 152 403 147Q418 140 432 151Q445 161 442 182Q438 198 399 221M409 353Q378 325 363 317Q350 310 343 299Q339 292 346 285Q358 275 376 283Q400 293 426 297Q457 301 462 334Q465 365 447 373Q432 377 409 353M320 454Q323 439 315 434Q299 403 271 373Q235 336 178 306Q111 272 78 265Q62 262 56 254Q40 239 49 228Q59 212 88 204Q106 198 162 228Q198 249 232 272Q232 269 233 264Q233 206 231 26Q232-32 242-46Q252-59 265-56Q278-52 285-24Q289 4 288 51Q289 201 293 282Q293 304 289 318Q325 355 351 397Q376 425 388 430Q407 443 405 465Q404 474 385 493Q354 523 321 507Q309 506 299 505Q241 505 220 503Q201 502 172 506Q144 513 124 505Q91 492 83 474Q79 462 90 449Q97 442 140 449Q201 458 256 458Q310 459 320 454L320 454Z"  horiz-adv-x="1024" vert-adv-y="1024"  />

      
      <glyph glyph-name="uni51FA" unicode="&#x51FA;" d="M229 54Q233 32 235 10Q236-9 252-20Q274-36 311-14Q366 8 487 8Q662 8 718-11Q749-27 764-26Q783-22 795-6Q817 24 824 79Q828 100 842 148Q854 187 858 196Q871 217 866 237Q862 256 847 263Q834 269 822 260Q810 253 803 229Q778 147 766 102Q757 68 748 55Q744 46 695 48Q617 54 547 55Q548 68 548 84Q544 171 542 333Q651 333 693 319Q721 303 736 305Q754 309 765 325Q784 353 791 406Q792 418 800 447Q804 471 808 476Q820 497 814 515Q808 533 795 539Q783 543 772 536Q760 527 755 505Q739 447 731 414Q727 390 720 380Q716 373 673 374Q604 378 542 378Q542 406 543 437Q544 509 555 570Q562 604 547 632Q531 654 504 649Q479 643 481 605Q493 481 493 379Q423 379 360 373Q330 369 321 376Q315 380 313 392Q300 447 293 498Q290 523 275 538Q266 547 252 545Q239 542 236 531Q233 518 239 484Q249 402 256 376Q260 355 261 334Q262 316 277 306Q298 291 333 312Q382 331 488 333Q489 334 493 333Q493 230 489 108Q485 77 488 55Q409 56 342 51Q308 47 299 55Q290 59 287 76Q271 149 260 219Q256 247 241 262Q231 272 216 269Q203 266 200 255Q196 239 202 205Q218 88 229 54L229 54Z"  horiz-adv-x="1024" vert-adv-y="1024"  />

      
      <glyph glyph-name="uni4F20" unicode="&#x4F20;" d="M203 273Q203 135 199 6Q195-34 206-47Q227-69 241-53Q260-34 255 19Q254 65 254 215Q253 345 259 461Q262 497 245 516Q244 517 242 518Q273 554 304 605Q329 648 324 664Q320 680 304 677Q294 673 281 646Q269 613 207 556Q146 502 75 473Q54 464 54 446Q54 427 71 417Q90 404 118 414Q143 424 198 474Q198 473 199 471Q202 429 203 273M628 68Q609 81 593 90Q544 121 513 130Q482 140 469 116Q457 92 492 79Q586 42 722-44Q747-60 754-53Q764-41 756-28Q744-12 725 4Q686 31 654 51Q706 76 745 116Q797 170 797 192Q797 217 757 236Q717 252 611 254Q577 253 556 257Q578 318 596 362Q639 363 684 358Q760 354 802 342Q850 330 899 307Q924 295 944 313Q957 325 973 350Q983 366 963 368Q803 393 692 399Q652 402 610 401Q626 453 633 480Q636 493 639 504Q694 505 728 501Q770 497 820 485Q833 482 846 490Q859 497 862 509Q866 525 862 533Q855 542 834 543Q731 549 653 549Q660 573 670 595Q679 617 659 641Q646 659 628 656Q612 655 610 633Q606 593 596 549Q518 550 459 544Q420 541 409 528Q393 509 408 494Q421 478 460 489Q485 495 524 500Q549 503 586 503Q580 476 572 446Q565 424 557 400Q514 399 470 394Q385 385 357 388Q332 392 313 370Q291 342 304 323Q322 305 354 320Q376 329 414 342Q451 352 526 360Q535 361 545 360Q520 287 497 236Q488 211 495 197Q496 196 497 194Q507 187 523 193Q584 211 620 214Q660 218 694 205Q721 198 721 185Q720 166 688 126Q660 95 628 68L628 68Z"  horiz-adv-x="1024" vert-adv-y="1024"  />

      
      <glyph glyph-name="uni8BCD" unicode="&#x8BCD;" d="M862 92Q831 47 777 25Q726 3 665 4Q632 3 606 10Q590 14 577 15Q570 14 567 2Q564-10 574-17Q587-27 614-34Q678-50 743-45Q789-41 822-24Q871-6 908 44Q930 87 936 136Q946 236 938 323Q932 390 937 447Q937 490 952 521Q962 549 944 568Q925 587 880 593Q834 600 750 603Q681 607 642 606Q575 605 545 607Q514 608 490 597Q477 590 474 571Q475 555 492 547Q514 537 561 552Q625 567 735 561Q808 557 839 549Q858 548 870 533Q888 515 892 406Q898 294 887 177Q886 132 862 92M575 380Q650 381 756 381Q786 378 797 395Q804 408 793 420Q781 429 757 428Q654 429 555 430Q521 430 499 434Q471 440 448 418Q435 399 439 386Q445 371 476 373Q512 377 575 380M689 137Q708 133 730 146Q740 152 744 179Q750 218 760 242Q772 279 766 294Q763 304 748 312Q733 318 721 318Q705 317 671 318Q626 319 590 316Q556 316 524 317Q500 318 492 304Q488 294 494 268Q501 241 505 206Q508 187 507 168Q507 144 523 135Q532 128 560 135Q600 144 631 142Q665 142 689 137M702 237Q701 221 700 208Q700 201 695 196Q689 192 676 191Q630 187 593 185Q565 182 560 189Q550 198 548 230Q545 272 549 275Q562 285 589 285Q623 286 665 283Q696 280 704 272Q705 269 702 237M209 593Q309 592 349 578Q367 574 380 579Q390 583 388 594Q385 610 363 618Q299 628 236 654Q206 675 177 649Q152 625 161 605Q170 589 209 593M126 416Q101 422 80 416Q64 409 52 387Q45 369 59 355Q71 345 92 351Q117 358 143 362Q197 372 239 361Q258 358 261 328Q274 198 260 78Q257 62 246 51Q218 26 211-4Q205-29 214-41Q221-51 237-52Q249-52 260-36Q270-18 288-2Q307 14 381 52Q438 80 454 102Q467 121 466 144Q465 163 444 149Q402 121 341 96Q328 92 321 95Q314 99 313 114Q312 285 324 349Q330 374 324 389Q317 402 303 409Q281 419 248 413Q218 409 176 411Q145 412 126 416L126 416Z"  horiz-adv-x="1024" vert-adv-y="1024"  />

      
      <glyph glyph-name="uni5927" unicode="&#x5927;" d="M482 316Q486 328 490 340Q494 356 497 380Q621 383 696 372Q730 366 749 377Q779 398 782 413Q786 428 747 428Q585 429 501 424Q505 475 505 546Q504 562 504 579Q505 610 497 621Q487 633 471 632Q455 631 446 618Q439 605 440 579Q447 491 446 423Q392 424 339 423Q296 422 279 429Q246 432 211 426Q180 417 165 396Q155 375 166 358Q179 343 233 358Q305 376 444 379Q443 360 440 342Q428 287 385 238Q342 190 269 147Q173 90 90 74Q71 68 68 61Q64 48 73 30Q83 9 103 3Q119 0 163 17Q208 33 294 92Q370 144 424 209Q443 233 458 262Q464 261 470 257Q498 245 558 201Q634 146 798 6Q832-27 877-13Q938 6 952 17Q983 42 931 50Q867 63 758 121Q628 194 546 261Q495 301 482 316L482 316Z"  horiz-adv-x="1024" vert-adv-y="1024"  />

      
      <glyph glyph-name="uni5355" unicode="&#x5355;" d="M483 107Q482 73 482 39Q478-18 493-56Q499-71 512-71Q522-71 529-58Q541-37 540-4Q539 54 538 106Q556 107 576 105Q679 99 739 85Q805 70 872 40Q903 27 926 47Q942 60 961 91Q971 110 949 113Q732 144 584 149Q560 150 537 150Q537 192 537 227Q606 226 655 211Q680 205 699 214Q718 223 729 254Q744 297 749 346Q755 389 765 414Q778 439 770 452Q763 462 744 474Q719 487 644 488Q505 492 382 486Q345 486 301 483Q262 482 251 465Q244 455 253 427Q260 402 285 254Q292 218 308 208Q320 198 340 209Q380 227 485 227Q484 188 483 150Q387 151 285 139Q171 126 135 129Q101 133 76 103Q51 70 65 47Q87 25 124 43Q155 56 207 75Q258 91 359 102Q420 108 483 107M485 268Q430 268 368 263Q343 262 337 264Q331 268 326 284Q322 306 319 326Q359 333 486 333Q486 300 485 268M537 334Q652 335 694 327Q690 306 685 282Q682 273 676 269Q669 265 636 266Q590 270 537 268Q537 305 537 334M486 388Q486 379 486 369Q359 368 314 374Q313 392 314 408Q313 421 317 428Q321 434 340 437Q385 443 478 443Q485 425 486 388M538 398Q538 425 547 444Q590 444 644 443Q683 442 695 435Q704 428 703 413Q703 394 701 373Q665 372 537 369Q537 385 538 398M711 587Q736 603 732 626Q723 648 705 661Q684 674 672 652Q668 642 658 627Q645 608 617 581Q598 559 573 543Q558 536 563 524Q567 512 592 521Q611 525 637 539Q674 558 691 572Q703 582 711 587M300 601Q318 594 362 567Q393 548 425 525Q437 515 445 522Q452 529 442 543Q426 570 394 605Q370 629 359 649Q338 679 300 658Q254 628 300 601L300 601Z"  horiz-adv-x="1024" vert-adv-y="1024"  />

      
      <glyph glyph-name="uni7684" unicode="&#x7684;" d="M91 354Q90 339 92 220Q96 72 100 48Q101 32 102 23Q101 16 110 3Q120-10 131-12Q144-15 162-6Q169-3 216-1Q276 0 320 0Q371-3 392-8Q428-12 439-2Q449 11 450 26Q450 39 450 48Q457 207 455 299Q455 324 461 346Q470 377 465 397Q458 427 439 435Q421 442 394 439Q361 435 341 434Q326 435 261 435Q246 435 234 433Q235 437 240 440Q280 489 301 529Q314 551 334 577Q350 599 328 632Q309 663 290 664Q275 665 273 647Q269 598 259 572Q232 496 189 433Q170 430 156 438Q140 445 130 444Q108 443 93 425Q83 407 89 387Q92 371 91 354M274 194Q379 195 405 189Q404 137 400 84Q399 62 390 59Q383 55 369 52Q362 51 279 51Q204 50 176 55Q169 56 159 61Q152 65 149 82Q145 134 143 188Q171 194 274 194M274 237Q180 236 142 240Q142 289 144 342Q145 357 153 365Q160 372 178 377Q202 384 273 386Q337 387 363 385Q384 384 392 373Q401 360 402 346Q403 294 405 240Q377 239 274 237M580 383Q595 379 614 382Q657 389 694 394Q737 398 819 396Q847 395 861 377Q876 355 875 311Q874 251 876 188Q877 136 862 104Q846 71 808 51Q771 30 711 21Q647 12 588 17Q569 21 568 6Q567-10 589-40Q607-62 661-58Q767-40 826-9Q872 19 900 58Q927 100 926 156Q922 261 924 290Q931 332 939 362Q951 395 936 416Q923 437 879 436Q788 440 699 438Q648 437 620 437Q647 477 666 513Q688 556 710 589Q717 598 716 616Q712 632 697 650Q678 671 662 669Q643 668 643 641Q642 569 610 501Q576 441 514 376Q489 345 497 333Q504 324 522 330Q543 339 568 368Q574 375 580 383M584 208Q623 198 686 175Q720 159 730 162Q743 169 735 183Q725 196 703 208Q643 254 633 264Q614 282 587 269Q566 256 561 235Q558 216 584 208L584 208Z"  horiz-adv-x="1024" vert-adv-y="1024"  />

      
      <glyph glyph-name="uni5178" unicode="&#x5178;" d="M743 196Q744 205 746 217Q759 334 761 404Q761 440 770 479Q776 519 754 543Q742 558 703 562Q655 562 617 562Q620 583 624 601Q633 632 619 657Q606 676 581 673Q559 669 559 635Q560 598 562 562Q549 562 538 562Q501 563 461 562Q462 584 467 603Q474 634 460 658Q445 677 421 673Q399 667 401 633Q404 597 407 563Q365 564 323 565Q266 564 253 551Q237 539 240 505Q243 487 243 448Q244 414 257 226Q257 207 259 195Q162 186 128 189Q94 193 67 162Q42 131 57 109Q78 88 114 105Q147 118 200 137Q254 153 359 165Q470 174 584 166Q692 160 753 145Q820 129 891 97Q921 84 943 104Q959 117 977 147Q987 165 965 168Q845 186 743 196M607 236Q606 281 607 351Q677 352 706 345Q702 290 695 220Q694 210 695 200Q646 206 604 207Q607 220 607 236M312 237Q305 286 301 344Q328 348 412 350Q411 310 411 262Q408 228 412 207Q360 207 307 200Q311 213 312 237M465 242Q461 285 460 351Q481 352 507 352Q534 353 559 352Q556 309 554 259Q550 229 552 209Q509 210 463 208Q464 221 465 242M296 432Q293 481 297 490Q306 508 410 513Q411 485 412 457Q412 426 412 391Q331 392 298 397Q298 397 297 397Q296 415 296 432M459 503Q459 510 459 516Q468 517 479 517Q525 520 564 519Q564 488 564 456Q563 425 561 391Q536 392 506 391Q481 391 459 391Q459 442 459 503M612 501Q612 510 613 518Q688 515 710 495Q714 489 712 445Q711 423 709 396Q684 395 608 392Q609 441 612 501M379 87Q367 71 323 46Q280 24 234 18Q210 14 207-6Q203-25 219-39Q237-57 267-51Q285-47 330-18Q361 1 395 41Q429 81 427 99Q424 115 409 115Q396 114 379 87M627 102Q615 114 603 105Q593 98 606 76Q622 46 669-1Q703-35 735-49Q760-59 784-39Q797-26 796-4Q793 20 757 29Q724 39 692 58Q655 80 627 102L627 102Z"  horiz-adv-x="1024" vert-adv-y="1024"  />

      
      <glyph glyph-name="uni4E01" unicode="&#x4E01;" d="M503 520Q500 501 507 468Q510 245 498 208Q488 163 465 131Q444 97 405 76Q365 54 317 46Q262 37 229 43Q207 46 196 36Q186 23 197 2Q209-20 225-29Q240-36 262-35Q347-26 430 26Q482 59 510 101Q534 132 546 179Q562 231 563 403Q562 466 569 489Q573 507 572 517Q666 513 734 501Q810 489 850 474Q881 464 902 471Q923 480 936 493Q964 527 962 537Q959 547 930 549Q893 542 786 550Q611 559 483 558Q383 559 269 557Q188 557 138 555Q107 554 86 533Q64 512 64 492Q65 477 79 470Q92 463 141 479Q216 501 317 511Q416 518 485 521Q494 521 503 520L503 520Z"  horiz-adv-x="1024" vert-adv-y="1024"  />

      
      <glyph glyph-name="uni8BA2" unicode="&#x8BA2;" d="M695 492Q692 455 695 391Q699 255 699 128Q700 71 687 44Q671 13 620 4Q563-6 526 2Q486 9 479 4Q473-3 482-16Q501-35 537-47Q604-65 664-54Q718-44 738-6Q751 22 748 116Q744 327 751 399Q755 439 760 460Q764 473 763 485Q794 481 817 475Q854 465 892 445Q919 433 939 452Q952 464 969 490Q979 506 959 509Q827 531 737 538Q650 544 554 536Q484 530 462 533Q443 536 426 518Q404 490 417 469Q435 451 468 466Q486 473 515 482Q545 489 603 494Q648 497 695 492M159 597Q238 591 333 579Q364 576 380 588Q389 597 380 608Q367 623 341 625Q275 632 258 638Q237 644 228 648Q203 660 187 658Q174 657 151 642Q130 626 132 613Q136 600 159 597M126 412Q101 418 80 412Q64 405 52 383Q45 365 59 351Q71 341 92 347Q117 354 143 358Q198 368 243 357Q262 353 265 324Q278 197 264 78Q261 62 250 51Q222 26 215-4Q209-29 218-41Q225-51 241-52Q253-52 263-36Q275-18 292-2Q311 14 385 52Q442 80 458 102Q471 121 470 144Q469 163 448 149Q406 121 345 96Q332 92 326 95Q317 99 317 114Q317 282 328 345Q335 370 328 385Q321 398 307 405Q285 415 251 409Q221 405 177 407Q146 408 126 412L126 412Z"  horiz-adv-x="1024" vert-adv-y="1024"  />

      
      <glyph glyph-name="uni5EA6" unicode="&#x5EA6;" d="M295 537Q560 546 667 545Q763 545 798 541Q829 537 839 550Q852 569 836 585Q817 601 681 595Q611 594 553 592Q563 613 567 629Q568 672 540 683Q506 693 491 675Q485 663 503 628Q513 613 515 592Q367 591 290 597Q265 598 241 589Q223 582 215 567Q208 554 212 531Q218 494 220 468Q220 347 215 290Q208 223 182 176Q158 130 52 40Q25 18 38-5Q47-18 61-21Q77-22 96-11Q121 5 152 37Q195 82 222 133Q250 190 261 276Q273 367 273 503Q272 522 275 529Q281 535 295 537M594 77Q604 87 619 96Q674 142 703 185Q721 213 714 228Q705 247 676 254Q649 255 630 253Q609 252 553 252Q487 252 455 261Q437 264 410 239Q386 215 394 198Q398 191 415 190Q433 189 466 195Q506 202 548 207Q597 211 632 212Q639 211 643 206Q644 200 642 190Q618 156 577 122Q561 110 544 98Q525 108 499 119Q429 153 402 174Q386 184 370 178Q358 171 359 155Q362 139 378 131Q400 119 500 74Q491 71 484 67Q423 39 364 28Q312 21 266 26Q250 27 244 16Q240 6 247-11Q253-27 264-36Q274-43 300-43Q343-42 395-26Q447-10 506 22Q528 35 553 49Q560 48 568 43Q757-39 844-66Q869-76 895-59Q955-16 956-3Q957 6 943 7Q840 11 738 36Q645 58 594 77M684 407Q717 406 749 396Q792 386 817 408Q835 426 833 440Q830 462 754 457Q733 457 690 454Q691 464 694 468Q701 492 680 518Q670 528 656 521Q644 514 642 480Q641 467 641 453Q613 454 577 452Q516 451 469 452Q469 467 470 475Q471 502 450 520Q437 530 422 520Q412 514 417 481Q418 468 422 452Q385 453 364 456Q327 460 306 438Q293 420 295 406Q299 384 333 393Q361 400 401 403Q414 404 428 404Q429 376 433 338Q433 313 440 306Q449 299 469 303Q527 313 632 303Q659 302 668 320Q677 339 681 380Q682 395 684 407M489 347Q473 350 471 378Q470 394 470 406Q575 413 640 410Q639 382 638 370Q634 348 623 346Q559 336 489 347L489 347Z"  horiz-adv-x="1024" vert-adv-y="1024"  />

      
      <glyph glyph-name="uni4E8C" unicode="&#x4E8C;" d="M436 438Q559 438 663 432Q697 428 711 445Q721 460 713 476Q704 489 667 488Q537 484 465 487Q407 491 345 502Q317 506 290 477Q271 455 281 437Q293 419 332 429Q369 439 436 438M859 98Q893 85 912 103Q937 124 958 156Q971 180 943 179Q913 178 844 180Q751 184 472 190Q391 191 208 186Q175 187 151 186Q111 185 81 163Q56 141 68 120Q81 101 123 110Q238 132 472 135Q565 136 687 132Q769 125 859 98L859 98Z"  horiz-adv-x="1024" vert-adv-y="1024"  />

      
      <glyph glyph-name="uni8FD4" unicode="&#x8FD4;" d="M685 645Q630 612 583 598Q534 585 486 585Q459 586 441 571Q425 553 425 523Q438 477 442 420Q443 383 428 343Q416 303 390 274Q362 240 322 216Q292 197 304 180Q317 164 344 166Q357 167 366 172Q388 181 408 201Q441 232 462 290Q486 348 484 416Q483 468 478 480Q475 511 485 537Q489 550 506 550Q572 549 635 559Q705 569 720 578Q733 588 734 608Q735 624 717 646Q707 659 685 645M681 243Q715 207 765 136Q781 109 809 116Q839 123 871 142Q890 152 869 163Q826 191 789 219Q749 250 710 276Q719 289 728 301Q759 350 773 419Q780 441 763 452Q715 476 660 471Q611 467 580 467Q550 468 530 450Q514 437 526 417Q539 401 582 417Q652 436 699 420Q718 419 718 386Q717 361 694 325Q685 312 676 300Q636 328 596 350Q562 372 545 367Q529 361 530 339Q531 329 548 325Q567 318 598 305Q620 295 650 271Q647 270 646 268Q621 246 593 232Q563 219 519 219Q477 220 475 192Q474 170 494 158Q524 145 568 164Q616 186 661 223Q671 233 681 243M181 588Q233 581 255 572Q271 565 286 568Q296 569 297 582Q297 600 276 611Q245 624 219 647Q191 672 158 651Q127 632 133 608Q140 590 181 588M160 309Q193 325 221 351Q267 396 269 414Q270 436 238 457Q225 464 187 471Q150 477 133 488Q114 498 87 477Q69 462 68 445Q69 427 93 433Q121 442 137 444Q156 445 172 441Q197 423 192 410Q192 394 165 363Q143 341 118 321Q109 320 99 313Q80 303 79 291Q79 278 97 268Q125 252 169 243Q188 240 194 234Q197 224 186 214Q140 168 119 121Q106 99 107 81Q108 65 127 53Q151 43 171 43Q295 56 412 45Q556 35 776-46Q822-65 880-46Q929-28 953-7Q975 12 975 24Q974 37 940 37Q786 31 678 48Q495 79 368 86Q242 96 178 92Q165 91 166 103Q173 125 201 154Q226 179 251 221Q263 239 257 253Q250 263 225 268Q206 271 181 295Q169 304 160 309L160 309Z"  horiz-adv-x="1024" vert-adv-y="1024"  />

      
      <glyph glyph-name="uni65B9" unicode="&#x65B9;" d="M723 456Q795 443 833 429Q867 417 888 426Q910 435 923 449Q954 485 950 494Q947 504 917 506Q881 500 778 508Q624 517 509 516Q510 550 521 587Q533 621 513 650Q503 669 484 669Q466 668 457 654Q436 620 453 589Q463 567 473 516Q383 517 283 515Q205 515 157 513Q126 512 103 490Q79 468 80 447Q81 432 95 425Q110 416 160 434Q230 455 328 466Q422 473 488 476Q635 472 723 456M644 193Q617 138 567 84Q525 36 494 17Q457-4 463-22Q469-38 495-39Q528-40 566-1Q645 69 677 126Q699 166 724 205Q742 238 727 255Q705 279 669 290Q555 336 515 341Q496 344 478 347Q488 371 496 391Q508 422 503 435Q499 445 485 449Q466 453 456 446Q446 433 437 405Q418 327 370 258Q327 201 255 146Q153 70 88 41Q58 28 65 9Q72-9 94-24Q116-39 171 1Q225 37 294 101Q373 180 414 241Q427 260 440 279Q447 280 452 283Q486 298 516 295Q555 291 619 255Q640 248 647 229Q653 210 644 193L644 193Z"  horiz-adv-x="1024" vert-adv-y="1024"  />

      
      <glyph glyph-name="uni5206" unicode="&#x5206;" d="M489 332Q486 328 482 319Q467 294 430 254Q385 208 318 169Q254 130 201 112Q132 88 87 85Q51 81 56 53Q60 31 83 15Q108 0 144 13Q241 50 328 110Q425 182 467 226Q525 287 555 322Q555 323 556 323Q560 323 565 322Q638 309 660 297Q693 278 688 252Q684 218 651 176Q618 130 530 61Q499 36 506 16Q513-3 538-1Q559 0 598 34Q662 86 711 159Q754 229 762 268Q769 299 741 319Q717 335 576 365Q504 381 465 397Q432 412 396 396Q375 390 377 365Q380 343 432 339Q460 338 489 332M308 478Q253 442 205 423Q166 405 162 386Q158 367 181 357Q203 348 251 369Q282 384 321 415Q358 448 386 485Q414 516 409 543Q405 561 391 564Q378 567 369 548Q350 508 308 478M577 639Q549 669 525 659Q509 653 510 629Q511 602 550 589Q610 567 658 528Q701 495 747 440Q790 389 815 337Q834 276 879 271Q922 267 956 282Q993 295 963 318Q912 352 880 382Q807 448 726 522Q656 586 577 639L577 639Z"  horiz-adv-x="1024" vert-adv-y="1024"  />

      
      <glyph glyph-name="uni4ED8" unicode="&#x4ED8;" d="M201 271Q201 132 195 2Q191-38 202-51Q223-73 237-57Q256-38 251 15Q250 61 251 212Q251 344 258 461Q261 497 245 515Q273 552 301 601Q325 644 321 661Q315 676 300 673Q290 669 278 641Q265 605 199 540Q135 479 58 445Q37 436 37 417Q38 399 55 389Q74 376 102 387Q132 400 199 464Q200 418 201 271M708 449Q715 143 704 99Q691 60 651 42Q606 23 540 18Q515 18 497 21Q470 27 466 10Q462-6 483-28Q508-53 535-54Q611-50 672-13Q732 23 752 80Q764 119 763 181Q757 365 756 444Q783 441 802 436Q847 426 893 404Q921 392 941 410Q957 423 973 450Q983 466 962 470Q847 488 758 494Q762 552 772 600Q779 634 760 656Q744 675 723 666Q702 654 704 616Q705 553 707 497Q703 498 700 498Q598 502 485 491Q403 482 377 484Q353 488 334 466Q312 436 325 416Q344 397 378 412Q400 421 435 433Q471 443 540 451Q613 457 690 451Q699 451 708 449M434 254Q406 250 400 224Q396 202 418 185Q443 169 487 203Q536 246 584 271Q600 278 600 291Q600 301 582 300Q548 294 484 267Q456 257 434 254L434 254Z"  horiz-adv-x="1024" vert-adv-y="1024"  />

      
      <glyph glyph-name="uni683C" unicode="&#x683C;" d="M171 303Q122 257 76 229Q43 207 42 187Q41 169 65 163Q86 159 129 187Q159 209 192 250Q210 275 225 300Q224 150 219 6Q215-34 226-47Q247-69 261-53Q280-34 275 19Q274 80 274 280Q273 365 275 446Q299 447 326 447Q360 448 373 463Q380 473 370 484Q354 497 327 496Q299 495 276 493Q277 553 282 609Q286 645 269 664Q256 682 233 664Q220 654 223 619Q224 585 225 493Q207 494 198 494Q164 498 149 502Q121 511 105 506Q92 502 70 484Q51 465 55 452Q61 439 85 439Q149 443 225 444Q225 422 225 393Q222 389 222 383Q209 340 171 303M332 373Q308 388 296 384Q286 380 293 370Q315 339 321 315Q330 284 352 276Q374 269 384 284Q397 303 385 329Q369 351 332 373M521 199Q482 198 471 181Q464 171 473 143Q480 125 505 14Q512-22 528-32Q540-41 560-31Q582-22 640-20Q692-19 727-29Q752-35 771-26Q790-17 801 14Q814 45 821 81Q828 112 837 131Q850 155 842 168Q835 178 816 190Q791 203 716 204Q637 205 567 201Q546 201 521 199M557 24Q551 28 546 44Q536 87 534 124Q533 137 537 144Q541 150 560 153Q600 159 716 159Q755 158 767 151Q776 144 775 129Q774 90 757 42Q754 33 748 28Q741 24 708 26Q657 27 588 23Q563 22 557 24M626 379Q593 357 564 337Q482 289 416 277Q376 265 378 237Q379 218 400 210Q415 206 440 214Q468 224 530 259Q597 299 665 353Q687 337 714 317Q760 283 831 216Q868 182 906 182Q934 183 981 213Q1000 225 982 232Q891 269 812 313Q742 355 698 381Q747 421 778 454Q812 494 810 519Q809 534 796 541Q774 562 664 585Q648 586 643 605Q640 618 627 621Q618 622 609 610Q599 594 581 580Q565 558 535 535Q501 510 458 487Q421 468 417 443Q416 427 433 421Q452 415 490 438Q491 438 492 438Q532 429 560 416Q594 400 626 379M590 533Q606 548 636 554Q690 545 713 524Q734 508 732 491Q731 472 712 452Q684 427 659 405Q607 439 542 470Q538 473 533 474Q560 499 590 533L590 533Z"  horiz-adv-x="1024" vert-adv-y="1024"  />

      
      <glyph glyph-name="uni4E2A" unicode="&#x4E2A;" d="M482 207Q482 107 479 14Q475-26 486-39Q507-61 521-45Q540-26 535 27Q534 60 534 166Q534 259 539 341Q542 377 525 396Q512 414 489 395Q476 386 479 351Q480 321 482 207M628 483Q665 459 711 420Q754 384 824 316Q861 279 901 278Q931 279 980 309Q999 319 981 328Q890 367 812 414Q721 469 675 501Q617 540 546 576Q534 582 524 585Q525 592 526 601Q525 623 506 637Q493 647 480 640Q470 636 467 619Q466 607 456 586Q444 558 414 523Q389 495 355 474Q315 447 256 422Q171 386 74 363Q56 359 53 343Q50 328 68 310Q84 297 112 303Q191 325 265 365Q326 396 391 444Q448 486 474 519Q486 535 496 546Q535 536 562 522Q596 504 628 483L628 483Z"  horiz-adv-x="1024" vert-adv-y="1024"  />

      
      <glyph glyph-name="uni5E9A" unicode="&#x5E9A;" d="M529 594Q378 594 302 601Q278 602 254 595Q238 588 228 574Q221 561 224 539Q228 503 229 478Q229 364 224 311Q217 248 188 204Q163 161 50 77Q22 55 34 33Q41 18 56 15Q72 14 91 23Q119 39 152 68Q198 111 226 159Q257 213 269 294Q281 381 281 509Q281 528 286 535Q292 541 307 541Q563 548 666 546Q759 545 793 541Q824 537 834 550Q847 569 831 585Q813 601 681 596Q623 595 571 594Q578 610 582 625Q583 668 555 679Q521 689 506 671Q500 659 518 624Q525 611 529 594M560 179Q561 182 562 184Q565 185 570 185Q619 186 682 184Q719 183 737 193Q753 203 758 228Q765 256 770 290Q824 284 884 265Q912 253 927 267Q949 285 966 311Q978 330 955 330Q930 329 872 333Q839 334 775 337Q778 368 780 404Q779 449 710 452Q656 453 586 453Q586 466 586 479Q585 500 574 508Q567 515 551 515Q544 514 534 503Q527 491 530 456Q530 455 530 452Q466 452 427 453Q393 454 378 447Q363 438 363 425Q363 413 378 406Q394 396 432 402Q469 406 531 406Q531 375 532 345Q481 346 410 345Q388 346 370 347Q336 346 311 328Q289 309 299 292Q309 276 345 283Q412 293 531 295Q530 258 526 229Q469 230 408 229Q377 228 364 215Q351 202 356 190Q362 181 377 177Q407 171 472 180Q490 181 516 182Q504 142 484 114Q438 56 388 33Q342 12 292 11Q273 7 268-5Q262-18 279-35Q292-48 310-52Q326-56 345-50Q387-43 431-10Q498 42 527 91Q540 113 549 142Q588 91 670 21Q740-40 802-61Q826-71 848-51Q861-38 859-17Q856 5 822 14Q752 41 689 83Q616 132 560 179M678 408Q709 409 717 378Q717 359 717 339Q665 343 601 344Q592 345 582 344Q583 375 585 407Q643 408 678 408M601 296Q650 297 712 294Q709 281 705 268Q699 247 686 238Q668 226 645 227Q609 228 571 228Q572 234 573 239Q576 266 579 296Q589 297 601 296L601 296Z"  horiz-adv-x="1024" vert-adv-y="1024"  />

      
      <glyph glyph-name="uni5DE5" unicode="&#x5DE5;" d="M868 65Q904 52 923 70Q948 92 971 125Q984 150 955 149Q924 148 852 150Q768 154 539 158Q535 186 535 326Q532 453 540 495Q540 498 540 500Q643 501 708 492Q742 486 761 497Q791 518 794 533Q798 548 759 548Q560 549 483 544Q426 545 368 544Q326 543 311 549Q278 552 243 546Q212 537 197 516Q187 495 198 478Q211 463 265 478Q335 496 470 500Q470 500 472 500Q472 497 473 493Q477 459 479 326Q480 196 473 164Q472 163 471 159Q471 158 471 155L471 160Q389 161 200 156Q167 157 142 156Q100 155 70 132Q43 108 56 87Q69 68 114 76Q232 98 471 102Q565 103 691 100Q775 93 868 65L868 65Z"  horiz-adv-x="1024" vert-adv-y="1024"  />

      
      <glyph glyph-name="uni516C" unicode="&#x516C;" d="M331 568Q332 540 311 511Q289 483 264 470Q215 442 182 435Q139 426 102 433Q72 437 60 431Q48 427 46 414Q43 396 65 375Q81 359 103 351Q119 345 154 354Q176 360 215 377Q258 396 291 424Q336 460 360 502Q387 544 386 569Q385 585 374 597Q367 604 355 604Q342 603 336 596Q329 586 331 568M565 530Q644 451 786 347Q837 307 896 328Q953 347 972 376Q985 398 951 397Q923 396 852 414Q788 432 727 461Q669 489 635 522Q620 535 615 555Q608 592 577 604Q556 611 542 604Q527 597 537 572Q547 545 565 530M434 327Q430 314 412 289Q388 259 371 243Q316 189 269 133Q236 91 245 64Q254 42 281 26Q311 10 352 10Q494 9 637 28Q673 38 686 31Q701 22 717 31Q732 38 730 63Q721 97 654 176Q617 222 597 237Q581 250 572 254Q554 260 548 251Q539 236 564 207Q631 134 651 85Q650 76 636 77Q557 67 470 62Q373 58 337 70Q324 79 319 90Q316 103 332 124Q407 202 451 246Q469 262 482 281Q497 305 501 329Q507 360 495 383Q485 405 462 410Q453 411 447 403Q438 393 439 385Q443 360 434 327L434 327Z"  horiz-adv-x="1024" vert-adv-y="1024"  />

      
      <glyph glyph-name="uni72D7" unicode="&#x72D7;" d="M260 282Q178 212 106 168Q72 146 71 128Q70 109 92 103Q114 99 157 124Q209 155 268 219Q322 282 359 347Q371 304 364 254Q354 187 317 120Q277 53 224 1Q194-27 197-44Q200-66 220-67Q248-68 288-25Q343 33 376 113Q413 189 415 270Q421 346 393 393Q375 436 335 485Q372 525 412 597Q434 631 417 660Q404 682 382 678Q363 671 359 638Q358 617 344 587Q328 554 302 523Q275 551 258 564Q242 573 216 596Q189 618 160 612Q126 605 121 581Q115 559 140 556Q162 552 195 541Q235 523 270 489Q224 452 130 400Q108 388 110 375Q111 359 126 357Q145 354 175 368Q236 399 302 454Q324 427 339 399Q317 338 260 282M862 80Q837 41 794 20Q752-1 701-3Q668-4 642 2Q626 6 613 7Q606 6 603-6Q600-18 610-25Q625-35 651-41Q706-54 764-49Q804-45 833-29Q876-13 908 32Q926 66 931 103Q940 182 935 250Q931 304 935 347Q936 381 948 405Q957 433 940 451Q922 470 878 475Q842 479 778 481Q726 482 695 482Q643 479 621 480Q614 481 607 480Q616 496 625 510Q646 549 668 580Q675 589 674 605Q671 621 657 638Q639 659 624 658Q606 655 605 631Q604 564 571 500Q538 445 478 386Q453 356 461 345Q468 336 485 342Q504 349 530 377Q551 402 569 425Q569 425 571 424Q593 415 636 429Q682 442 763 440Q817 439 840 434Q856 430 866 417Q879 404 883 320Q887 235 881 145Q880 111 862 80M689 114Q711 110 731 120Q747 129 753 145Q762 166 763 184Q762 220 762 241Q762 256 765 267Q772 292 751 306Q735 315 700 312Q606 312 575 310Q563 311 545 313Q532 314 523 303Q514 293 513 261Q513 228 515 176Q516 124 531 114Q544 105 572 113Q585 116 616 117Q653 118 689 114M706 226Q707 177 696 170Q689 169 680 168Q647 169 598 165Q576 164 571 169Q565 176 565 215Q564 258 572 265Q581 272 628 273Q689 273 698 266Q705 259 706 226L706 226Z"  horiz-adv-x="1024" vert-adv-y="1024"  />

      
      <glyph glyph-name="uni53E4" unicode="&#x53E4;" d="M321 228Q281 227 268 210Q261 197 271 169Q278 148 304 19Q311-18 328-30Q341-40 362-29Q395-16 482-13Q561-12 612-26Q639-33 658-24Q679-14 691 18Q704 55 712 98Q718 135 728 156Q741 181 733 196Q726 206 706 219Q679 232 600 234Q564 235 530 234Q531 244 531 257Q528 308 527 398Q551 398 577 396Q683 390 743 376Q810 360 879 329Q909 316 931 336Q947 349 965 379Q975 397 953 400Q734 431 583 437Q555 438 527 438Q527 462 528 487Q529 533 537 574Q544 608 529 633Q514 654 489 649Q465 643 467 607Q476 522 476 451Q476 445 476 438Q382 439 280 427Q165 414 127 417Q93 421 67 390Q42 359 57 337Q78 316 114 333Q145 346 198 365Q250 381 355 393Q413 399 476 398Q475 343 474 279Q471 254 473 234Q428 235 387 231Q357 231 321 228M359 29Q352 33 348 50Q335 105 335 149Q334 164 338 170Q342 177 362 180Q425 187 601 186Q641 185 654 178Q664 171 663 154Q662 108 644 48Q641 38 634 34Q627 30 592 31Q507 35 391 28Q366 27 359 29L359 29Z"  horiz-adv-x="1024" vert-adv-y="1024"  />

      
      <glyph glyph-name="uni6545" unicode="&#x6545;" d="M137 227Q98 226 87 209Q80 199 89 171Q96 152 121 38Q128 2 144-8Q156-18 176-7Q195 2 250 3Q299 4 331-5Q356-11 375-2Q394 7 405 38Q418 69 425 107Q432 138 441 158Q454 183 446 196Q439 206 420 218Q395 231 320 232Q310 233 299 232Q300 242 300 256Q299 302 298 382Q368 383 435 380Q468 377 479 394Q489 409 481 423Q472 436 437 434Q358 430 299 428Q299 456 301 489Q302 537 311 578Q320 611 305 636Q290 658 265 653Q241 649 242 612Q249 524 249 454Q248 442 248 428Q239 428 232 428Q171 431 109 441Q82 445 57 417Q41 396 49 378Q61 362 99 372Q136 382 203 382Q225 383 247 382Q246 334 244 280Q240 252 241 231Q210 232 180 229Q161 229 137 227M173 48Q167 52 162 68Q152 114 150 152Q149 165 153 172Q157 178 176 181Q213 185 320 187Q359 186 371 179Q380 172 379 157Q378 117 361 66Q358 57 352 53Q345 49 312 50Q266 51 204 47Q179 46 173 48M573 404Q577 405 585 409Q598 413 634 418Q674 422 709 422Q749 422 771 417Q793 413 812 405Q842 392 862 407Q881 420 888 443Q894 467 871 466Q735 470 640 466Q624 465 604 468Q601 469 599 468Q602 477 605 484Q621 535 639 575Q646 585 641 601Q634 617 618 631Q596 647 582 644Q566 638 568 615Q578 536 554 457Q527 387 470 307Q451 273 461 263Q468 256 484 265Q503 275 523 307Q551 358 573 404M710 151Q723 136 741 116Q772 82 818 18Q846-22 886-29Q914-32 965-12Q984-3 969 7Q896 52 835 101Q768 158 733 190Q758 239 766 284Q769 306 773 318Q780 340 773 352Q767 362 755 365Q739 366 726 358Q717 352 720 329Q723 307 709 253Q705 237 696 221Q665 249 628 275Q598 297 567 294Q548 293 543 276Q542 266 573 253Q610 237 636 219Q657 203 676 186Q673 182 670 178Q640 144 594 114Q548 86 513 77Q483 70 467 56Q454 47 455 31Q456 21 470 15Q483 8 506 11Q543 21 593 49Q633 71 680 114Q695 129 710 151L710 151Z"  horiz-adv-x="1024" vert-adv-y="1024"  />

      
      <glyph glyph-name="uni987E" unicode="&#x987E;" d="M219 538Q342 544 391 544Q436 544 452 542Q482 539 490 550Q503 569 487 583Q478 590 410 589Q274 588 215 594Q193 594 172 584Q156 577 150 563Q146 551 149 531Q156 498 159 476Q159 373 156 323Q152 265 136 224Q123 185 59 108Q37 84 50 64Q60 52 74 52Q89 52 105 64Q118 77 136 106Q160 145 174 190Q190 239 196 314Q202 393 202 512Q201 527 204 532Q208 536 219 538M315 417Q373 424 384 425Q396 424 400 420Q412 407 412 383Q402 364 370 319Q357 300 358 290Q361 281 379 284Q401 288 417 311Q429 327 448 365Q458 386 462 390Q466 394 469 400Q478 422 459 451Q452 457 425 459Q391 460 360 461Q350 461 343 463Q315 472 281 458Q254 446 255 426Q255 425 256 421Q256 411 258 400Q261 369 259 248Q256 112 252 92Q248 56 256 42Q269 21 292 25Q364 34 446 93Q474 109 481 128Q488 147 480 162Q473 175 457 157Q412 114 334 96Q304 81 294 121Q294 155 299 261Q309 373 315 404Q316 411 315 417M833 518Q778 517 741 517Q734 517 728 517Q738 559 750 582Q756 595 755 608Q774 608 793 607Q833 606 872 596Q915 586 940 608Q958 626 956 640Q953 662 877 657Q846 656 738 653Q617 652 572 656Q535 660 514 638Q501 620 503 606Q507 584 541 593Q563 599 595 601Q647 605 691 605Q692 586 692 565Q691 544 684 517Q653 518 621 518Q575 517 563 507Q550 498 552 469Q553 450 552 409Q551 372 553 174Q553 140 560 130Q567 120 578 120Q591 120 602 144Q609 157 608 185Q602 275 604 393Q605 445 609 454Q615 466 708 470Q814 476 834 459Q840 455 842 407Q848 316 847 172Q846 142 852 133Q859 121 868 122Q878 121 889 135Q896 144 898 169Q899 292 893 364Q889 401 894 443Q900 479 879 500Q869 513 833 518M748 334Q749 353 750 364Q754 392 733 411Q718 421 701 416Q686 410 690 385Q694 363 696 317Q693 242 682 200Q666 139 640 106Q612 69 570 44Q534 22 510 14Q464 1 464-24Q465-40 482-46Q509-56 548-36Q603-9 651 37Q685 71 701 109Q719 149 733 219Q746 289 748 334M776 87Q852 0 891-24Q915-46 937-38Q962-31 973-10Q979 5 950 17Q851 69 793 111Q780 118 772 109Q766 102 776 87L776 87Z"  horiz-adv-x="1024" vert-adv-y="1024"  />

      
      <glyph glyph-name="uni7678" unicode="&#x7678;" d="M272 559Q265 566 259 574Q244 589 217 582Q198 578 193 562Q190 549 206 538Q222 531 239 519Q261 503 274 491Q283 482 291 478Q164 399 81 359Q47 344 68 320Q80 302 104 298Q132 297 168 324Q408 505 438 522Q466 538 471 559Q472 568 465 581Q455 594 434 600Q418 610 396 629Q377 647 366 664Q357 686 334 678Q310 672 308 651Q307 629 363 593Q399 568 394 554Q391 542 371 530Q343 512 316 494Q315 509 299 525Q280 552 272 559M687 505Q662 524 633 547Q617 560 617 566Q617 570 622 575Q629 582 644 592Q656 599 676 620Q698 627 698 642Q698 654 677 667Q656 680 622 645Q570 593 549 578Q530 566 533 545Q537 532 565 528Q611 521 706 441Q808 356 835 319Q854 291 884 289Q936 288 969 309Q997 327 964 338Q933 347 868 384Q813 412 707 490Q726 497 756 513Q778 526 794 531Q824 544 812 580Q796 623 764 590Q755 578 731 549Q712 528 690 508Q689 507 687 505M475 237Q414 236 352 229Q264 219 236 222Q211 225 190 202Q168 172 181 152Q200 133 234 148Q256 158 296 171Q333 183 410 191Q441 194 474 193Q473 181 471 169Q464 138 433 109Q403 81 352 55Q285 22 228 12Q209 9 207 2Q203-8 210-26Q219-45 236-52Q249-56 290-43Q321-33 382 2Q436 33 473 74Q503 105 519 153Q523 168 526 193Q548 193 572 191Q650 187 694 175Q743 163 793 140Q821 128 841 146Q857 159 873 186Q883 202 862 206Q696 231 582 236Q555 237 528 237Q529 256 529 278Q529 293 529 308Q529 321 528 330Q568 330 594 327Q631 323 678 312Q690 309 701 317Q714 324 718 337Q722 353 718 361Q711 371 688 372Q573 379 491 379Q412 379 350 374Q310 370 298 356Q282 337 297 320Q310 304 351 316Q373 320 409 326Q434 329 471 329Q470 320 471 308Q475 271 475 237M593 119Q581 129 571 121Q562 114 575 95Q597 59 659 5Q705-35 744-49Q768-58 788-39Q801-26 798-6Q795 15 762 22Q719 37 677 61Q629 89 593 119L593 119Z"  horiz-adv-x="1024" vert-adv-y="1024"  />

      
      <glyph glyph-name="uni4EA5" unicode="&#x4EA5;" d="M429 256Q386 231 340 211Q252 172 220 170Q204 169 210 146Q214 131 228 117Q241 104 263 111Q299 124 363 157Q417 184 513 259Q552 290 570 311Q586 324 600 335Q610 342 616 352Q622 362 614 384Q607 406 590 409Q574 413 566 392Q544 347 488 299Q479 293 471 286Q470 287 470 287Q430 320 375 336Q356 339 368 353Q416 390 468 433Q511 458 492 500Q491 503 489 505Q532 506 579 502Q682 496 742 483Q808 467 875 437Q905 424 927 444Q943 457 961 487Q971 505 949 508Q735 539 586 545Q564 546 541 545Q554 579 558 608Q559 654 528 666Q491 678 475 659Q468 646 488 607Q501 582 502 545Q399 546 288 534Q174 521 138 524Q105 528 79 498Q54 467 69 445Q90 424 126 441Q157 454 209 472Q260 488 362 500Q399 504 440 504Q439 503 438 500Q407 446 363 410Q327 376 305 368Q268 353 268 326Q271 301 312 297Q351 294 389 280Q411 271 429 256M612 50Q682-14 716-39Q741-58 774-46Q850-16 856-2Q859 7 845 12Q790 24 738 45Q690 64 665 79Q652 86 618 110Q587 132 574 143Q614 176 636 200Q658 219 678 232Q688 239 696 250Q702 260 694 283Q687 307 669 311Q653 315 644 294Q611 234 531 172Q437 99 331 59Q213 10 170 8Q154 7 158-17Q162-33 177-48Q190-63 213-56Q262-40 350 0Q420 33 542 119Q541 119 542 118Q552 106 612 50L612 50Z"  horiz-adv-x="1024" vert-adv-y="1024"  />

      
      <glyph glyph-name="uni6DB5" unicode="&#x6DB5;" d="M142 574Q176 564 188 556Q203 546 217 546Q227 546 230 557Q233 575 215 588Q200 603 190 622Q169 650 133 637Q100 624 102 601Q105 585 142 574M90 320Q126 316 140 310Q156 303 170 305Q180 306 181 318Q181 334 161 346Q143 359 128 375Q103 400 70 381Q39 363 45 341Q51 325 90 320M196 168Q144 95 96 45Q78 32 77 19Q77 3 94-12Q119-33 134-25Q147-18 158 14Q192 89 225 150Q235 174 225 181Q213 188 196 168M469 330Q527 320 549 309Q562 303 575 305Q585 306 585 317Q585 333 567 342Q533 355 502 379Q480 401 451 383Q424 367 429 347Q435 332 469 330M558 251Q512 232 473 221Q452 220 446 209Q439 196 446 176Q458 148 472 149Q485 150 509 169Q543 200 574 224Q593 239 587 249Q581 259 558 251M800 399Q793 389 752 347Q722 322 720 317Q716 307 728 306Q738 305 783 324Q808 334 819 336Q843 342 847 359Q851 375 833 396Q815 415 800 399M718 228Q755 173 777 155Q796 134 818 140Q843 144 852 163Q858 176 833 189Q772 223 735 249Q723 258 716 249Q710 243 718 228M349 58Q353 34 352 12Q351-7 367-19Q388-38 428-17Q482 4 601 4Q773 4 828-14Q859-27 875-24Q893-17 903 0Q921 31 922 86Q922 135 930 252Q937 349 944 371Q951 393 943 411Q934 427 920 431Q907 432 897 423Q888 413 886 390Q876 230 870 141Q869 75 858 48Q854 39 805 41Q609 54 457 44Q423 40 415 48Q399 61 398 93Q388 243 390 380Q391 405 378 423Q371 433 356 433Q343 432 339 422Q333 409 334 375Q338 131 349 58M574 496Q558 495 550 482Q537 464 558 453Q577 443 601 421Q617 406 628 385Q644 354 645 328Q649 285 640 243Q630 206 613 175Q594 145 572 126Q547 107 547 93Q548 75 564 73Q586 70 621 101Q640 120 657 159Q673 193 683 238Q692 280 690 313Q690 341 677 382Q665 419 655 435Q648 444 639 462Q632 475 624 482Q640 492 664 507Q722 541 779 569Q804 582 811 585Q827 589 827 598Q826 614 807 629Q786 642 769 635Q745 625 697 627Q633 626 567 627Q521 628 505 631Q454 638 435 630Q410 617 406 603Q405 588 420 580Q438 573 467 579Q489 582 671 587Q687 588 688 585Q689 584 683 579Q658 557 616 524Q588 508 574 496L574 496Z"  horiz-adv-x="1024" vert-adv-y="1024"  />

      
      <glyph glyph-name="uni597D" unicode="&#x597D;" d="M382 363Q389 364 400 365Q422 366 421 382Q418 400 388 399Q333 403 264 404Q248 405 232 405Q269 517 298 571Q322 611 299 649Q283 674 266 670Q250 666 241 617Q234 574 184 409Q162 413 137 417Q106 420 57 381Q41 369 51 355Q63 339 91 347Q119 351 168 354Q164 341 160 327Q147 288 145 257Q146 235 161 220Q209 177 245 141Q220 117 187 94Q138 60 101 50Q67 41 50 25Q37 15 39-5Q40-15 56-22Q71-31 96-25Q136-12 188 21Q231 48 280 98Q281 101 285 104Q325 65 348 42Q388 2 416 0Q443 6 428 36Q416 66 316 148Q323 164 334 182Q362 243 371 300Q374 322 379 335Q383 353 382 363M321 360Q321 356 322 347Q326 320 311 258Q301 218 276 180Q258 193 239 209Q208 228 200 257Q196 287 205 322Q209 338 215 355Q267 358 321 360M661 303Q668 304 677 303Q680 290 682 272Q692 190 686 129Q680 84 663 64Q642 36 605 24Q577 17 538 15Q492 11 478 12Q463 13 466-3Q473-16 501-28Q531-38 576-38Q624-39 659-28Q684-21 703 3Q725 22 734 68Q750 120 737 216Q731 259 722 301Q759 300 790 293Q838 283 866 267Q909 242 940 257Q965 270 978 287Q994 306 963 314Q860 333 788 342Q751 346 711 347Q704 377 694 405Q693 406 693 406Q751 434 806 492Q849 540 850 569Q850 606 793 616Q751 620 693 628Q656 632 574 626Q525 627 498 620Q467 610 453 588Q443 569 460 554Q484 538 528 559Q600 592 660 592Q721 591 751 577Q767 570 770 556Q774 529 750 500Q722 470 683 447Q682 450 682 453Q682 468 658 489Q640 505 621 503Q603 502 600 490Q597 477 609 469Q630 459 644 425Q660 397 670 347Q598 348 476 334Q424 328 412 299Q402 275 412 261Q425 242 469 264Q500 277 545 289Q599 302 661 303L661 303Z"  horiz-adv-x="1024" vert-adv-y="1024"  />

      
      <glyph glyph-name="uni7334" unicode="&#x7334;" d="M232 244Q275 301 304 359Q311 325 312 285Q309 212 279 137Q245 64 196 3Q172-25 176-40Q182-59 200-59Q225-58 257-13Q306 48 332 135Q363 216 357 304Q356 386 324 438Q311 468 278 504Q297 541 318 594Q333 628 313 653Q297 672 278 665Q262 655 263 624Q263 608 257 580Q250 561 241 541Q235 547 230 550Q220 556 201 570Q173 592 144 584Q110 577 106 551Q102 529 126 527Q148 524 182 514Q198 510 214 497Q183 460 104 398Q85 383 88 370Q92 355 107 355Q126 355 153 373Q202 409 250 466Q265 450 274 433Q278 426 283 417Q282 416 281 410Q266 352 219 300Q156 236 99 196Q71 175 71 160Q71 144 91 140Q109 137 144 161Q186 189 232 244M482 230Q481 356 487 469Q490 505 473 524Q470 528 466 529Q485 548 507 576Q532 610 530 625Q527 638 514 637Q504 636 491 613Q481 594 434 562Q389 534 341 521Q322 515 319 499Q318 483 332 473Q347 460 371 465Q387 471 426 497Q426 490 427 478Q428 438 431 286Q431 151 427 26Q423-14 434-27Q455-49 469-33Q488-14 483 39Q482 84 482 230M722 482Q634 482 567 476Q528 473 517 460Q501 441 516 426Q529 410 568 421Q593 427 632 432Q669 435 725 437Q794 437 834 433Q874 429 924 417Q937 414 950 422Q963 429 966 441Q970 457 966 465Q959 474 938 475Q856 479 790 480Q790 481 791 483Q798 541 800 545Q803 552 802 556Q801 578 781 590Q765 602 719 599Q700 598 670 596Q654 595 647 596Q622 602 596 586Q574 573 579 557Q586 535 628 544Q644 548 677 553Q716 557 724 556Q746 552 746 532Q746 529 745 515Q744 496 742 481Q732 482 722 482M804 124Q795 136 783 129Q774 125 783 103Q796 73 834 25Q862-11 891-26Q913-39 936-23Q949-13 950 8Q950 30 919 42Q888 55 861 76Q828 100 804 124M710 224Q652 225 590 225Q544 226 528 213Q513 200 521 183Q531 164 572 171Q621 180 706 180Q706 180 708 179Q705 152 701 140Q685 95 641 64Q598 31 569 24Q547 18 542 6Q532-16 549-29Q564-39 586-33Q620-23 671 23Q719 63 738 111Q748 135 753 179Q823 180 910 176Q941 176 945 190Q949 203 942 213Q929 225 882 223Q818 223 756 223Q759 259 764 279Q765 307 758 324Q800 323 821 318Q843 312 859 323Q869 332 875 347Q878 359 869 365Q859 369 835 370Q789 370 720 369Q668 368 649 368Q643 381 630 392Q611 405 599 402Q586 398 588 377Q594 361 592 341Q591 325 581 304Q565 276 574 267Q581 261 594 269Q609 278 625 305Q629 312 634 318Q662 324 706 324Q703 314 707 291Q711 260 710 224L710 224Z"  horiz-adv-x="1024" vert-adv-y="1024"  />

      
      <glyph glyph-name="uni540E" unicode="&#x540E;" d="M652 358Q728 354 772 342Q821 330 870 306Q898 294 920 313Q936 326 953 354Q963 372 942 375Q776 400 662 406Q553 412 432 400Q344 391 316 394Q303 395 292 390Q291 426 288 468Q285 501 296 517Q308 532 341 533Q378 536 447 543Q547 555 626 563Q684 567 697 586Q709 601 701 620Q694 639 673 649Q654 659 630 641Q605 625 506 604Q391 579 302 574Q244 573 231 546Q221 522 229 475Q248 357 237 281Q227 193 179 139Q127 82 63 58Q32 48 25 29Q21 10 48-9Q70-27 109-5Q179 35 227 100Q270 160 287 252Q291 277 293 312Q305 313 316 319Q338 328 377 341Q416 351 491 359Q570 365 652 358M429 224Q389 223 376 206Q369 193 379 165Q386 144 412 19Q419-18 436-30Q449-40 470-29Q500-16 579-14Q649-13 696-26Q723-33 742-24Q763-14 775 18Q788 55 796 95Q802 131 812 152Q825 177 817 192Q810 202 790 215Q763 228 684 230Q581 231 489 227Q462 226 429 224M467 29Q460 33 456 50Q444 102 443 145Q442 160 446 166Q450 173 470 176Q527 183 685 182Q725 181 738 174Q748 167 747 150Q746 105 728 48Q725 38 718 34Q711 30 676 31Q601 35 499 28Q474 27 467 29L467 29Z"  horiz-adv-x="1024" vert-adv-y="1024"  />

      
      <glyph glyph-name="uni864E" unicode="&#x864E;" d="M323 520Q271 524 248 505Q232 501 240 411Q253 278 241 232Q231 184 196 131Q168 86 80 29Q46 5 47-23Q48-45 71-47Q98-50 129-26Q202 22 236 89Q278 159 291 220Q304 274 295 408Q294 433 305 447Q315 460 362 465Q426 477 554 481Q714 485 756 471Q789 465 792 433Q793 381 803 372Q816 366 829 377Q844 393 846 419Q847 437 851 456Q860 483 838 500Q816 518 761 522Q652 529 546 526Q547 535 547 546Q547 559 548 582Q590 589 654 588Q727 588 758 581Q783 575 798 586Q810 595 815 611Q818 624 808 630Q798 636 772 636Q720 636 641 635Q580 634 558 634Q557 634 555 633Q556 654 546 671Q533 689 510 685Q488 679 490 648Q494 626 495 609Q496 590 497 566Q494 542 495 525Q405 522 323 520M500 357Q501 335 505 327Q511 308 524 293Q543 272 588 268Q658 258 709 260Q742 261 758 282Q774 304 777 325Q781 353 754 337Q715 316 678 311Q632 310 600 313Q569 316 556 327Q552 331 547 344Q546 350 546 362Q622 372 669 370Q700 364 716 374Q744 393 747 407Q748 420 714 419Q596 412 552 405Q551 405 550 404Q550 411 552 418Q556 449 527 460Q499 470 499 442Q498 420 498 400Q491 401 485 400Q460 397 451 401Q421 404 389 398Q361 391 349 371Q339 352 350 337Q360 324 410 337Q441 349 500 357M510 187Q510 188 513 188Q534 192 561 195Q588 195 593 191Q600 187 600 163Q600 96 614 32Q623-2 638-18Q663-43 699-57Q727-67 780-72Q832-75 909-70Q933-67 946-51Q958-36 970 17Q982 60 971 68Q964 72 941 52Q899 16 824-11Q793-17 759-17Q725-17 707-10Q688-4 675 9Q665 19 660 40Q650 71 654 114Q655 148 667 166Q680 184 677 203Q676 219 662 228Q641 241 611 240Q527 240 514 240Q505 243 497 240Q491 244 484 243Q471 242 463 232Q457 222 458 201Q464 143 458 105Q454 83 434 63Q415 44 384 27Q342 3 305-3Q287-7 285-14Q281-26 290-43Q300-62 317-67Q330-70 371-54Q389-47 424-22Q455 0 477 29Q495 51 504 85Q510 110 510 175Q510 182 510 187L510 187Z"  horiz-adv-x="1024" vert-adv-y="1024"  />

      
      <glyph glyph-name="uni6237" unicode="&#x6237;" d="M530 542Q531 549 531 561Q532 591 527 613Q508 656 475 654Q438 648 431 624Q430 611 464 583Q485 570 498 543Q410 544 359 546Q334 547 321 544Q314 547 302 547Q295 546 284 533Q275 520 278 481Q284 312 275 243Q265 170 239 127Q200 66 158 43Q119 21 77 20Q58 16 54 2Q50-11 67-27Q80-39 99-42Q115-45 134-38Q170-31 208 4Q266 58 291 108Q316 159 327 244Q357 243 407 249Q450 252 523 253Q581 254 655 250Q694 249 712 259Q730 271 734 296Q750 369 748 488Q747 534 676 537Q613 541 530 542M341 491Q351 491 365 492Q420 496 517 494Q598 493 642 491Q676 494 685 462Q695 380 681 336Q674 314 660 306Q641 294 616 296Q492 300 339 301Q336 301 334 300Q341 384 341 491L341 491Z"  horiz-adv-x="1024" vert-adv-y="1024"  />

      
      <glyph glyph-name="uni534E" unicode="&#x534E;" d="M298 430Q299 373 296 319Q293 280 303 269Q322 248 336 263Q354 281 350 331Q349 349 350 408Q350 459 353 505Q354 529 348 545Q352 549 356 552Q378 573 389 582Q405 595 407 616Q408 635 393 648Q383 658 372 653Q363 649 359 636Q356 627 347 609Q340 599 324 585Q311 575 294 567Q275 560 246 552Q206 542 161 539Q145 538 140 522Q136 509 150 490Q165 475 191 479Q225 483 259 497Q278 504 297 514Q296 514 297 513Q298 497 298 430M851 263Q885 257 913 289Q931 314 941 352Q945 382 921 369Q890 348 851 339Q814 332 752 333Q685 339 655 348Q631 355 621 373Q611 392 607 421Q689 454 730 479Q764 501 787 510Q815 522 816 544Q812 568 797 584Q779 602 763 582Q745 561 709 534Q669 506 607 473Q610 567 614 578Q621 603 609 625Q599 640 576 634Q555 628 558 598Q562 564 561 450Q503 422 441 405Q425 401 427 388Q428 376 454 378Q499 382 561 404Q564 370 578 348Q594 318 629 307Q734 277 851 263M477 150Q478 71 475-2Q471-42 482-55Q503-77 517-61Q536-42 531 11Q530 36 531 118Q531 143 531 167Q655 163 736 149Q812 136 853 121Q887 109 908 118Q930 127 943 141Q974 177 970 186Q967 196 937 198Q900 191 790 200Q645 207 532 208Q533 232 535 253Q538 289 521 308Q508 326 485 307Q472 298 475 262Q475 249 476 208Q376 209 266 207Q184 207 133 205Q102 204 79 182Q55 160 56 139Q57 124 71 117Q86 108 136 126Q212 148 315 158Q409 167 476 168Q476 161 477 150L477 150Z"  horiz-adv-x="1024" vert-adv-y="1024"  />

      
      <glyph glyph-name="uni56DE" unicode="&#x56DE;" d="M141 467Q140 448 142 296Q146 106 150 77Q153 61 152 51Q152 42 161 30Q173 17 183 13Q196 10 216 20Q235 27 354 34Q508 40 625 36Q755 30 811 18Q848 14 859 25Q872 38 871 54Q871 67 872 78Q879 286 877 408Q877 435 883 459Q892 492 888 513Q881 544 860 552Q841 559 812 556Q778 552 756 551Q705 555 487 555Q318 556 244 551Q225 548 209 555Q193 564 182 562Q160 559 143 542Q133 523 139 501Q142 485 141 467M213 91Q204 95 202 113Q189 267 197 454Q198 470 206 479Q215 486 233 492Q305 510 513 511Q705 510 779 500Q801 497 810 487Q819 474 821 458Q831 278 818 115Q817 93 809 88Q802 84 786 82Q762 78 526 76Q312 73 231 84Q222 85 213 91M598 203Q634 196 654 213Q672 226 670 270Q671 307 676 340Q680 368 665 380Q643 395 606 397Q554 397 465 394Q419 394 386 393Q365 393 356 384Q343 371 345 346Q346 339 346 329Q346 307 348 283Q349 261 350 243Q349 209 369 197Q381 190 420 197Q451 203 512 203Q582 203 598 203M619 311Q620 265 612 257Q602 250 582 251Q545 252 491 249Q452 248 431 246Q412 246 405 251Q401 255 397 286Q393 341 398 346Q405 353 492 355Q601 358 613 350Q619 346 619 311L619 311Z"  horiz-adv-x="1024" vert-adv-y="1024"  />

      
      <glyph glyph-name="uni60E0" unicode="&#x60E0;" d="M314 167Q281 49 294 26Q316-5 418-29Q590-69 770-71Q825-72 853-28Q911 75 912 94Q913 116 887 94Q823 34 778 23Q693-1 606 3Q489 4 411 19Q363 25 342 46Q336 61 342 79Q349 98 364 105Q386 121 383 150Q380 177 352 184Q321 194 314 167M722 172Q716 159 681 98Q656 64 655 57Q652 45 666 47Q678 48 723 85Q748 104 760 110Q784 123 784 142Q784 161 758 178Q734 193 722 172M193 169Q138 111 91 70Q70 58 68 45Q67 29 82 11Q106-14 122-7Q135 0 151 31Q187 95 222 148Q235 172 224 180Q214 187 193 169M520 181Q517 168 495 110Q476 74 477 68Q476 58 489 60Q499 63 535 101Q554 122 565 129Q584 144 583 162Q580 180 553 192Q528 202 520 181M686 282Q680 289 676 296Q663 312 634 308Q615 304 609 290Q608 287 607 284Q571 287 536 285Q537 298 538 316Q537 329 537 343Q618 342 675 325Q699 319 716 327Q735 336 745 365Q758 398 764 434Q770 465 779 485Q791 507 784 520Q777 530 759 541Q735 553 664 554Q600 557 539 556Q540 575 543 594Q645 595 773 593Q803 590 814 607Q821 620 810 632Q798 641 774 640Q659 641 549 639Q548 655 540 669Q527 690 502 685Q480 681 481 646Q481 643 481 639Q429 640 377 639Q310 638 267 646Q239 652 216 630Q203 611 207 598Q213 583 244 585Q313 592 432 595Q457 595 484 594Q485 575 486 555Q431 556 378 553Q338 552 288 549Q252 548 241 533Q234 523 244 496Q251 478 273 365Q280 331 295 321Q307 314 325 322Q370 341 485 343Q485 342 485 338Q481 304 484 283Q471 284 457 282Q417 278 382 282Q342 288 304 263Q271 241 282 223Q292 207 320 212Q399 225 464 235Q522 242 608 239Q633 239 651 244Q669 229 680 217Q695 201 709 199Q719 199 723 212Q724 228 707 249Q692 274 686 282M486 379Q422 379 352 374Q330 373 323 375Q317 379 313 394Q309 407 307 419Q347 426 487 427Q486 405 486 379M536 428Q665 429 711 421Q707 408 703 392Q700 383 694 379Q688 375 657 376Q600 380 536 379Q536 401 536 428M488 499Q488 480 487 459Q349 458 302 465Q302 465 301 465Q301 472 301 478Q300 491 304 497Q308 503 326 506Q378 513 487 512Q488 506 488 499M537 512Q594 513 665 511Q702 511 712 504Q721 497 720 483Q719 474 718 463Q676 462 536 459Q536 484 537 512L537 512Z"  horiz-adv-x="1024" vert-adv-y="1024"  />

      
      <glyph glyph-name="uni83B7" unicode="&#x83B7;" d="M266 188Q190 145 125 122Q89 109 84 92Q80 76 99 64Q118 55 164 71Q210 87 266 127Q321 169 364 217Q368 223 374 228Q378 203 374 174Q365 126 338 78Q310 32 270-7Q245-29 246-43Q247-61 264-63Q286-64 322-31Q364 9 390 69Q420 123 423 182Q429 237 409 273Q396 307 362 351Q358 355 354 360Q367 373 383 388Q414 422 414 439Q413 455 398 455Q388 454 370 430Q360 414 327 391Q317 401 311 406Q299 413 280 430Q253 454 224 448Q190 442 184 418Q177 396 202 392Q224 388 257 376Q269 372 281 362Q217 328 151 316Q129 313 125 295Q121 279 136 265Q149 249 179 252Q207 258 278 300Q297 312 320 328Q342 304 356 279Q355 278 353 274Q325 225 266 188M775 306Q776 309 778 312Q784 334 797 354Q810 373 803 393Q797 414 780 417Q764 420 752 408Q734 389 741 367Q747 351 746 310Q746 309 746 305Q703 306 680 304Q676 305 672 304Q673 337 673 378Q673 393 673 408Q674 436 666 446Q657 456 643 456Q628 455 620 443Q613 431 615 408Q618 351 618 304Q615 305 614 304Q590 303 581 307Q550 310 516 304Q486 297 473 275Q463 256 474 239Q486 226 538 239Q566 248 617 250Q616 235 615 220Q609 177 586 138Q562 101 523 66Q471 20 426 7Q410 0 409-6Q408-18 417-32Q430-48 446-51Q459-51 495-31Q517-18 563 27Q603 67 631 118Q641 140 651 167Q672 161 689 143Q777 64 849-33Q870-63 909-52Q943-42 968-24Q989-2 954 10Q923 23 862 65Q778 120 686 199Q673 211 666 219Q667 232 670 254Q748 258 793 253Q824 247 843 258Q871 277 875 292Q876 305 841 306Q804 307 775 306M816 536Q850 530 869 541Q899 562 902 577Q906 592 867 592Q770 593 692 592Q704 622 714 634Q727 650 713 667Q697 688 676 682Q654 676 651 652Q648 636 638 591Q532 592 476 587Q428 588 379 586Q376 629 381 649Q385 667 370 676Q339 691 317 673Q307 663 315 643Q319 630 325 618Q328 608 331 586Q321 587 312 586Q254 583 231 593Q198 596 163 590Q132 581 117 560Q107 539 118 522Q131 507 185 522Q243 537 337 543Q338 536 339 527Q343 490 355 479Q365 467 375 475Q388 485 385 521Q384 534 382 546Q425 550 477 550Q558 551 627 549Q624 539 622 527Q616 503 620 493Q626 477 644 483Q656 487 664 517Q668 533 674 548Q756 547 816 536L816 536Z"  horiz-adv-x="1024" vert-adv-y="1024"  />

      
      <glyph glyph-name="uni57FA" unicode="&#x57FA;" d="M636 277Q646 278 656 276Q719 270 796 252Q815 248 835 260Q848 267 850 278Q854 294 850 300Q843 309 823 310Q741 314 669 317Q672 327 671 341Q667 381 675 486Q676 522 678 550Q712 546 753 536Q769 532 786 542Q799 549 802 561Q806 577 802 585Q795 594 774 595Q726 598 683 599Q684 621 689 638Q693 660 683 672Q668 688 656 689Q640 690 630 677Q621 662 625 637Q626 627 627 601Q551 604 490 603Q450 604 412 602Q413 617 415 628Q418 650 408 662Q392 677 379 677Q363 678 354 664Q347 648 352 624Q353 617 355 600Q318 600 287 596Q248 593 237 580Q221 561 236 546Q249 530 288 541Q315 548 358 553Q359 528 361 490Q362 361 361 333Q360 326 360 318Q299 317 248 311Q211 307 201 295Q186 279 200 263Q213 248 250 259Q287 266 347 275Q369 278 399 278Q398 277 396 274Q383 258 351 234Q314 206 260 185Q208 166 168 157Q116 148 83 151Q52 152 52 127Q53 108 70 91Q89 75 122 82Q198 100 271 134Q352 177 388 206Q439 245 465 267Q475 274 477 282Q483 283 490 283Q511 283 532 282Q535 276 546 273Q607 255 656 223Q744 166 848 62Q879 31 920 44Q948 56 963 73Q979 95 951 107Q819 164 648 268Q641 272 636 277M412 319Q413 328 413 339Q410 352 409 371Q434 375 518 376Q597 377 621 373Q620 349 620 338Q619 328 618 319Q548 320 488 320Q448 321 412 319M409 464Q437 468 516 468Q598 469 625 464Q624 439 623 416Q596 415 518 414Q440 413 408 416Q408 438 409 464M410 558Q446 561 493 562Q577 562 628 556Q627 537 627 508Q602 507 516 506Q441 505 409 507Q409 535 410 558M500 40Q448 40 392 33Q322 24 299 26Q277 29 262 10Q240-18 253-39Q271-57 304-42Q322-35 352-24Q382-15 441-8Q502-4 568-8Q628-11 662-20Q701-29 740-47Q767-59 787-40Q800-28 817-2Q827 14 807 17Q672 36 579 40Q564 41 550 40Q551 50 551 66Q551 79 551 101Q596 104 652 104Q682 103 693 119Q700 132 688 143Q676 153 653 152Q602 152 553 152Q554 164 557 174Q564 204 550 227Q537 245 514 241Q492 235 494 204Q498 176 499 152Q480 152 463 152Q432 151 411 155Q383 161 360 138Q347 119 351 106Q357 91 388 94Q422 98 482 101Q489 102 500 101Q501 94 501 86Q498 59 500 40L500 40Z"  horiz-adv-x="1024" vert-adv-y="1024"  />

      
      <glyph glyph-name="uni673A" unicode="&#x673A;" d="M674 523Q686 513 686 473Q682 217 688 162Q692 110 705 88Q729 45 775 28Q835 6 884 7Q909 8 931 20Q959 39 976 73Q988 98 982 104Q975 111 957 102Q918 89 868 84Q823 84 790 94Q762 104 752 125Q742 147 737 175Q728 247 730 377Q731 471 740 491Q752 521 744 545Q737 566 719 579Q701 589 678 577Q662 573 622 572Q579 571 559 579Q525 595 508 582Q492 569 494 515Q500 355 491 280Q482 213 458 173Q433 134 393 106Q353 78 344 59Q337 43 347 26Q356 13 379 14Q395 15 431 49Q467 85 494 132Q519 175 531 230Q544 288 542 454Q541 505 548 517Q558 530 622 533Q661 534 674 523M178 312Q120 249 67 210Q36 185 36 167Q37 148 61 144Q83 141 123 172Q160 202 199 255Q218 286 236 318Q235 155 231-2Q227-42 238-55Q259-77 273-61Q292-42 287 11Q284 75 284 281Q283 375 284 465Q315 466 347 464Q380 461 391 478Q401 493 393 507Q384 520 349 518Q315 517 286 515Q287 570 291 621Q294 657 277 676Q264 694 241 675Q228 666 231 630Q232 599 234 515Q218 515 204 515Q161 518 117 525Q90 529 65 501Q49 480 57 462Q69 446 107 456Q132 463 181 464Q208 465 234 464Q234 446 234 424Q233 420 233 417Q221 362 178 312M348 352Q320 362 308 356Q298 349 308 340Q335 315 344 292Q360 261 384 257Q409 256 416 272Q426 294 408 320Q389 338 348 352L348 352Z"  horiz-adv-x="1024" vert-adv-y="1024"  />

      
      <glyph glyph-name="uni9E21" unicode="&#x9E21;" d="M293 244Q311 228 326 213Q357 173 391 190Q421 205 417 222Q414 238 326 289Q341 314 357 342Q390 406 400 457Q410 488 400 501Q387 516 357 517Q332 518 314 516Q295 516 243 517Q182 518 152 527Q136 530 112 507Q90 485 98 471Q102 464 116 463Q132 462 163 467Q202 473 239 476Q285 480 317 479Q335 479 341 469Q345 457 342 437Q333 397 309 350Q299 332 285 313Q252 332 212 353Q154 381 138 383Q116 386 109 367Q105 354 126 348Q145 348 177 333Q207 312 256 275Q252 269 246 263Q201 214 152 181Q106 153 62 141Q46 137 46 123Q47 113 60 99Q72 86 85 83Q97 80 122 91Q161 109 201 144Q243 178 283 231Q287 238 293 244M661 588Q670 607 675 625Q682 661 660 673Q635 686 619 674Q612 665 623 634Q630 613 626 588Q616 589 605 589Q550 590 519 577Q500 567 496 547Q487 501 488 447Q487 393 494 350Q498 313 494 290Q490 269 478 258Q466 248 469 233Q472 218 483 214Q492 211 501 214Q550 236 588 244Q672 257 747 255Q832 251 858 233Q898 217 903 173Q907 106 892 57Q880 14 832-41Q825-51 845-52Q863-53 881-41Q914-11 933 28Q945 52 951 98Q955 143 972 187Q976 199 976 206Q975 228 943 255Q909 282 835 289Q753 299 636 293Q578 292 560 293Q551 293 547 296Q543 299 536 324Q532 382 535 422Q538 477 547 509Q551 525 562 535Q572 542 598 545Q652 548 706 535Q728 532 737 524Q747 515 748 487Q748 442 735 403Q725 369 708 357Q701 351 705 343Q708 336 721 337Q748 340 762 355Q778 368 784 402Q791 438 809 468Q819 486 819 498Q819 520 787 551Q763 573 725 581Q701 588 680 588Q670 588 661 588M671 406Q664 443 662 472Q663 490 655 497Q645 504 628 502Q603 496 600 484Q599 472 612 449Q631 421 645 396Q655 378 665 381Q675 385 671 406M757 82Q788 76 804 86Q832 105 835 119Q836 132 803 132Q652 133 593 129Q550 130 506 129Q475 128 463 133Q433 136 401 130Q373 123 361 103Q351 84 362 69Q372 56 422 69Q474 82 576 86Q693 90 757 82L757 82Z"  horiz-adv-x="1024" vert-adv-y="1024"  />

      
      <glyph glyph-name="uni5409" unicode="&#x5409;" d="M529 351Q530 364 531 381Q530 415 529 479Q656 475 739 461Q815 448 857 433Q891 421 912 430Q934 439 947 453Q978 489 974 498Q971 508 941 510Q902 503 793 512Q643 519 529 520Q529 530 530 539Q531 570 537 598Q544 632 529 657Q514 678 489 673Q465 667 467 631Q474 571 474 523Q474 522 474 520Q374 521 264 519Q182 519 129 517Q98 516 75 494Q51 472 52 451Q53 436 67 429Q82 420 132 438Q208 460 313 471Q406 478 474 480Q474 446 474 403Q470 372 473 350Q397 351 338 346Q298 342 286 328Q270 309 285 292Q298 276 339 288Q364 294 403 299Q440 302 496 304L495 306L496 304Q565 304 605 299Q645 295 696 284Q709 281 721 289Q734 296 738 309Q742 325 738 333Q731 343 708 344Q606 351 529 351M390-29Q418-17 495-15Q564-14 608-26Q635-33 654-24Q675-14 686 18Q699 48 708 82Q715 110 724 128Q737 153 729 168Q722 178 702 191Q675 204 596 206Q496 207 408 203Q381 202 349 200Q309 199 296 182Q289 169 299 141Q306 125 332 19Q339-18 356-30Q369-40 390-29M597 158Q637 157 650 150Q660 143 659 126Q656 92 640 48Q637 38 630 34Q623 30 588 31Q516 35 419 28Q394 27 387 29Q380 33 376 50Q366 90 363 121Q362 134 366 142Q370 149 390 152Q445 159 597 158L597 158Z"  horiz-adv-x="1024" vert-adv-y="1024"  />

      
      <glyph glyph-name="uni96C6" unicode="&#x96C6;" d="M687 70Q665 77 611 101Q574 119 551 131Q551 140 552 148Q715 149 812 136Q846 130 865 141Q895 162 898 177Q902 192 863 192Q658 193 552 188Q551 216 540 229Q530 241 517 238Q505 234 497 216Q493 206 492 186Q423 187 353 186Q299 185 279 193Q246 196 211 190Q180 181 165 160Q155 139 166 122Q179 107 233 122Q318 144 488 146Q430 88 336 55Q203 18 100 8Q63 4 53-12Q46-28 62-42Q78-55 126-51Q204-44 307-5Q407 38 491 95Q491 55 491-6Q492-64 502-78Q512-91 525-88Q538-84 545-56Q549-28 548 19Q549 59 550 93Q586 74 654 38Q793-32 857-57Q885-69 913-50Q977-5 980 9Q981 19 966 19Q884 22 802 39Q729 55 687 70M283 523Q282 516 285 505Q286 493 291 464Q292 433 292 376Q291 325 284 282Q271 233 284 221Q294 205 312 208Q324 211 333 235Q343 239 359 241Q387 244 437 245Q588 246 654 240Q708 236 740 222Q771 209 798 232Q817 248 826 264Q833 280 809 282Q748 285 560 282Q560 286 560 290Q559 300 557 339Q626 340 712 339Q734 338 742 348Q748 358 741 371Q734 381 708 382Q614 381 557 378Q557 387 557 396Q556 411 556 423Q617 424 692 423Q714 422 722 432Q728 442 721 455Q714 465 688 466Q607 465 556 462Q556 490 560 502Q560 503 560 505Q621 506 701 505Q726 504 734 515Q741 527 732 540Q725 552 697 552Q549 548 498 548Q464 548 364 551Q346 551 336 546Q335 547 335 548Q334 549 333 550Q369 569 413 595Q429 605 449 610Q464 614 473 638Q483 668 476 678Q466 691 454 681Q435 662 352 618Q306 593 242 572Q193 556 160 556Q124 555 118 540Q111 524 123 506Q139 481 154 477Q167 474 202 487Q232 497 283 523M496 378Q459 378 353 381Q346 381 341 380Q341 401 342 421Q346 421 352 421Q407 422 503 422Q503 410 504 396Q504 387 504 378Q500 378 496 378M490 462Q456 462 357 465Q348 465 342 463Q342 470 343 476Q346 491 346 503Q350 503 359 503Q411 504 499 504Q499 503 500 500Q501 490 502 462Q495 462 490 462M360 282Q350 282 340 282Q341 295 341 311Q341 324 341 337Q344 337 348 337Q406 338 503 338Q502 308 501 295Q500 288 499 282Q435 283 360 282M534 608Q550 593 554 585Q560 569 572 561Q579 555 588 563Q600 575 593 596Q594 609 597 621Q596 655 561 664Q527 671 517 653Q510 637 534 608L534 608Z"  horiz-adv-x="1024" vert-adv-y="1024"  />

      
      <glyph glyph-name="uni5373" unicode="&#x5373;" d="M122 352Q126 234 118 172Q114 156 100 143Q78 127 68 106Q61 87 74 69Q86 59 104 60Q117 61 127 72Q134 79 172 101Q241 129 381 173Q400 139 410 113Q420 91 434 86Q444 83 453 95Q460 111 448 138Q418 216 406 237Q394 259 385 281Q378 302 347 305Q325 306 316 294Q307 282 319 266Q343 239 365 202Q283 193 199 176Q180 172 178 175Q172 178 173 198Q173 253 169 321Q168 345 171 351Q180 363 210 364Q250 367 308 367Q338 368 367 364Q407 360 428 381Q440 394 443 429Q447 475 454 533Q455 555 468 587Q478 615 470 631Q463 643 448 647Q429 651 397 652Q231 655 215 657Q193 661 163 661Q142 661 127 644Q117 631 118 605Q128 512 122 352M175 549Q176 583 187 597Q197 613 243 614Q294 615 336 615Q387 615 396 602Q403 592 404 561Q403 548 402 532Q380 531 286 530Q204 529 173 532Q174 541 175 549M345 408Q290 407 217 404Q187 403 178 412Q168 422 170 468Q170 478 171 488Q196 492 286 492Q377 493 399 488Q399 484 399 478Q395 429 385 416Q376 410 345 408M584 330Q584 164 579 10Q575-30 586-43Q607-65 621-49Q640-30 635 23Q634 71 633 205Q634 205 635 205Q708 189 786 214Q855 236 873 290Q886 327 888 485Q888 510 893 520Q900 536 900 549Q900 573 881 591Q860 610 828 618Q780 630 673 636Q642 637 618 641Q575 642 559 630Q531 609 563 593Q570 590 578 588Q577 579 579 566Q582 517 584 330M633 259Q632 416 639 557Q640 579 635 595Q657 599 706 596Q749 593 776 582Q801 576 819 553Q837 525 838 493Q831 364 821 329Q808 280 743 261Q677 242 635 244Q635 244 633 244Q633 251 633 259L633 259Z"  horiz-adv-x="1024" vert-adv-y="1024"  />

      
      <glyph glyph-name="uni5DF1" unicode="&#x5DF1;" d="M236 416Q199 422 181 410Q166 400 167 375Q168 362 173 349Q174 339 175 309Q171 197 197 145Q222 99 277 68Q380 19 530-5Q693-36 819-32Q859-32 883-6Q911 28 917 60Q921 88 884 72Q782 39 598 51Q421 63 314 109Q244 139 233 226Q226 310 241 347Q254 369 317 370Q402 374 474 362Q499 358 527 370Q552 380 559 405Q566 445 564 487Q563 509 575 530Q587 548 585 561Q585 577 559 596Q528 612 492 608Q437 601 366 602Q296 603 274 617Q243 635 204 617Q185 605 183 590Q182 574 208 563Q238 551 273 557Q346 567 456 562Q496 565 501 527Q510 466 499 434Q483 412 467 414Q350 404 236 416L236 416Z"  horiz-adv-x="1024" vert-adv-y="1024"  />

      
      <glyph glyph-name="uni5FCC" unicode="&#x5FCC;" d="M361 509Q327 513 311 503Q298 493 298 471Q299 464 302 458Q303 454 304 437Q305 379 320 353Q333 331 363 316Q427 289 521 284Q624 275 701 287Q735 290 750 313Q772 341 774 368Q775 392 746 375Q682 342 570 334Q462 328 398 353Q370 363 364 398Q360 431 365 446Q375 465 429 469Q501 475 563 468Q585 464 611 475Q633 485 640 507Q649 534 653 563Q654 578 666 591Q676 601 677 611Q677 627 653 643Q625 659 590 655Q538 645 470 644Q403 644 382 656Q351 672 315 656Q297 644 295 630Q294 614 319 604Q347 594 381 598Q451 611 556 611Q595 615 601 580Q597 547 586 533Q571 514 556 516Q457 503 361 509M172 242Q123 163 77 107Q58 92 59 79Q59 63 78 47Q106 28 120 36Q133 46 143 79Q173 158 204 225Q213 250 201 257Q189 264 172 242M551 230Q547 218 523 166Q502 132 501 125Q500 115 513 116Q523 117 560 151Q581 169 591 174Q613 187 612 205Q611 223 585 238Q561 251 551 230M749 218Q742 205 697 138Q672 104 670 98Q667 86 681 87Q694 88 744 128Q771 150 786 156Q808 168 810 186Q811 205 786 223Q762 239 749 218M320 245Q284 92 301 64Q322 33 423 0Q586-55 758-72Q813-78 848-35Q918 68 920 86Q923 110 893 88Q823 33 775 25Q690 9 607 20Q495 30 421 51Q372 64 352 89Q340 111 348 138Q357 169 377 180Q401 198 395 230Q391 258 360 266Q326 273 320 245L320 245Z"  horiz-adv-x="1024" vert-adv-y="1024"  />

      
      <glyph glyph-name="uni9645" unicode="&#x9645;" d="M86 618Q93 600 94 564Q97 278 90 54Q86-1 101-40Q107-55 120-55Q130-55 137-42Q149-21 148 11Q144 414 146 574Q146 601 156 621Q214 628 251 614Q270 611 274 597Q274 569 257 536Q238 500 200 468Q182 452 187 436Q196 426 214 434Q236 438 256 422Q278 407 289 373Q296 346 274 316Q240 277 193 255Q168 242 168 230Q172 218 199 218Q230 219 266 232Q299 247 321 275Q342 302 346 327Q350 355 337 379Q328 404 275 455Q259 471 273 486Q283 498 314 540Q344 582 347 605Q346 621 327 632Q306 644 287 646Q242 649 175 667Q127 680 102 664Q84 651 81 635Q81 635 81 634Q80 633 80 631Q79 624 86 618M593 552Q693 552 780 547Q811 543 823 558Q833 571 825 586Q818 599 784 598Q678 594 618 597Q569 601 519 611Q494 615 469 589Q453 568 461 552Q471 536 508 544Q538 553 593 552M615 387Q622 369 622 336Q623 185 618 67Q614 10 629-28Q635-43 648-43Q658-43 665-30Q677-9 676 24Q673 255 674 346Q674 370 682 388Q749 387 821 377Q852 373 876 365Q907 353 935 372Q957 388 972 415Q982 431 955 432Q819 428 546 431Q497 432 462 437Q422 444 393 426Q371 407 373 388Q377 367 409 372Q521 384 615 387M772 277Q848 156 891 116Q910 91 935 94Q963 95 977 114Q986 129 959 147Q853 234 794 298Q782 308 772 301Q765 295 772 277M501 263Q511 294 503 308Q496 318 486 307Q431 213 372 173Q338 154 336 126Q336 98 355 91Q380 82 407 104Q459 156 501 263L501 263Z"  horiz-adv-x="1024" vert-adv-y="1024"  />

      
      <glyph glyph-name="uni5BB6" unicode="&#x5BB6;" d="M767 545Q770 544 773 536Q777 524 779 510Q780 492 784 482Q787 457 795 449Q804 443 812 444Q819 445 828 455Q838 471 840 492Q841 499 840 505Q839 508 840 514Q840 518 841 523Q842 542 835 556Q828 575 800 588Q766 607 715 607Q633 608 512 608Q522 629 526 645Q527 688 499 699Q465 709 450 691Q444 679 462 644Q472 629 474 608Q470 609 467 608Q340 609 242 605Q184 604 169 590Q151 574 144 539Q134 505 130 481Q129 445 135 434Q142 422 156 419Q169 418 180 427Q192 440 191 476Q191 503 193 519Q194 529 200 536Q210 549 269 556Q336 565 455 565Q590 566 662 561Q747 557 767 545M600 221Q604 220 612 216Q628 209 666 183Q712 152 813 68Q847 40 888 54Q943 75 956 86Q983 111 935 116Q893 120 820 149Q732 186 676 223Q643 245 628 258Q637 261 651 265Q703 283 728 297Q746 307 757 311Q784 321 783 342Q779 364 766 378Q750 394 735 376Q728 366 709 350Q685 331 643 306Q610 287 575 275Q574 275 575 274Q563 292 547 305Q511 333 464 350Q445 357 431 365Q516 419 550 447Q604 448 641 442Q672 436 688 446Q716 465 719 479Q720 492 687 492Q545 493 489 489Q449 490 407 489Q379 488 367 493Q337 496 305 490Q277 483 265 463Q255 444 266 429Q276 416 326 429Q375 442 471 446Q475 447 480 446Q437 421 344 372Q235 317 177 299Q141 289 132 277Q122 267 132 251Q144 238 158 234Q174 231 203 245Q264 270 367 327Q367 327 372 327Q412 323 437 315Q409 290 293 223Q196 168 144 150Q111 137 103 127Q94 117 104 102Q114 90 130 87Q145 86 171 100Q235 128 341 195Q441 262 479 295Q483 294 487 291Q508 278 525 252Q516 248 507 235Q476 204 337 121Q226 54 165 30Q131 17 121 5Q114-7 123-22Q136-34 151-37Q167-38 194-22Q267 12 390 93Q502 172 545 212Q555 184 549 150Q542 107 508 69Q469 23 389-28Q364-43 368-59Q372-74 396-76Q433-69 482-35Q552 26 579 75Q604 117 607 166Q608 194 600 221L600 221Z"  horiz-adv-x="1024" vert-adv-y="1024"  />

      
      <glyph glyph-name="uni52A0" unicode="&#x52A0;" d="M283 399Q264 332 234 271Q203 210 167 163Q124 105 68 72Q37 53 46 29Q53 8 73 5Q107 1 145 41Q200 99 240 167Q274 225 300 290Q319 342 334 398Q356 398 383 398Q426 399 450 386Q463 376 465 351Q468 329 450 277Q431 211 400 158Q373 109 348 84Q333 65 324 44Q323 37 328 20Q334 10 344 8Q359 7 372 14Q391 27 411 57Q430 81 464 168Q510 280 522 332Q523 342 530 356Q537 369 535 378Q535 387 528 401Q521 413 517 424Q511 436 484 451Q465 461 432 447Q419 443 365 442Q358 442 346 442Q349 452 352 463Q368 536 379 584Q389 617 372 635Q359 645 341 638Q322 629 317 579Q307 501 295 446Q282 447 265 450Q225 453 196 463Q165 475 138 463Q108 448 99 431Q86 412 111 403Q127 396 145 401Q173 407 206 405Q227 406 251 402Q264 401 283 399M841 156Q869 152 891 164Q907 174 915 193Q925 217 925 238Q925 299 925 333Q925 349 929 363Q939 394 913 409Q894 419 854 418Q719 418 674 416Q659 417 639 419Q623 420 613 407Q603 394 602 358Q602 307 605 228Q606 167 623 156Q639 146 670 154Q689 158 734 161Q789 164 841 156M861 304Q864 231 847 220Q840 217 824 217Q778 217 710 212Q679 211 672 217Q663 227 663 288Q662 355 673 365Q686 374 751 375Q836 375 848 366Q860 356 861 304L861 304Z"  horiz-adv-x="1024" vert-adv-y="1024"  />

      
      <glyph glyph-name="uni7532" unicode="&#x7532;" d="M487 268Q486 156 483 54Q479-9 496-51Q502-67 516-67Q526-67 535-53Q548-31 547 6Q546 154 544 268Q647 265 721 244Q749 238 770 247Q791 257 804 291Q820 360 826 435Q830 502 843 542Q856 569 849 583Q842 595 820 608Q792 621 709 624Q514 630 343 622Q291 621 229 617Q186 616 173 598Q166 585 176 556Q186 517 211 291Q218 252 236 240Q249 230 272 241Q330 266 487 268M488 308Q400 308 303 301Q276 300 269 302Q262 306 257 325Q250 367 246 405Q247 405 252 405Q301 412 488 414Q488 360 488 308M543 415Q715 416 768 407Q764 367 755 323Q751 313 744 307Q737 303 701 305Q628 311 544 309Q543 367 543 415M488 517Q488 487 488 456Q310 455 250 465Q246 466 242 465Q241 502 243 534Q243 550 247 557Q251 563 272 567Q339 574 479 575Q486 556 488 517M545 528Q545 553 554 575Q624 575 709 573Q752 573 765 565Q775 556 774 540Q775 506 774 464Q729 460 544 457Q544 497 545 528L545 528Z"  horiz-adv-x="1024" vert-adv-y="1024"  />

      
      <glyph glyph-name="uni4EF7" unicode="&#x4EF7;" d="M205 275Q205 139 199 10Q195-30 206-43Q227-65 241-49Q260-30 255 23Q254 69 255 217Q255 346 262 461Q266 497 249 516Q246 519 243 521Q271 552 301 598Q328 640 324 656Q320 672 305 669Q293 666 280 639Q267 609 206 557Q145 509 78 485Q56 478 55 458Q55 440 71 429Q90 414 118 424Q143 434 202 483Q202 479 203 471Q204 431 205 275M505 374Q509 277 505 217Q501 180 482 148Q464 115 434 87Q395 50 361 38Q343 31 343 23Q342 11 353-4Q366-20 384-23Q399-23 435 0Q451 10 482 49Q510 83 530 126Q546 160 554 211Q560 248 560 346Q559 361 560 374Q561 399 553 410Q544 420 532 419Q517 419 510 408Q503 396 505 374M686 216Q686 113 683 18Q679-22 690-35Q711-57 725-41Q744-22 739 31Q738 65 738 174Q738 268 743 353Q746 389 729 408Q716 426 693 407Q680 398 683 362Q684 332 686 216M587 558Q621 557 644 546Q693 519 735 482Q780 440 852 362Q880 331 931 347Q961 354 977 375Q993 391 969 400Q912 419 869 443Q829 465 778 502Q724 541 686 563Q664 576 643 596Q630 608 615 612Q615 616 615 622Q612 641 595 649Q582 656 573 649Q566 645 565 630Q564 620 559 601Q553 582 536 558Q521 539 501 523Q477 504 441 484Q389 456 328 434Q312 428 311 413Q310 398 329 383Q345 373 371 382Q419 403 462 433Q499 458 535 494Q566 525 581 547Q584 553 587 558L587 558Z"  horiz-adv-x="1024" vert-adv-y="1024"  />

      
      <glyph glyph-name="uni89C1" unicode="&#x89C1;" d="M696 574Q703 567 704 510Q708 398 702 223Q701 192 707 181Q714 169 724 170Q736 169 746 183Q755 193 756 219Q762 370 756 460Q752 506 760 557Q766 596 744 618Q732 633 695 637Q608 638 552 638Q465 639 367 642Q315 641 303 631Q290 621 291 588Q292 566 290 515Q289 470 288 228Q287 194 296 183Q303 171 314 172Q327 172 339 197Q346 210 345 241Q341 352 344 497Q345 561 351 573Q361 591 504 594Q667 601 696 574M878-50Q914-57 942-25Q961 0 973 40Q979 71 953 58Q919 37 880 29Q834 20 759 23Q677 30 643 42Q615 51 602 72Q589 96 587 134Q594 213 598 222Q605 247 593 269Q583 284 560 278Q539 272 542 242Q545 215 541 127Q540 75 557 48Q576 14 617 0Q740-34 878-50M552 446Q553 468 554 481Q558 514 535 534Q519 547 498 540Q482 533 487 504Q491 479 493 428Q486 325 465 267Q431 182 379 138Q321 86 236 52Q161 21 111 11Q59 5 54-22Q53-40 69-50Q97-66 144-52Q258-15 354 47Q423 92 456 144Q493 198 523 292Q548 386 552 446L552 446Z"  horiz-adv-x="1024" vert-adv-y="1024"  />

      
      <glyph glyph-name="uni89E3" unicode="&#x89E3;" d="M273 160Q273 160 273 159Q270 110 283 74Q287 61 300 61Q309 61 315 72Q325 91 325 121Q324 142 324 161Q390 162 409 157Q409 157 410 156Q410 71 413 35Q416-1 430-15Q442-28 459-21Q478-11 472 29Q456 132 456 269Q457 357 470 401Q480 432 464 449Q449 462 419 458Q403 459 342 458Q355 477 379 506Q419 560 420 587Q421 597 408 608Q389 618 362 619Q319 619 287 653Q280 666 266 666Q253 665 250 657Q247 650 243 643Q225 600 174 565Q113 525 81 517Q63 514 52 493Q48 481 55 471Q68 455 85 453Q101 453 136 477Q194 511 248 577Q261 596 291 602Q358 590 359 575Q360 562 326 507Q307 477 289 458Q228 459 210 463Q179 470 166 467Q156 463 147 448Q138 432 140 406Q150 262 140 198Q131 137 110 97Q92 69 58 28Q33 0 35-15Q38-37 57-40Q76-40 105-11Q129 16 151 55Q170 92 180 147Q180 151 181 156Q182 156 184 156Q203 160 273 160M274 206Q210 206 185 208Q186 244 188 286Q206 290 276 290Q275 247 274 206M323 290Q386 291 410 286Q409 246 409 208Q387 207 323 206Q322 252 323 290M277 371Q277 352 276 332Q216 332 189 334Q189 352 189 369Q189 396 195 406Q202 419 270 419Q277 403 277 371M324 381Q324 402 330 418Q364 418 380 416Q399 415 407 408Q411 402 412 384Q411 359 410 333Q386 333 323 332Q323 360 324 381M695 589Q686 561 666 536Q642 511 604 488Q552 458 518 448Q494 441 498 425Q502 412 518 398Q534 385 579 411Q604 426 640 455Q679 489 700 518Q730 549 741 574Q742 580 746 585Q768 585 796 585Q830 586 846 575Q856 568 857 549Q856 543 848 529Q838 513 824 499Q814 487 804 482Q789 467 779 452Q778 445 780 432Q784 422 791 420Q804 417 815 421Q833 430 852 452Q861 459 879 489Q903 528 911 546Q912 550 915 555Q918 559 919 562Q919 569 914 582Q910 592 906 601Q902 611 881 626Q865 635 837 626Q827 622 782 622Q757 621 698 630Q664 633 641 642Q616 652 592 642Q568 630 559 616Q549 600 569 593Q582 587 597 591Q621 595 648 593Q666 594 686 591Q690 591 695 589M778 149Q824 148 850 139Q881 132 914 116Q939 106 957 122Q970 134 985 158Q994 173 976 175Q862 193 784 196Q781 197 778 196Q778 251 780 301Q808 301 826 297Q850 291 868 283Q895 273 913 285Q931 298 937 318Q941 339 921 338Q845 342 782 340Q782 341 783 341Q786 377 769 396Q756 414 733 395Q720 386 723 350Q723 346 723 339Q704 340 686 338Q671 337 652 340Q656 350 660 356Q670 374 662 393Q655 409 638 414Q625 418 618 410Q612 403 614 391Q615 382 614 363Q613 354 607 342Q601 332 593 323Q583 313 568 301Q546 285 519 270Q509 263 510 251Q511 241 528 231Q543 225 561 237Q580 247 598 263Q608 273 618 283Q624 284 633 288Q648 294 684 297Q703 300 724 300Q725 266 726 209Q726 203 725 196Q677 197 627 192Q567 185 548 187Q530 188 517 173Q496 148 508 129Q524 111 555 126Q571 132 595 140Q620 147 669 151Q696 154 725 152Q724 85 723 18Q719-22 730-35Q751-57 765-41Q784-22 779 31Q778 61 778 149L778 149Z"  horiz-adv-x="1024" vert-adv-y="1024"  />

      
      <glyph glyph-name="uni4E5D" unicode="&#x4E5D;" d="M360 384Q359 378 358 372Q334 275 299 225Q260 167 202 128Q151 92 117 81Q66 65 67 37Q68 19 88 13Q118 3 161 26Q237 66 303 135Q349 184 372 242Q394 297 413 391Q464 398 527 404Q542 405 549 396Q553 387 551 373Q520 228 517 177Q516 125 543 94Q574 60 698 23Q812-8 872-7Q908-4 944 37Q978 74 986 110Q990 129 967 117Q891 80 837 77Q764 74 685 90Q616 106 588 132Q572 148 572 179Q576 243 602 352Q608 380 632 397Q644 404 642 419Q641 431 612 454Q596 467 575 462Q526 449 421 438Q434 520 436 574Q437 596 438 609Q442 642 419 662Q403 675 382 668Q366 661 371 632Q375 607 377 556Q373 486 367 433Q286 429 234 430Q204 433 177 410Q153 391 162 370Q171 351 204 361Q268 374 360 384L360 384Z"  horiz-adv-x="1024" vert-adv-y="1024"  />

      
      <glyph glyph-name="uni53E5" unicode="&#x53E5;" d="M537 377Q470 378 413 375Q376 375 339 376Q314 377 304 361Q298 349 306 321Q313 285 319 238Q320 217 321 197Q320 169 338 159Q348 152 380 160Q434 172 476 170Q525 169 557 162Q576 158 603 172Q613 179 618 209Q624 260 636 291Q649 333 643 350Q639 360 622 369Q606 376 592 376Q573 375 537 377M537 220Q474 216 424 213Q387 212 380 220Q368 230 365 272Q362 324 367 329Q383 339 420 342Q465 343 522 340Q559 337 571 327Q575 323 572 281Q571 260 569 243Q569 233 564 228Q555 222 537 220M371 560Q384 588 393 602Q406 623 399 647Q393 669 371 677Q355 684 345 674Q338 667 338 651Q338 638 336 615Q332 593 314 560Q299 533 278 512Q253 485 211 455Q153 412 83 377Q67 370 68 353Q69 338 90 324Q109 315 134 328Q189 359 239 402Q279 436 320 484Q329 494 337 505Q356 492 383 498Q464 510 532 514Q613 518 762 508Q795 507 810 485Q826 463 826 414Q827 350 830 282Q831 203 814 155Q795 104 753 74Q711 43 643 28Q570 15 504 22Q482 23 483 7Q484-11 512-40Q534-62 594-51Q712-26 775 18Q826 55 857 111Q887 169 886 248Q879 360 882 392Q888 437 896 470Q909 506 893 530Q878 552 830 552Q679 559 532 558Q415 557 371 560L371 560Z"  horiz-adv-x="1024" vert-adv-y="1024"  />

      
      <glyph glyph-name="uni5F00" unicode="&#x5F00;" d="M626 273Q627 141 632-10Q631-41 645-54Q661-67 676-54Q686-45 687-11Q681 148 679 268Q707 267 732 261Q805 248 846 234Q877 224 898 231Q919 240 932 253Q960 287 958 297Q955 307 926 309Q889 302 784 310Q729 313 679 314Q678 429 682 505Q683 523 681 534Q720 533 752 528Q786 522 805 533Q835 554 838 569Q842 584 803 584Q596 585 517 580Q459 581 398 580Q355 579 339 585Q306 588 271 582Q240 573 225 552Q215 531 226 514Q239 499 293 514Q365 532 505 536Q571 537 626 536Q625 526 625 508Q624 417 625 316Q549 319 486 318Q455 319 423 318Q424 366 425 438Q425 453 425 468Q426 496 418 506Q409 516 395 516Q380 515 372 503Q365 491 367 468Q371 381 370 317Q324 318 275 317Q196 317 146 315Q115 314 94 293Q72 272 72 252Q73 237 87 230Q100 223 149 239Q222 261 322 271Q344 272 367 274Q367 270 367 265Q360 217 336 176Q312 134 271 98Q217 49 170 35Q151 26 150 19Q147 6 160-11Q175-30 194-33Q210-33 251-9Q273 4 318 54Q357 97 384 154Q406 197 418 264Q418 270 419 277Q455 281 487 281Q563 280 626 273L626 273Z"  horiz-adv-x="1024" vert-adv-y="1024"  />

      
      </font>
</defs>
</svg>
