<?xml version="1.0" standalone="no"?>
  <!DOCTYPE svg PUBLIC "-//W3C//DTD SVG 1.1//EN" "http://www.w3.org/Graphics/SVG/1.1/DTD/svg11.dtd" >
  <svg>
  <metadata>
  Created by font-carrier
  </metadata>
  <defs>
  <font id="KaiTi" horiz-adv-x="256" vert-adv-y="256" >
    <font-face
      
      font-family="KaiTi"
      
      font-weight="400"
      
      font-stretch="normal"
      
      units-per-em="256"
      
      ascent="220"
      
      descent="-36"
      
    />
      <missing-glyph />

      
      <glyph glyph-name="x" unicode="&#x78;" horiz-adv-x="100"
        d="M20 20 L50 20 L50 -20 Z" />
      

      
      <glyph glyph-name="uni25" unicode="&#x25;" d="M56 133Q56 104 47.50 96Q39 88 31 88Q23 88 14.50 96Q6 104 6 133Q6 162 14.50 170Q23 178 31 178Q39 178 47.50 170Q56 162 56 133M105 175L28 3L20 6L97 178L105 175M119 48Q119 19 110.50 11Q102 3 94 3Q86 3 77.50 11Q69 19 69 48Q69 77 77.50 85Q86 93 94 93Q102 93 110.50 85Q119 77 119 48M40 133Q40 151 38 157Q36 163 31 163Q26 163 24 157Q22 151 22 133Q22 115 24 109Q26 103 31 103Q36 103 38 109Q40 115 40 133M103 48Q103 66 101 72Q99 78 94 78Q89 78 87 72Q85 66 85 48Q85 30 87 24Q89 18 94 18Q99 18 101 24Q103 30 103 48Z"  horiz-adv-x="128" vert-adv-y="256"  />

      
      <glyph glyph-name="uni2d" unicode="&#x2d;" d="M119 85L5 85L5 101L119 101L119 85Z"  horiz-adv-x="128" vert-adv-y="256"  />

      
      <glyph glyph-name="uni2e" unicode="&#x2e;" d="M32 3Q27 3 22.50 6.50Q18 10 18 17Q18 23 21.50 26.50Q25 30 32 31Q39 31 42.50 27Q46 23 46 17Q46 10 42 6.50Q38 3 32 3Z"  horiz-adv-x="128" vert-adv-y="256"  />

      
      <glyph glyph-name="uni30" unicode="&#x30;" d="M9 101.50Q9 101.50 9.50 114.75Q10 128 16.50 143.50Q23 159 35 169Q47 179 64.50 179Q82 179 95 164.50Q108 150 112 128Q116 106 114.50 77.50Q113 49 104.50 31Q96 13 79 6Q62-1 45 7.50Q28 16 21 30Q14 44 11 59.50Q8 75 9 101.50M30 107.50Q30 107.50 28.50 93.75Q27 80 32 58.50Q37 37 48.50 28Q60 19 72 24.50Q84 30 89.50 46.50Q95 63 95 82.50Q95 102 93.50 118Q92 134 84.50 147Q77 160 64.50 160.50Q52 161 42.50 148Q33 135 30 107.50Z"  horiz-adv-x="128" vert-adv-y="256"  />

      
      <glyph glyph-name="uni31" unicode="&#x31;" d="M56 144Q43 131 23 119L23 138Q48 155 64 178L76 178L76 6L56 6L56 144Z"  horiz-adv-x="128" vert-adv-y="256"  />

      
      <glyph glyph-name="uni32" unicode="&#x32;" d="M12 10Q13 25 26 37Q39 49 59 74.50Q79 100 85 114Q91 128 89.50 138Q88 148 80 154.50Q72 161 61.50 160Q51 159 41.50 152Q32 145 27 131L8 134Q16 157 28.50 167.50Q41 178 58 179Q68 180 76 178.50Q84 177 92.50 171.50Q101 166 106.50 155Q112 144 110.50 128.50Q109 113 95 91.50Q81 70 41 24L113 24L113 6L12 6L12 10Z"  horiz-adv-x="128" vert-adv-y="256"  />

      
      <glyph glyph-name="uni33" unicode="&#x33;" d="M10 49L28 52Q32 39 41 30.50Q50 22 63.50 22.50Q77 23 85 33.50Q93 44 92 57.50Q91 71 81.50 78.50Q72 86 51 89L51 102Q72 104 81.50 113Q91 122 90 136.50Q89 151 77 157.50Q65 164 51.50 159Q38 154 30 131L12 134Q18 152 28.50 164Q39 176 57 178Q75 180 88.50 173.50Q102 167 107.50 153.50Q113 140 109 124Q105 108 86 96Q100 90 107.50 78Q115 66 112.50 46.50Q110 27 95 15Q80 3 61 3.50Q42 4 28 15.50Q14 27 10 49Z"  horiz-adv-x="128" vert-adv-y="256"  />

      
      <glyph glyph-name="uni34" unicode="&#x34;" d="M80 44L3 44L3 61L84 178L99 178L99 61L123 61L123 44L99 44L99 6L80 6L80 44M80 61L80 140L24 61L80 61Z"  horiz-adv-x="128" vert-adv-y="256"  />

      
      <glyph glyph-name="uni35" unicode="&#x35;" d="M22 53Q29 26 46 23Q63 20 73.50 26.50Q84 33 88.50 43.50Q93 54 92.50 67Q92 80 85.50 89Q79 98 69 101Q59 104 46.50 101Q34 98 26 87L9 89Q11 95 28 175L107 175L107 157L43 157Q38 130 33 114Q48 121 61 120.50Q74 120 86 114.50Q98 109 103.50 99.50Q109 90 111.50 80.50Q114 71 113.50 60Q113 49 109 37.50Q105 26 97 18.50Q89 11 77.50 6.50Q66 2 51 3Q36 4 22.50 14Q9 24 4 48L22 53Z"  horiz-adv-x="128" vert-adv-y="256"  />

      
      <glyph glyph-name="uni36" unicode="&#x36;" d="M10 64.50Q10 64.50 10.50 71.75Q11 79 15.50 89Q20 99 29 114L70 178L93 178L51 112Q78 119 94 110Q110 101 115.50 89.50Q121 78 121.50 64.50Q122 51 117.50 38Q113 25 101.50 14.50Q90 4 69.50 3Q49 2 34.50 10.50Q20 19 14.50 34.50Q9 50 10 64.50M41 31.50Q41 31.50 45.50 26.75Q50 22 65 21Q80 20 90 31Q100 42 100 63Q100 84 87.50 92Q75 100 59.50 98Q44 96 37 83Q30 70 31 55.50Q32 41 41 31.50Z"  horiz-adv-x="128" vert-adv-y="256"  />

      
      <glyph glyph-name="uni37" unicode="&#x37;" d="M34 6Q52 82 97 157L11 157L11 175L118 175L118 158Q71 82 56 6L34 6Z"  horiz-adv-x="128" vert-adv-y="256"  />

      
      <glyph glyph-name="uni38" unicode="&#x38;" d="M7 55Q7 55 7 61Q7 67 13 78.50Q19 90 33 97Q21 104 17 112.50Q13 121 12.50 132Q12 143 15.50 151Q19 159 26 166Q33 173 41.50 175.50Q50 178 60 178Q70 178 78 176Q86 174 95 167.50Q104 161 108 149Q112 137 107.50 121Q103 105 84 96Q101 91 108 80.50Q115 70 115 55Q115 40 110.50 31Q106 22 100.50 16Q95 10 85.50 6.50Q76 3 61.50 3Q47 3 36.50 6.50Q26 10 19 17Q12 24 9.50 33.50Q7 43 7 55M27.50 56Q27.50 56 27.25 50Q27 44 31.50 35Q36 26 48 23.50Q60 21 73 24Q86 27 91 38Q96 49 94.50 60Q93 71 82 78.50Q71 86 58 85Q45 84 36.50 76Q28 68 27.50 56M31 134Q31 134 31 129Q31 124 38 115Q45 106 60 106Q75 106 82.50 115Q90 124 89.50 136.50Q89 149 80.50 155Q72 161 57.50 160Q43 159 37 151.50Q31 144 31 134Z"  horiz-adv-x="128" vert-adv-y="256"  />

      
      <glyph glyph-name="uni39" unicode="&#x39;" d="M32 3Q54 40 68 70Q43 66 26.50 76.50Q10 87 6.50 105Q3 123 7 137.50Q11 152 19.50 161.50Q28 171 40 175Q52 179 61.50 179Q71 179 81 175Q91 171 99 163Q107 155 110 146.50Q113 138 113 124.50Q113 111 103 90Q93 69 54 3L32 3M26.50 115Q26.50 115 27.25 108.50Q28 102 37.50 93.50Q47 85 58 86Q69 87 75.50 92Q82 97 88 109Q92 124 90 134.50Q88 145 79.50 152Q71 159 61 159Q55 160 45.50 156Q36 152 30.50 140Q25 128 26.50 115Z"  horiz-adv-x="128" vert-adv-y="256"  />

      
      <glyph glyph-name="uni3a" unicode="&#x3a;" d="M74 93Q74 86 69.50 81.50Q65 77 59 77Q53 77 48.50 81.50Q44 86 44 93Q44 99 48.50 103.50Q53 108 59 108Q65 108 69.50 103.50Q74 99 74 93M74 17Q74 10 69.50 5.50Q65 1 59 1Q53 1 48.50 5.50Q44 10 44 17Q44 23 48.50 27.50Q53 32 59 32Q65 32 69.50 27.50Q74 23 74 17Z"  horiz-adv-x="128" vert-adv-y="256"  />

      
      <glyph glyph-name="uni41" unicode="&#x41;" d="M123 5L99 5L85 58L41 58L27 5L3 5L53 178L73 178L123 5M80 77L64 138L62 138L46 77L80 77Z"  horiz-adv-x="128" vert-adv-y="256"  />

      
      <glyph glyph-name="uni43" unicode="&#x43;" d="M119 73Q118 35 103 19Q88 3 67 3Q43 3 26 22.50Q9 42 9 85Q9 132 25.50 155Q42 178 68 178Q90 178 104.50 161.50Q119 145 118 115L96 115Q96 137 89 148Q82 159 68 159Q52 159 42.50 142.50Q33 126 33 87Q33 51 42.50 36.50Q52 22 67 22Q78 22 87 32.50Q96 43 96 73L119 73Z"  horiz-adv-x="128" vert-adv-y="256"  />

      
      <glyph glyph-name="uni49" unicode="&#x49;" d="M74 5L51 5L51 176L74 176L74 5Z"  horiz-adv-x="128" vert-adv-y="256"  />

      
      <glyph glyph-name="uni50" unicode="&#x50;" d="M118 124Q118 100 104 86Q90 72 65 72L36 72L36 5L13 5L13 176L65 176Q90 176 104 162Q118 148 118 124M95 124Q95 143 86 150Q77 157 59 157L36 157L36 91L59 91Q77 91 86 98Q95 105 95 124Z"  horiz-adv-x="128" vert-adv-y="256"  />

      
      <glyph glyph-name="uni51" unicode="&#x51;" d="M118 91Q118 67 114.50 50.50Q111 34 103 24L111 9L95-8L86 9Q82 6 76 4.50Q70 3 63 3Q37 3 22 23.50Q7 44 7 91Q7 138 22 158Q37 178 63 178Q89 178 103.50 158Q118 138 118 91M94 91Q94 133 85 146Q76 159 63 159Q50 159 40.50 146Q31 133 31 91Q31 49 40.50 35.50Q50 22 63 22Q68 22 72 23.50Q76 25 78 27L62 58L76 75L90 48Q92 58 93 66Q94 74 94 91Z"  horiz-adv-x="128" vert-adv-y="256"  />

      
      <glyph glyph-name="uni52" unicode="&#x52;" d="M120 5L96 5L60 79L34 79L34 5L11 5L11 176L61 176Q85 176 100 164.50Q115 153 115 127Q115 107 105 96Q95 85 82 82L120 5M92 127Q92 141 83.50 149Q75 157 56 157L34 157L34 98L62 98Q74 98 83 104.50Q92 111 92 127Z"  horiz-adv-x="128" vert-adv-y="256"  />

      
      <glyph glyph-name="uni64" unicode="&#x64;" d="M110 5L90 5L90 20Q84 11 76 7Q68 3 57 3Q37 3 23 17.50Q9 32 9 61Q9 90 23 105Q37 120 57 120Q68 120 76 115.50Q84 111 90 102L90 176L110 176L110 5M90 61Q90 80 81.50 91Q73 102 61 102Q46 102 38.50 91Q31 80 31 61Q31 42 38.50 31.50Q46 21 61 21Q73 21 81.50 31.50Q90 42 90 61Z"  horiz-adv-x="128" vert-adv-y="256"  />

      
      <glyph glyph-name="uni65" unicode="&#x65;" d="M114 43Q112 25 98 14Q84 3 65 3Q41 3 25.50 18.50Q10 34 10 61Q10 88 25.50 103.50Q41 119 65 119Q86 119 99.50 105.50Q113 92 113 61L32 61Q32 39 41.50 30Q51 21 65 21Q76 21 83 26.50Q90 32 92 43L114 43M90 77Q88 91 81 96.50Q74 102 63 102Q53 102 45 96.50Q37 91 33 77L90 77Z"  horiz-adv-x="128" vert-adv-y="256"  />

      
      <glyph glyph-name="uni67" unicode="&#x67;" d="M119 100Q112 102 105.50 102.50Q99 103 92 101Q95 98 97 93.50Q99 89 99 80Q99 63 87.50 52Q76 41 59 41Q55 41 48.50 42.50Q42 44 38 46Q35 44 34 42Q33 40 33 37Q33 32 40 29.50Q47 27 65 27Q94 27 104.50 19Q115 11 115-1Q115-17 99.50-24.50Q84-32 63-32Q36-32 23-25Q10-18 10-6Q10 0 15 6Q20 12 28 16Q22 19 18.50 23.50Q15 28 15 35Q15 41 19.50 45.50Q24 50 30 53Q25 58 22 65Q19 72 19 80Q19 97 30.50 108Q42 119 59 119Q68 119 74.50 116.50Q81 114 86 109Q94 115 102 117.50Q110 120 119 119L119 100M79 80Q79 90 74 96Q69 102 59 102Q49 102 44 96Q39 90 39 80Q39 70 44 64Q49 58 59 58Q69 58 74 64Q79 70 79 80M96-3Q96 1 91.50 5Q87 9 69 9Q65 9 58 9.50Q51 10 42 11Q34 8 31 4Q28 0 28-4Q28-10 36-14Q44-18 64-18Q81-18 88.50-13.50Q96-9 96-3Z"  horiz-adv-x="128" vert-adv-y="256"  />

      
      <glyph glyph-name="uni68" unicode="&#x68;" d="M112 5L92 5L92 77Q92 89 86 96Q80 103 70 103Q57 103 45.50 89.50Q34 76 34 56L34 5L14 5L14 176L34 176L34 96Q42 107 51.50 113Q61 119 76 119Q94 119 103 109Q112 99 112 84L112 5Z"  horiz-adv-x="128" vert-adv-y="256"  />

      
      <glyph glyph-name="uni69" unicode="&#x69;" d="M72 5L52 5L52 117L72 117L72 5M76.50 163Q76.50 163 76.75 159Q77 155 70 151Q63 147 56 150.50Q49 154 48.50 162Q48 170 55 174Q62 178 69 174.50Q76 171 76.50 163Z"  horiz-adv-x="128" vert-adv-y="256"  />

      
      <glyph glyph-name="uni6c" unicode="&#x6c;" d="M73 5L53 5L53 176L73 176L73 5Z"  horiz-adv-x="128" vert-adv-y="256"  />

      
      <glyph glyph-name="uni6d" unicode="&#x6d;" d="M122 5L102 5L102 86Q102 92 100 96Q98 100 92 100Q85 100 79 92.50Q73 85 73 73L73 5L53 5L53 86Q53 92 51 96Q49 100 43 100Q36 100 30 92.50Q24 85 24 73L24 5L4 5L4 117L24 117L24 102Q29 110 36 114.50Q43 119 51 119Q59 119 64.50 114.50Q70 110 72 102Q77 110 83.50 114.50Q90 119 98 119Q110 119 116 112.50Q122 106 122 94L122 5Z"  horiz-adv-x="128" vert-adv-y="256"  />

      
      <glyph glyph-name="uni6e" unicode="&#x6e;" d="M112 5L92 5L92 77Q92 89 86 96Q80 103 70 103Q57 103 45.50 89.50Q34 76 34 56L34 5L14 5L14 117L34 117L34 96Q42 107 51.50 113Q61 119 76 119Q94 119 103 109Q112 99 112 84L112 5Z"  horiz-adv-x="128" vert-adv-y="256"  />

      
      <glyph glyph-name="uni6f" unicode="&#x6f;" d="M117 61Q117 35 101 19Q85 3 63 3Q41 3 25 19Q9 35 9 61Q9 87 25 103Q41 119 63 119Q85 119 101 103Q117 87 117 61M95 61Q95 81 85 91Q75 101 63 101Q51 101 41 91Q31 81 31 61Q31 41 41 31Q51 21 63 21Q75 21 85 31Q95 41 95 61Z"  horiz-adv-x="128" vert-adv-y="256"  />

      
      <glyph glyph-name="uni70" unicode="&#x70;" d="M113 61Q113 32 99 17Q85 2 65 2Q54 2 46 6.50Q38 11 32 20L32-32L12-32L12 117L32 117L32 102Q38 111 46 115Q54 119 65 119Q85 119 99 104.50Q113 90 113 61M91 61Q91 80 83.50 90.50Q76 101 61 101Q49 101 40.50 90.50Q32 80 32 61Q32 42 40.50 31Q49 20 61 20Q76 20 83.50 31Q91 42 91 61Z"  horiz-adv-x="128" vert-adv-y="256"  />

      
      <glyph glyph-name="uni71" unicode="&#x71;" d="M110-32L90-32L90 20Q84 11 76 6.50Q68 2 57 2Q37 2 23 17Q9 32 9 61Q9 90 23 104.50Q37 119 57 119Q68 119 76 115Q84 111 90 102L90 117L110 117L110-32M90 61Q90 80 81.50 90.50Q73 101 61 101Q46 101 38.50 90.50Q31 80 31 61Q31 42 38.50 31Q46 20 61 20Q73 20 81.50 31Q90 42 90 61Z"  horiz-adv-x="128" vert-adv-y="256"  />

      
      <glyph glyph-name="uni72" unicode="&#x72;" d="M100 97Q81 100 68 91.50Q55 83 46 62L46 5L26 5L26 117L46 117L46 88Q55 104 68.50 111.50Q82 119 100 119L100 97Z"  horiz-adv-x="128" vert-adv-y="256"  />

      
      <glyph glyph-name="uni73" unicode="&#x73;" d="M110 36Q110 20 97.50 11.50Q85 3 66 3Q42 3 29 12.50Q16 22 16 40L36 40Q36 28 44.50 24Q53 20 65 20Q77 20 83 24.50Q89 29 89 36Q89 41 84 46Q79 51 59 54Q36 57 27.50 65.50Q19 74 19 88Q19 100 30.50 109.50Q42 119 64 119Q84 119 95.50 110Q107 101 107 86L87 86Q87 95 80.50 98.50Q74 102 64 102Q51 102 45.50 97.50Q40 93 40 87Q40 80 45 76Q50 72 66 70Q92 66 101 57.50Q110 49 110 36Z"  horiz-adv-x="128" vert-adv-y="256"  />

      
      <glyph glyph-name="uni74" unicode="&#x74;" d="M110 8Q105 6 98.50 4.50Q92 3 81 3Q63 3 52 13Q41 23 41 41L41 101L7 101L7 117L41 117L41 156L61 156L61 117L102 117L102 101L61 101L61 40Q61 32 65 26.50Q69 21 80 21Q91 21 98 23Q105 25 110 28L110 8Z"  horiz-adv-x="128" vert-adv-y="256"  />

      
      <glyph glyph-name="uni76" unicode="&#x76;" d="M115 117L73 3L51 3L9 117L30 117L61 30L63 30L94 117L115 117Z"  horiz-adv-x="128" vert-adv-y="256"  />

      
      <glyph glyph-name="uni79" unicode="&#x79;" d="M116 117L70-4Q66-18 58-25Q50-32 38-32Q33-32 28.50-31.50Q24-31 20-29L20-9Q24-11 28-12Q32-13 35-13Q43-13 46-10.50Q49-8 52 1L8 117L30 117L62 29L63 29L94 117L116 117Z"  horiz-adv-x="128" vert-adv-y="256"  />

      
      <glyph glyph-name="uni3001" unicode="&#x3001;" d="M28 47L29 50Q52 45 64.50 37.50Q77 30 82.50 24Q88 18 89.50 8Q91-2 83.50-8Q76-14 67 7.50Q58 29 28 47Z"  horiz-adv-x="256" vert-adv-y="256"  />

      
      <glyph glyph-name="uni3002" unicode="&#x3002;" d="M91 39Q91 39 93 33.50Q95 28 92 17.50Q89 7 81 1.50Q73-4 62-4Q51-4 42 5Q33 14 33 24.50Q33 35 38 43Q43 51 53.50 55Q64 59 75.50 54.50Q87 50 91 39M73 11Q73 11 77.50 14Q82 17 81.50 27.50Q81 38 71.50 43Q62 48 53.50 42Q45 36 45 26Q45 16 54.50 10.50Q64 5 73 11Z"  horiz-adv-x="256" vert-adv-y="256"  />

      
      <glyph glyph-name="uni300A" unicode="&#x300A;" d="M185 214L198 209L143 92L198-22L185-27L127 93L185 214M225 214L238 209L182 92L238-22L225-27L166 93L225 214Z"  horiz-adv-x="256" vert-adv-y="256"  />

      
      <glyph glyph-name="uni300B" unicode="&#x300B;" d="M30 214L86 92L30-27L17-22L72 93L17 209L30 214M69 214L127 92L69-27L56-22L113 93L56 209L69 214Z"  horiz-adv-x="256" vert-adv-y="256"  />

      
      <glyph glyph-name="uniFF01" unicode="&#xFF01;" d="M63 182L93 182L86 62L70 62L63 182M86.50 31.50Q86.50 31.50 90.75 28.75Q95 26 95 17Q95 8 87 3Q79-2 70.50 2.50Q62 7 61 16.50Q60 26 69 31.50Q78 37 86.50 31.50Z"  horiz-adv-x="256" vert-adv-y="256"  />

      
      <glyph glyph-name="uniFF0C" unicode="&#xFF0C;" d="M55 0Q46 0 42 3Q38 6 36.50 11Q35 16 36 20.50Q37 25 43 29.50Q49 34 58 32Q67 30 70 22Q73 14 69 1.50Q65-11 54.50-22.50Q44-34 36-35Q28-36 34-31.50Q40-27 45.50-20Q51-13 55 0Z"  horiz-adv-x="256" vert-adv-y="256"  />

      
      <glyph glyph-name="uniFF1A" unicode="&#xFF1A;" d="M81 91.50Q81 91.50 81 86.25Q81 81 70.50 76.50Q60 72 52 77.50Q44 83 44.50 92.50Q45 102 54 106.50Q63 111 72 106.50Q81 102 81 91.50M81 16.50Q81 16.50 81 11.25Q81 6 70.50 1.50Q60-3 52 2.50Q44 8 44.50 17.50Q45 27 54 31.50Q63 36 72 31.50Q81 27 81 16.50Z"  horiz-adv-x="256" vert-adv-y="256"  />

      
      <glyph glyph-name="uniFF1F" unicode="&#xFF1F;" d="M80 184Q106 187 122 157Q132 123 95 89Q83 71 83 50L65 50Q64 87 98 120Q106 132 105 146Q99 166 82 165L78 165Q57 164 58 134L39 134Q38 171 64 180Q68 183 80 184M61 29L89 29L89 0L61 0L61 29Z"  horiz-adv-x="256" vert-adv-y="256"  />

      
      <glyph glyph-name="uni4E00" unicode="&#x4E00;" d="M27 83Q14 93 24.50 92Q35 91 64.50 93.50Q94 96 127 101Q160 106 186 110.50Q212 115 227 107.50Q242 100 240.50 95Q239 90 226.50 91Q214 92 189 92Q164 92 135.50 89.50Q107 87 87.50 83.50Q68 80 54.50 77Q41 74 27 83Z"  horiz-adv-x="256" vert-adv-y="256"  />

      
      <glyph glyph-name="uni4E07" unicode="&#x4E07;" d="M123 168Q182 176 198 179Q214 182 224 174.50Q234 167 232 164.50Q230 162 217 162Q205 162 181.50 161Q158 160 124 155Q135 146 133 143Q131 140 122 115Q127 113 143 115Q159 117 164.50 119.50Q170 122 178 118Q186 114 191 109Q196 104 190 98Q184 92 181 74.50Q178 57 169.50 33Q161 9 145.50-2Q130-13 129-2Q128 9 115.50 21Q103 33 119 26Q135 19 141.50 22Q148 25 154.50 41.50Q161 58 165.50 75.50Q170 93 168 101Q166 109 156 107.50Q146 106 138 103.50Q130 101 119 108Q109 86 99.50 70.50Q90 55 79.50 43.50Q69 32 56.50 23.50Q44 15 31.50 10Q19 5 37.50 20Q56 35 72 55.50Q88 76 98 97.50Q108 119 111.50 134Q115 149 111 153Q66 147 53 144.50Q40 142 32.50 146.50Q25 151 23 154.50Q21 158 26.50 157.50Q32 157 56.50 159Q81 161 123 168Z"  horiz-adv-x="256" vert-adv-y="256"  />

      
      <glyph glyph-name="uni4E09" unicode="&#x4E09;" d="M18 14Q6 21 13 22Q20 23 46.50 25.50Q73 28 91 30Q109 32 128.50 34Q148 36 170 39Q192 42 209.50 43Q227 44 237 34.50Q247 25 243 22Q239 19 221.50 22Q204 25 181 25Q159 25 131.50 23Q104 21 76 16.50Q48 12 39 9.50Q30 7 18 14M107 147Q86 145 71.50 152.50Q57 160 75.50 161Q94 162 118 165.50Q142 169 153.50 171.50Q165 174 173.50 173Q182 172 188.50 167Q195 162 184 159Q173 156 150.50 153Q128 150 107 147M107 85Q91 83 76.50 89Q62 95 76 95.50Q90 96 108.50 99Q127 102 138.50 104Q150 106 161 106Q172 106 178.50 100.50Q185 95 173 92.50Q161 90 153 90Q145 90 134.50 88.50Q124 87 107 85Z"  horiz-adv-x="256" vert-adv-y="256"  />

      
      <glyph glyph-name="uni4E0A" unicode="&#x4E0A;" d="M134 115Q149 118 158.50 120.50Q168 123 178 126Q188 129 198 125Q208 121 196 116Q184 111 165.50 109Q147 107 134 107Q133 86 132 27Q162 30 179 31.50Q196 33 205.50 34.50Q215 36 225 33.50Q235 31 241.50 22.50Q248 14 221.50 16Q195 18 172.50 17.50Q150 17 122 14.50Q94 12 70.50 9Q47 6 40 4.50Q33 3 22.50 11Q12 19 23 19Q34 19 60 21Q86 23 120 26L120 134Q120 178 113 189Q106 200 124 193Q142 186 139.50 179.50Q137 173 135.50 155.50Q134 138 134 115Z"  horiz-adv-x="256" vert-adv-y="256"  />

      
      <glyph glyph-name="uni4E0B" unicode="&#x4E0B;" d="M130 161Q139 149 136.50 145.50Q134 142 134 111Q159 111 174.50 106Q190 101 192.50 87Q195 73 171.50 85.50Q148 98 134 106Q135 28 132 3.50Q129-21 125-21Q122-21 117-10.50Q112 0 114 8Q116 16 118 26Q120 36 121 93Q122 150 113 159Q62 151 50 148.50Q38 146 28 154.50Q18 163 28.50 162.50Q39 162 68.50 165Q98 168 128.50 172.50Q159 177 188 181.50Q217 186 227 178Q237 170 234 167Q231 164 213.50 165Q196 166 180 165Q164 164 130 161Z"  horiz-adv-x="256" vert-adv-y="256"  />

      
      <glyph glyph-name="uni4E0D" unicode="&#x4E0D;" d="M146 163Q159 151 154 146.50Q149 142 131 117Q132 71 132.50 47.50Q133 24 130.50 3Q128-18 120-3.50Q112 11 115.50 23Q119 35 119 51L119 100Q93 67 70.50 49.50Q48 32 30.50 25Q13 18 32 31.50Q51 45 73.50 68Q96 91 114 119Q113 130 109.50 136Q106 142 112.50 140.50Q119 139 126 134Q139 156 137 163Q77 154 64 151Q51 148 40.50 156Q30 164 42 164.50Q54 165 65.50 166Q77 167 124.50 172.50Q172 178 185.50 181.50Q199 185 208 181.50Q217 178 222 172.50Q227 167 212 167Q198 167 183 166.50Q168 166 146 163M161 88Q147 102 175.50 90.50Q204 79 217 68.50Q230 58 229.50 43Q229 28 218 37.50Q207 47 191 61Q175 75 161 88Z"  horiz-adv-x="256" vert-adv-y="256"  />

      
      <glyph glyph-name="uni4E0E" unicode="&#x4E0E;" d="M107 147Q144 152 165 160Q186 168 194.50 162Q203 156 186.50 151Q170 146 144 141Q118 136 106 142Q102 123 96 94Q168 105 179.50 109.50Q191 114 198 111Q205 108 212.50 103Q220 98 214.50 89.50Q209 81 208.50 63Q208 45 203 21.50Q198-2 184-14Q170-26 167.50-17.50Q165-9 152 2Q139 13 148 10Q157 7 167 5Q177 3 183.50 13.50Q190 24 193 60Q196 96 187 97Q178 98 138 92Q98 86 89 81Q80 76 77.50 85.50Q75 95 81 101Q87 107 91 129.50Q95 152 96.50 169.50Q98 187 94 195Q90 203 98 201.50Q106 200 113 195.50Q120 191 116 185.50Q112 180 107 147M153 48Q142 48 119.50 46Q97 44 78.50 41Q60 38 51 37Q42 36 32.50 43Q23 50 37 50Q52 50 84 53.50Q116 57 135 61.50Q154 66 163.50 60Q173 54 168.50 51.50Q164 49 153 48Z"  horiz-adv-x="256" vert-adv-y="256"  />

      
      <glyph glyph-name="uni4E13" unicode="&#x4E13;" d="M131 156Q152 159 164 162Q176 165 184.50 160Q193 155 175.50 151Q158 147 129 143Q126 133 122 111Q152 114 170.50 116.50Q189 119 199 120.50Q209 122 217 119.50Q225 117 229 109.50Q233 102 210.50 105Q188 108 120 101Q113 81 111.50 75Q110 69 120 70.50Q130 72 142 74.50Q154 77 160.50 80Q167 83 174 78Q181 73 186 66.50Q191 60 184.50 58Q178 56 164.50 44.50Q151 33 134 17Q146 9 150-0.50Q154-10 150.50-19.50Q147-29 133-12Q119 5 109.50 14.50Q100 24 91 32Q82 40 96 36.50Q110 33 129 21Q135 28 144 39.50Q153 51 157.50 59.50Q162 68 150 67Q138 66 123 63Q108 60 102.50 54Q97 48 91.50 56.50Q86 65 93 69.50Q100 74 106 100Q60 96 49 93.50Q38 91 29.50 96.50Q21 102 22.50 103.50Q24 105 34 105Q44 105 62 106Q80 107 108 110Q110 119 114 142Q104 140 94 140Q85 140 77 145Q69 150 80 150Q91 150 116 154Q122 191 117 200Q112 209 120.50 207Q129 205 137.50 200.50Q146 196 141 190.50Q136 185 131 156Z"  horiz-adv-x="256" vert-adv-y="256"  />

      
      <glyph glyph-name="uni4E16" unicode="&#x4E16;" d="M179 119Q203 122 217.50 124.50Q232 127 242 118.50Q252 110 230 110Q208 110 178 107Q175 83 174 68Q186 58 171.50 57.50Q157 57 128 53Q126 46 122.50 43.50Q119 41 118 55.50Q117 70 116 99Q97 97 80 95Q80 57 81 17Q116 20 141.50 24Q167 28 181.50 30.50Q196 33 204.50 27Q213 21 212 16Q211 11 194 12.50Q177 14 146.50 11.50Q116 9 100 7Q84 5 78.50 1Q73-3 69.50 3Q66 9 67.50 15.50Q69 22 69 33Q69 45 67 93Q42 89 33.50 87.50Q25 86 16 93Q7 100 13 101Q19 102 26.50 101.50Q34 101 66 104Q64 141 58.50 147.50Q53 154 60.50 153.50Q68 153 76 149.50Q84 146 82 139Q80 132 80 107Q95 109 114 111Q113 161 107 170Q101 179 110 178Q119 177 126.50 173Q134 169 131 161.50Q128 154 128 113L165 117Q170 174 165 183.50Q160 193 167 192.50Q174 192 183.50 186.50Q193 181 190 177Q187 173 185 159Q183 145 179 119M127 62Q155 68 162 67Q163 85 164 106Q139 103 128 101Q128 84 127 62Z"  horiz-adv-x="256" vert-adv-y="256"  />

      
      <glyph glyph-name="uni4E1A" unicode="&#x4E1A;" d="M140 28Q142 86 142 127Q142 168 136 179.50Q130 191 138.50 189Q147 187 156 181.50Q165 176 161 170.50Q157 165 155.50 138Q154 111 153 67Q179 98 184 111Q189 124 188.50 130.50Q188 137 202.50 126.50Q217 116 211.50 113Q206 110 188 91Q170 72 153 58Q152 37 152 29Q181 32 201.50 34Q222 36 231 28Q240 20 237.50 16.50Q235 13 219.50 15.50Q204 18 180 18.50Q156 19 107.50 13.50Q59 8 49.50 5.50Q40 3 31 9.50Q22 16 23 17.50Q24 19 33.50 18.50Q43 18 59 19Q75 20 99 23Q99 57 98.50 100.50Q98 144 91 157Q84 170 93 168Q102 166 110.50 161Q119 156 116 150.50Q113 145 112 135.50Q111 126 110 24Q126 27 140 28M58 83Q49 98 46 108.50Q43 119 56 111Q69 103 76.50 93Q84 83 81 71Q78 59 72.50 64Q67 69 58 83Z"  horiz-adv-x="256" vert-adv-y="256"  />

      
      <glyph glyph-name="uni4E2A" unicode="&#x4E2A;" d="M127 177Q162 140 176 128Q190 116 205 107.50Q220 99 238 93.50Q256 88 241.50 85.50Q227 83 209 84Q191 85 184 94Q177 103 163 121.50Q149 140 123 171Q110 147 97.50 129.50Q85 112 67 93Q49 74 27 63Q5 52 23.50 67Q42 82 59 101.50Q76 121 88 139.50Q100 158 106 174.50Q112 191 109.50 199Q107 207 115.50 204Q124 201 131 195.50Q138 190 134.50 186.50Q131 183 127 177M129 115Q137 112 133.50 106Q130 100 131 51Q132 2 128.50-14Q125-30 118.50-17.50Q112-5 113.50 2.50Q115 10 117 34Q119 58 116.50 83Q114 108 108.50 114.50Q103 121 112.50 120Q122 119 129 115Z"  horiz-adv-x="256" vert-adv-y="256"  />

      
      <glyph glyph-name="uni4E2D" unicode="&#x4E2D;" d="M134 146Q171 152 179.50 156.50Q188 161 195 157Q202 153 210 147.50Q218 142 211 137Q204 132 193 99Q208 86 189 85Q170 84 133 80Q133 4 131-11.50Q129-27 125-28Q121-29 120-8.50Q119 12 119 79Q100 78 73 74Q72 64 70.50 61Q69 58 66.50 60Q64 62 62 72.50Q60 83 55.50 104Q51 125 45.50 133.50Q40 142 46 142Q52 142 58.50 140Q65 138 82.50 140Q100 142 119 145Q119 186 112.50 195Q106 204 116 202.50Q126 201 135 196.50Q144 192 139.50 186.50Q135 181 134 146M133 91Q155 93 181 97Q184 115 184.50 126Q185 137 182 141Q179 145 168 143.50Q157 142 134 139Q133 111 133 91M68 131Q70 107 73 83Q92 85 119 89L119 137Q82 133 68 131Z"  horiz-adv-x="256" vert-adv-y="256"  />

      
      <glyph glyph-name="uni4E3A" unicode="&#x4E3A;" d="M130 126Q173 134 180.50 138.50Q188 143 196.50 139.50Q205 136 212 131Q219 126 214.50 121Q210 116 208 102.50Q206 89 203.50 71Q201 53 193 28Q185 3 172-8Q159-19 156-9Q153 1 139 11.50Q125 22 138 18Q151 14 159.50 13Q168 12 174.50 25.50Q181 39 185 60.50Q189 82 190.50 104Q192 126 181.50 125.50Q171 125 126 117Q109 74 88.50 49.50Q68 25 44 14.50Q20 4 41.50 20Q63 36 79.50 58.50Q96 81 109 114Q75 107 66.50 105Q58 103 50 110.50Q42 118 55.50 117.50Q69 117 113 124Q121 146 125 166Q129 186 126 194.50Q123 203 131 201Q139 199 147 193.50Q155 188 149 180Q143 172 130 126M135 70Q131 75 127 81Q123 87 137.50 85Q152 83 158 74Q164 65 160.50 56.50Q157 48 148 56L135 70M72 168Q67 182 82 174.50Q97 167 99.50 156.50Q102 146 97.50 141.50Q93 137 85.50 146Q78 155 72 168Z"  horiz-adv-x="256" vert-adv-y="256"  />

      
      <glyph glyph-name="uni4E48" unicode="&#x4E48;" d="M174 40Q169 50 163 61Q157 72 169.50 65.50Q182 59 194 47.50Q206 36 208.50 24Q211 12 207 4Q203-4 195.50 5.50Q188 15 178 33Q147 28 113.50 19.50Q80 11 68 3.50Q56-4 54 9Q52 22 60.50 27Q69 32 81.50 43.50Q94 55 117 84Q140 113 150.50 130Q161 147 160.50 157Q160 167 168 161Q176 155 182 148Q188 141 181.50 136Q175 131 157.50 111Q140 91 119 67.50Q98 44 92 37Q86 30 93.50 30.50Q101 31 128.50 34Q156 37 174 40M111 179Q110 190 118.50 186Q127 182 132 176.50Q137 171 132 166.50Q127 162 111.50 142.50Q96 123 79.50 109Q63 95 50 89.50Q37 84 53.50 97.50Q70 111 91 139.50Q112 168 111 179Z"  horiz-adv-x="256" vert-adv-y="256"  />

      
      <glyph glyph-name="uni4E4B" unicode="&#x4E4B;" d="M65 44Q126 24 145.50 20Q165 16 184 14Q203 12 223 14Q243 16 243.50 12.50Q244 9 224.50 0.50Q205-8 191.50-10.50Q178-13 166-6.50Q154 0 117 14.50Q80 29 66.50 33Q53 37 45.50 35Q38 33 32 29Q26 25 18.50 34Q11 43 20.50 44.50Q30 46 40 46.50Q50 47 60.50 52Q71 57 101 84Q131 111 153 136Q123 129 97.50 121Q72 113 64 109.50Q56 106 44 114.50Q32 123 38 123Q45 123 61.50 125Q78 127 102 133.50Q126 140 141.50 144.50Q157 149 163.50 153.50Q170 158 184 148Q198 138 186 134Q174 130 161 119.50Q148 109 123 87.50Q98 66 65 44M102 174Q94 183 92 190Q90 197 105.50 192Q121 187 126 177.50Q131 168 128 161Q125 154 117.50 159.50Q110 165 102 174Z"  horiz-adv-x="256" vert-adv-y="256"  />

      
      <glyph glyph-name="uni4E5D" unicode="&#x4E5D;" d="M111 132Q137 140 143 145.50Q149 151 156.50 147.50Q164 144 171 138.50Q178 133 169.50 127Q161 121 155.50 104.50Q150 88 148.50 62Q147 36 158.50 28Q170 20 189.50 20.50Q209 21 218 26Q227 31 230.50 53.50Q234 76 234.50 54.50Q235 33 239 22Q243 11 231.50 7.50Q220 4 193.50 3.50Q167 3 154.50 11Q142 19 139 33.50Q136 48 139 73Q142 98 145 115.50Q148 133 144.50 133.50Q141 134 109 123Q103 95 92 72Q81 49 65 33Q49 17 30.50 9.50Q12 2 33.50 18Q55 34 70 59Q85 84 93 117Q70 109 61 105.50Q52 102 40.50 108.50Q29 115 43.50 116.50Q58 118 67 120Q76 122 96 128Q104 174 98 184Q92 194 101.50 192.50Q111 191 119.50 186.50Q128 182 123 176.50Q118 171 111 132Z"  horiz-adv-x="256" vert-adv-y="256"  />

      
      <glyph glyph-name="uni4E5F" unicode="&#x4E5F;" d="M123 126Q151 146 156 152Q161 158 168.50 156Q176 154 182.50 150.50Q189 147 183.50 141Q178 135 176 121.50Q174 108 172 92.50Q170 77 161 67.50Q152 58 149.50 66.50Q147 75 137 82Q127 89 135 87Q143 85 149 85.50Q155 86 158 99Q161 112 161.50 127Q162 142 152 135.50Q142 129 123 116Q123 86 122 73Q121 60 117 51Q113 42 111.50 55.50Q110 69 109 106Q94 97 79 86Q79 63 82 49Q85 35 93.50 28.50Q102 22 117.50 18.50Q133 15 173 18Q213 21 219 30Q225 39 228 58Q231 77 232 55.50Q233 34 239.50 25.50Q246 17 235 12Q224 7 207.50 3.50Q191 0 156 0Q121 0 101.50 6.50Q82 13 74.50 27.50Q67 42 67 79Q45 64 40.50 60Q36 56 24.50 60Q13 64 23 67Q33 70 67 90Q66 121 60.50 130Q55 139 63 137.50Q71 136 77.50 133.50Q84 131 81.50 125Q79 119 79 97Q94 106 109 118Q109 164 107.50 177.50Q106 191 101.50 197.50Q97 204 105 202.50Q113 201 121 198Q129 195 125 188Q121 181 123 126Z"  horiz-adv-x="256" vert-adv-y="256"  />

      
      <glyph glyph-name="uni4E60" unicode="&#x4E60;" d="M67 163Q59 170 67 170Q75 170 100 172.50Q125 175 140.50 178.50Q156 182 164.50 185Q173 188 178.50 185.50Q184 183 194 176.50Q204 170 200.50 166.50Q197 163 194.50 153.50Q192 144 191.50 123.50Q191 103 191 78Q191 54 186 31.50Q181 9 166.50-3.50Q152-16 149.50-4.50Q147 7 132.50 19Q118 31 126 28Q134 25 145.50 22Q157 19 163.50 25Q170 31 173.50 55.50Q177 80 177.50 117Q178 154 175.50 164.50Q173 175 138.50 169Q104 163 90 159.50Q76 156 67 163M48 44Q41 53 52.50 53.50Q64 54 88.50 66.50Q113 79 136.50 90.50Q160 102 144 89.50Q128 77 105 61.50Q82 46 75 38Q68 30 62 33Q56 36 48 44M83 126Q74 139 91.50 133.50Q109 128 113 120.50Q117 113 114 104.50Q111 96 101.50 105Q92 114 83 126Z"  horiz-adv-x="256" vert-adv-y="256"  />

      
      <glyph glyph-name="uni4E86" unicode="&#x4E86;" d="M135 123Q148 117 145 112.50Q142 108 141 94Q140 80 141.50 54Q143 28 142.50 15.50Q142 3 132-11Q122-25 116.50-14.50Q111-4 99 6Q87 16 98.50 12.50Q110 9 116.50 10Q123 11 124.50 19Q126 27 126.50 55.50Q127 84 125 100Q123 116 117.50 122.50Q112 129 117 128.50Q122 128 130 126Q156 151 165.50 163Q175 175 154.50 171.50Q134 168 109 163Q84 158 77 155Q70 152 62.50 155Q55 158 49.50 163.50Q44 169 55.50 168.50Q67 168 93 170.50Q119 173 142 177Q165 181 172 185Q179 189 188 182.50Q197 176 201 170Q205 164 196.50 162Q188 160 170.50 149Q153 138 135 123Z"  horiz-adv-x="256" vert-adv-y="256"  />

      
      <glyph glyph-name="uni4E8B" unicode="&#x4E8B;" d="M131 180Q151 182 177 185Q203 188 209.50 189Q216 190 225 181Q234 172 219.50 172.50Q205 173 182.50 172.50Q160 172 131 170L131 151Q158 154 166 157.50Q174 161 178.50 158.50Q183 156 189 152Q195 148 188.50 144.50Q182 141 177 131Q188 122 174 122Q160 122 131 119L131 102Q165 107 171 110.50Q177 114 183 111.50Q189 109 195 104.50Q201 100 197 97Q193 94 189 84Q198 85 208 87Q218 89 225 81.50Q232 74 218 74Q205 74 186 73Q183 63 182 58Q193 47 183 46.50Q173 46 131 42Q131 16 132 3Q133-10 124.50-20Q116-30 111.50-20.50Q107-11 93-2.50Q79 6 95 2Q111-2 114-0.50Q117 1 117.50 4Q118 7 118 40Q91 37 81.50 34.50Q72 32 62.50 38Q53 44 66 44Q79 44 118 50L118 66Q71 60 59.50 57.50Q48 55 38.50 61.50Q29 68 41 67.50Q53 67 72.50 69Q92 71 118 75L118 92Q95 88 87 86Q79 84 70.50 89.50Q62 95 74 95Q87 95 118 100L118 117Q106 116 83 113Q80 103 77 107.50Q74 112 71.50 125Q69 138 64.50 144Q60 150 65 150Q70 150 76.50 147.50Q83 145 118 150L118 168Q91 165 76 163Q61 161 50.50 159Q40 157 29.50 163.50Q19 170 32 170Q45 170 65.50 172Q86 174 118 178Q118 194 112.50 203Q107 212 116 210Q125 208 130.50 204.50Q136 201 133.50 196.50Q131 192 131 180M173 82Q174 89 174 94Q174 99 167 98.50Q160 98 131 94L131 76L173 82M81 140Q82 129 83 120Q104 122 118 124L118 143Q96 141 81 140M131 126Q150 128 166 130Q168 139 168.50 144.50Q169 150 161.50 149Q154 148 131 145L131 126M131 51Q158 54 169 56Q171 62 172 72Q151 70 131 68L131 51Z"  horiz-adv-x="256" vert-adv-y="256"  />

      
      <glyph glyph-name="uni4E8E" unicode="&#x4E8E;" d="M124 165Q142 157 138.50 150.50Q135 144 136 121Q192 128 202 129.50Q212 131 223.50 126Q235 121 235 115Q235 109 207 111.50Q179 114 137 110Q138 77 139 55Q140 33 139 17Q138 1 128.50-12Q119-25 113-15.50Q107-6 91 3Q75 12 97.50 8.50Q120 5 122 17.50Q124 30 124.50 51Q125 72 123 109Q85 102 70.50 99Q56 96 48.50 94.50Q41 93 31.50 100Q22 107 29 107Q37 107 62 110Q87 113 122 119Q122 144 116 164Q105 162 94.50 160Q84 158 75 164Q66 170 79.50 171Q93 172 123 177.50Q153 183 160.50 186Q168 189 178.50 182.50Q189 176 174 173Q159 170 124 165Z"  horiz-adv-x="256" vert-adv-y="256"  />

      
      <glyph glyph-name="uni4E92" unicode="&#x4E92;" d="M113 115Q103 88 99.50 80Q96 72 109.50 75Q123 78 131 80.50Q139 83 146 75.50Q153 68 139 68Q126 68 109 64.50Q92 61 84.50 56Q77 51 74.50 60.50Q72 70 78 73.50Q84 77 91 91.50Q98 106 105 129Q112 152 111 163Q90 160 81 160Q73 160 65.50 166Q58 172 74.50 172.50Q91 173 109.50 175Q128 177 144.50 180Q161 183 176 186.50Q191 190 200.50 183Q210 176 191.50 173Q173 170 124 164Q133 156 129.50 152Q126 148 116 121Q123 121 136.50 123Q150 125 156.50 128Q163 131 169.50 128Q176 125 181.50 121Q187 117 182.50 112.50Q178 108 173.50 97.50Q169 87 151 28Q197 31 211.50 32Q226 33 235.50 23.50Q245 14 236.50 13Q228 12 209 14.50Q190 17 149.50 15Q109 13 87.50 10.50Q66 8 52.50 6Q39 4 28 11.50Q17 19 25 19Q34 19 55.50 20Q77 21 137 27Q157 97 159.50 107.50Q162 118 150 116Q138 114 129.50 111.50Q121 109 113 115Z"  horiz-adv-x="256" vert-adv-y="256"  />

      
      <glyph glyph-name="uni4E94" unicode="&#x4E94;" d="M83 24Q88 36 103 86L80 81Q73 80 64.50 87Q56 94 68 93.50Q80 93 106 97Q117 143 114 153Q97 150 90.50 149.50Q84 149 75.50 156Q67 163 76 163Q85 163 102 165Q119 167 139.50 170.50Q160 174 172.50 177Q185 180 195 173.50Q205 167 191.50 164Q178 161 159.50 159Q141 157 126 154Q140 146 135.50 139Q131 132 122 99Q149 104 155.50 107.50Q162 111 169 108.50Q176 106 183.50 99.50Q191 93 185 87.50Q179 82 173 64Q167 46 163 30Q188 32 204.50 34Q221 36 231.50 32Q242 28 247 19.50Q252 11 227.50 14.50Q203 18 149.50 15.50Q96 13 77 9.50Q58 6 45 3.50Q32 1 22 9Q12 17 20 17Q29 17 41.50 18Q54 19 83 24M98 25Q111 26 149 29Q159 75 159 84Q159 94 149 93Q139 92 120 89Q113 69 98 25Z"  horiz-adv-x="256" vert-adv-y="256"  />

      
      <glyph glyph-name="uni4EB2" unicode="&#x4EB2;" d="M154 163Q176 153 168.50 146.50Q161 140 145 121Q196 127 205 128.50Q214 130 224 126.50Q234 123 235 117.50Q236 112 211 113.50Q186 115 127 109Q137 102 135.50 98Q134 94 134 83Q158 86 171 88Q184 90 193 88Q202 86 205 79.50Q208 73 197 73.50Q186 74 175 74Q164 74 134 71Q135 18 134.50 6Q134-6 126.50-16.50Q119-27 114.50-18Q110-9 97.50-1Q85 7 97 5.50Q109 4 115 4.50Q121 5 121 19L121 70Q91 65 79.50 62Q68 59 57.50 65.50Q47 72 57 72.50Q67 73 84 75Q101 77 120 81Q120 98 114 107Q66 98 53.50 95.50Q41 93 31 101Q21 109 32.50 108.50Q44 108 70.50 111Q97 114 137 120Q145 134 148.50 142.50Q152 151 151 162Q113 157 99.50 155Q86 153 75.50 158.50Q65 164 75.50 165Q86 166 110.50 169Q135 172 154 176.50Q173 181 181 180Q189 179 193 175Q197 171 186.50 168.50Q176 166 154 163M174 35Q166 45 161 52.50Q156 60 171 54.50Q186 49 197 40.50Q208 32 207 18Q206 4 194.50 14.50Q183 25 174 35M63 29Q73 39 77 48.50Q81 58 83 46.50Q85 35 77 20.50Q69 6 62 4Q55 2 54.50 11Q54 20 63 29M116 197Q108 206 120 205Q132 204 139 199.50Q146 195 145 185.50Q144 176 134.50 182Q125 188 116 197M89 142Q84 153 94.50 149.50Q105 146 108.50 139.50Q112 133 109 126Q106 119 100.50 125Q95 131 89 142Z"  horiz-adv-x="256" vert-adv-y="256"  />

      
      <glyph glyph-name="uni4EBA" unicode="&#x4EBA;" d="M116 119Q133 98 159 72.50Q185 47 201.50 37.50Q218 28 238 21.50Q258 15 237 12.50Q216 10 201.50 11.50Q187 13 179.50 23.50Q172 34 151 61.50Q130 89 113 114Q95 83 80 62.50Q65 42 50.50 30Q36 18 20 12Q4 6 22 19.50Q40 33 58 55Q76 77 90 104.50Q104 132 110 149.50Q116 167 112.50 178Q109 189 120 184Q131 179 137 174Q143 169 138 163.50Q133 158 127.50 145.50Q122 133 116 119Z"  horiz-adv-x="256" vert-adv-y="256"  />

      
      <glyph glyph-name="uni4EC0" unicode="&#x4EC0;" d="M172 114Q193 117 203 119Q213 121 221 122.50Q229 124 236.50 116.50Q244 109 228 109Q212 109 172 105Q172 39 170 7.50Q168-24 163-24.50Q158-25 158 4L158 102Q129 96 120.50 94Q112 92 101 99Q90 106 104 106Q118 106 158 113Q158 148 157.50 163.50Q157 179 152.50 188.50Q148 198 164.50 193Q181 188 176.50 179Q172 170 172 114M73 122Q83 111 82 94.50Q81 78 81 40Q81 2 76.50-4.50Q72-11 67.50 1Q63 13 66 20Q69 27 71 67.50Q73 108 67 115Q44 89 26.50 78Q9 67 26 84Q43 101 61 129.50Q79 158 83 169.50Q87 181 86 188.50Q85 196 98.50 187.50Q112 179 107.50 175Q103 171 92.50 154Q82 137 73 122Z"  horiz-adv-x="256" vert-adv-y="256"  />

      
      <glyph glyph-name="uni4EC5" unicode="&#x4EC5;" d="M164 72Q187 45 202.50 36Q218 27 235.50 22.50Q253 18 239 15.50Q225 13 209.50 12.50Q194 12 187.50 20Q181 28 156 60Q140 40 123 30Q106 20 90.50 19.50Q75 19 89 24Q103 29 119.50 41Q136 53 147 73Q133 94 124 105Q115 116 108 119Q101 122 111.50 123.50Q122 125 127 117.50Q132 110 137.50 103Q143 96 154 84Q166 108 171.50 128.50Q177 149 170 148.50Q163 148 150.50 144Q138 140 130 137.50Q122 135 113.50 141Q105 147 116 147Q127 147 145.50 152Q164 157 170.50 162Q177 167 183 165Q189 163 196 158Q203 153 197 148Q191 143 184.50 120.50Q178 98 164 72M66 125Q78 116 75.50 105Q73 94 73.50 59.50Q74 25 70 6Q66-13 59.50-1.50Q53 10 56 20.50Q59 31 60.50 45Q62 59 62 85Q62 111 60 119Q39 93 23 82.50Q7 72 20.50 87Q34 102 51 127Q68 152 73.50 169Q79 186 77.50 193.50Q76 201 84 197.50Q92 194 97.50 189Q103 184 99 180.50Q95 177 86.50 161Q78 145 66 125Z"  horiz-adv-x="256" vert-adv-y="256"  />

      
      <glyph glyph-name="uni4ECB" unicode="&#x4ECB;" d="M130 179Q165 146 192 126.50Q219 107 238 100.50Q257 94 244 91.50Q231 89 215 90Q199 91 192.50 99Q186 107 170.50 125Q155 143 126 173Q96 122 71.50 99Q47 76 24 66.50Q1 57 19.50 70.50Q38 84 58.50 105.50Q79 127 97 156.50Q115 186 113 197.50Q111 209 119 206Q127 203 134.50 196.50Q142 190 137.50 186.50Q133 183 130 179M155 116Q162 112 159 106.50Q156 101 156.50 72.50Q157 44 157.50 26.50Q158 9 156-12Q154-33 146-19Q138-5 141.50 8Q145 21 145.50 40.50Q146 60 144.50 83Q143 106 137 114.50Q131 123 140 121.50Q149 120 155 116M82 47Q92 65 93.50 82Q95 99 91 106Q87 113 94 111.50Q101 110 108 106.50Q115 103 112 99.50Q109 96 106.50 78.50Q104 61 93.50 42.50Q83 24 61.50 13.50Q40 3 56.50 16.50Q73 30 82 47Z"  horiz-adv-x="256" vert-adv-y="256"  />

      
      <glyph glyph-name="uni4ECE" unicode="&#x4ECE;" d="M154 102Q179 64 195.50 49Q212 34 232.50 26Q253 18 238 17Q223 16 207 16.50Q191 17 180.50 35Q170 53 152 93Q137 53 121 32.50Q105 12 86.50 2Q68-8 86.50 10Q105 28 119 55.50Q133 83 139.50 108Q146 133 148.50 151.50Q151 170 147.50 180.50Q144 191 152.50 188.50Q161 186 168 180.50Q175 175 171.50 169.50Q168 164 164 145Q160 126 154 102M76 97Q101 89 107.50 76.50Q114 64 109.50 54Q105 44 93.50 62Q82 80 74 93Q64 69 50 50Q36 31 22 22.50Q8 14 20.50 28.50Q33 43 45 64.50Q57 86 64.50 106.50Q72 127 76 146Q80 165 77 173Q74 181 82.50 178.50Q91 176 98 170.50Q105 165 100 158.50Q95 152 88.50 135Q82 118 76 97Z"  horiz-adv-x="256" vert-adv-y="256"  />

      
      <glyph glyph-name="uni4ED6" unicode="&#x4ED6;" d="M155 125Q179 141 182 145.50Q185 150 200 145.50Q215 141 211.50 136.50Q208 132 205 124Q202 116 198 98Q194 80 186 71Q178 62 176.50 70Q175 78 165.50 85Q156 92 167 89.50Q178 87 182 97Q186 107 187.50 119.50Q189 132 185.50 132.50Q182 133 174 128.50Q166 124 156 117Q157 80 154 63.50Q151 47 146 57.50Q141 68 143 77.50Q145 87 146 111Q133 103 121 96Q118 48 128.50 36Q139 24 169.50 26.50Q200 29 212.50 34Q225 39 229.50 61Q234 83 233.50 64.50Q233 46 240 32Q241 28 232.50 22.50Q224 17 206.50 14Q189 11 167 10.50Q145 10 131.50 16Q118 22 113.50 36Q109 50 110 91Q99 85 96 81.50Q93 78 85 83Q77 88 84 89.50Q91 91 110 100Q110 114 108.50 121.50Q107 129 104 135.50Q101 142 104 143Q107 144 116.50 139Q126 134 123.50 129.50Q121 125 121 106Q133 112 146 120Q146 159 144.50 170.50Q143 182 138.50 190Q134 198 140.50 197.50Q147 197 154.50 192.50Q162 188 159.50 183Q157 178 155 125M63 124Q79 115 77 106.50Q75 98 74.50 78.50Q74 59 73.50 29.50Q73 0 69-5Q65-10 60 2Q55 14 58 24Q61 34 63 54.50Q65 75 64 94Q63 113 59 119Q50 103 39.50 92Q29 81 20 75Q11 69 17.50 77Q24 85 33.50 99.50Q43 114 55 137.50Q67 161 68.50 171Q70 181 68 187Q66 193 71.50 191.50Q77 190 85.50 184Q94 178 91.50 175Q89 172 86 167Q83 162 63 124Z"  horiz-adv-x="256" vert-adv-y="256"  />

      
      <glyph glyph-name="uni4ED8" unicode="&#x4ED8;" d="M183 123Q203 126 216.50 129.50Q230 133 237.50 126Q245 119 238.50 116.50Q232 114 220 114Q208 114 183 112Q183 74 185.50 43Q188 12 185 1.50Q182-9 176.50-16Q171-23 166.50-13.50Q162-4 149.50 7Q137 18 148.50 15Q160 12 166.50 11.50Q173 11 172.50 34Q172 57 171 111Q123 103 116 100.50Q109 98 98 105Q87 112 97.50 112.50Q108 113 128 115Q148 117 171 121Q171 153 168.50 169Q166 185 161 192.50Q156 200 167 197.50Q178 195 184.50 191.50Q191 188 187 181.50Q183 175 183 123M71 117Q85 110 83.50 95.50Q82 81 81 42Q81 13 78 1.50Q75-10 68.50 2Q62 14 65.50 23.50Q69 33 70.50 55.50Q72 78 71.50 92.50Q71 107 67 112Q55 96 45 84Q35 72 20 61Q5 50 20.50 67.50Q36 85 51.50 111Q67 137 75.50 156.50Q84 176 81.50 186.50Q79 197 96 186Q108 176 104 172Q100 168 90 151.50Q80 135 71 117M116 73Q105 93 117.50 88.50Q130 84 134.50 77Q139 70 137.50 60Q136 50 131 53Q126 56 116 73Z"  horiz-adv-x="256" vert-adv-y="256"  />

      
      <glyph glyph-name="uni4EE5" unicode="&#x4EE5;" d="M181 70Q211 53 220.50 45Q230 37 231.50 27Q233 17 229.50 11Q226 5 219 15Q212 25 205.50 34.50Q199 44 179 66Q159 38 140.50 24.50Q122 11 107.50 7.50Q93 4 93.50 6Q94 8 111.50 18Q129 28 148 49.50Q167 71 177.50 95Q188 119 191.50 139.50Q195 160 192 169Q189 178 192 178Q196 178 206 172.50Q216 167 215.50 163.50Q215 160 212 154Q209 148 202 120.50Q195 93 181 70M67 145Q75 141 72 134Q69 127 68.50 101Q68 75 68 68Q68 61 77 68Q86 75 106.50 93Q127 111 129.50 109.50Q132 108 117.50 92Q103 76 89 61.50Q75 47 67.50 34.50Q60 22 56 22Q52 22 47.50 29Q43 36 48 43Q53 50 56 64.50Q59 79 57 107.50Q55 136 50 143.50Q45 151 52.50 150Q60 149 67 145M122 147Q114 154 111 159Q108 164 123 162Q138 160 144 153Q150 146 148.50 137Q147 128 138.50 134Q130 140 122 147Z"  horiz-adv-x="256" vert-adv-y="256"  />

      
      <glyph glyph-name="uni4EEC" unicode="&#x4EEC;" d="M221 159Q228 155 224.50 147.50Q221 140 221 117Q221 95 224.50 53.50Q228 12 218.50-5Q209-22 203-10.50Q197 1 182.50 8.50Q168 16 182.50 14.50Q197 13 203 14Q209 15 209 53Q209 92 206.50 118.50Q204 145 200.50 150.50Q197 156 189 153.50Q181 151 172.50 147.50Q164 144 155 150.50Q146 157 158 157Q170 157 180.50 160.50Q191 164 195 166.50Q199 169 207 166.50Q215 164 221 159M65 126Q78 116 75 104Q72 92 72 51Q72 11 66.50-2Q61-15 56-1.50Q51 12 54 20Q57 28 59 51Q61 74 61 94Q61 114 58 116Q40 94 22.50 82Q5 70 19 85.50Q33 101 46.50 122.50Q60 144 68.50 164.50Q77 185 75.50 193Q74 201 82.50 197Q91 193 96.50 187Q102 181 97 177.50Q92 174 86 163.50Q80 153 65 126M118 139Q126 135 122 128Q118 121 118.50 82Q119 43 116.50 17.50Q114-8 107 6Q100 20 103.50 34Q107 48 107 89Q107 131 100.50 139Q94 147 102.50 145.50Q111 144 118 139M120 173Q132 172 138.50 167Q145 162 142.50 154Q140 146 132.50 150.50Q125 155 117 165Q109 175 120 173Z"  horiz-adv-x="256" vert-adv-y="256"  />

      
      <glyph glyph-name="uni4EF7" unicode="&#x4EF7;" d="M62 125Q76 112 73.50 105.50Q71 99 70.50 51Q70 3 65.50-5.50Q61-14 55.50-2Q50 10 53.50 18Q57 26 58 51Q59 76 59 91Q59 106 56 117Q38 94 21.50 84Q5 74 18 87.50Q31 101 43.50 119.50Q56 138 65.50 160Q75 182 73.50 189.50Q72 197 79 194Q86 191 92 186Q98 181 93 176.50Q88 172 79.50 155.50Q71 139 62 125M154 179Q178 153 190 142Q202 131 215 123Q228 115 240 111Q252 107 244 104.50Q236 102 219.50 103Q203 104 195 114Q187 124 179 136Q171 148 151 173Q133 138 118 118.50Q103 99 87 90.50Q71 82 86.50 97.50Q102 113 116 136.50Q130 160 135 176Q140 192 138 199Q136 206 143.50 204Q151 202 157.50 198Q164 194 160.50 190Q157 186 154 179M172 115Q183 110 180.50 102Q178 94 178.50 57Q179 20 178 4.50Q177-11 173.50-16Q170-21 165-10Q160 1 163 14.50Q166 28 165.50 66.50Q165 105 158.50 114Q152 123 172 115M129 107Q141 103 138.50 98.50Q136 94 134.50 72.50Q133 51 124 33.50Q115 16 99 8Q83 0 95 12Q107 24 113.50 38Q120 52 121.50 75Q123 98 117.50 105.50Q112 113 129 107Z"  horiz-adv-x="256" vert-adv-y="256"  />

      
      <glyph glyph-name="uni4F18" unicode="&#x4F18;" d="M147 122Q172 128 182 131.50Q192 135 202 128Q212 121 193 118Q174 115 146 110Q141 87 134 68.50Q127 50 115.50 35.50Q104 21 89.50 15Q75 9 82.50 16Q90 23 100 34Q110 45 119 65.50Q128 86 131 108L105 102Q97 100 89 106Q81 112 94.50 113Q108 114 133 120Q139 172 132.50 181.50Q126 191 134.50 189.50Q143 188 150.50 184Q158 180 154.50 174Q151 168 147 122M66 121Q79 111 77.50 103Q76 95 74.50 50Q73 5 69-1.50Q65-8 59.50 3Q54 14 58 24.50Q62 35 63.50 51Q65 67 65 85Q65 104 62 116Q55 106 43.50 94.50Q32 83 20.50 77.50Q9 72 16.50 79.50Q24 87 34 98.50Q44 110 55.50 128.50Q67 147 73.50 163.50Q80 180 79.50 188Q79 196 86 192.50Q93 189 97.50 184Q102 179 99.50 176.50Q97 174 88 159.50Q79 145 66 121M163 98Q165 95 163 87Q161 79 160 65.50Q159 52 160 38.50Q161 25 169.50 20.50Q178 16 188 16Q198 16 210 19Q222 22 226 43.50Q230 65 230.50 56Q231 47 232 38.50Q233 30 237 20.50Q241 11 220.50 5Q200-1 180.50 1.50Q161 4 155 15Q149 26 150.50 59Q152 92 147.50 100Q143 108 152 105Q161 102 163 98M190 153Q178 161 171.50 168Q165 175 183.50 172Q202 169 202 157Q202 145 190 153Z"  horiz-adv-x="256" vert-adv-y="256"  />

      
      <glyph glyph-name="uni4F1A" unicode="&#x4F1A;" d="M109 63Q124 50 116.50 45Q109 40 101 32Q93 24 85.50 16Q78 8 87.50 9Q97 10 114 11.50Q131 13 156 15Q146 33 141.50 40.50Q137 48 145 45Q153 42 165.50 32.50Q178 23 181 10Q184-3 181-10Q178-17 171-7.50Q164 2 159 9Q120 3 100-1.50Q80-6 70-10.50Q60-15 58.50-10Q57-5 57.50 0.50Q58 6 63.50 9Q69 12 84.50 30.50Q100 49 100 61Q82 58 72 56Q62 54 52 61Q42 68 54 68Q67 68 92 71Q117 74 140.50 78.50Q164 83 172 84Q180 85 187 79Q194 73 185 71.50Q176 70 161 68.50Q146 67 109 63M126 185Q144 166 164 146Q184 126 201 116Q218 106 235.50 100Q253 94 241 92Q229 90 211 90Q194 90 185.50 101Q177 112 161.50 130.50Q146 149 123 178Q107 153 93 135.50Q79 118 62 102.50Q45 87 23.50 77.50Q2 68 19 80.50Q36 93 54 110Q72 127 86 147Q100 167 106.50 181Q113 195 111.50 204Q110 213 125 203Q133 197 131 193.50Q129 190 126 185M115 114Q128 117 137 119.50Q146 122 152.50 115.50Q159 109 132.50 104Q106 99 99 99.50Q92 100 86.50 103.50Q81 107 91.50 109Q102 111 115 114Z"  horiz-adv-x="256" vert-adv-y="256"  />

      
      <glyph glyph-name="uni4F20" unicode="&#x4F20;" d="M169 152Q185 155 193.50 156Q202 157 209 151.50Q216 146 201 143.50Q186 141 165 138Q162 125 158 110Q198 115 211.50 118Q225 121 234.50 114Q244 107 229.50 106Q215 105 197 103.50Q179 102 155 98Q150 78 148.50 71.50Q147 65 151 65.50Q155 66 167.50 69Q180 72 184.50 76.50Q189 81 196 76.50Q203 72 208.50 66.50Q214 61 205.50 57Q197 53 171 14Q180 7 184 1Q188-5 185-13.50Q182-22 172.50-14.50Q163-7 153 1.50Q143 10 134.50 19Q126 28 134 27.50Q142 27 164 18Q178 46 180.50 55Q183 64 177 63Q171 62 159.50 58.50Q148 55 139.50 47.50Q131 40 126.50 48Q122 56 128.50 61Q135 66 143 97Q121 93 111 90.50Q101 88 91 94.50Q81 101 94 100.50Q107 100 146 108Q149 119 152 136Q142 134 132 134Q123 134 115.50 138Q108 142 120.50 143.50Q133 145 155 150Q157 163 157.50 176Q158 189 155.50 196.50Q153 204 161 202Q169 200 176 195.50Q183 191 179 184.50Q175 178 169 152M67 120Q80 107 78.50 94.50Q77 82 77 43Q75 2 71.50-5Q68-12 62.50 0.50Q57 13 60 22.50Q63 32 64.50 49.50Q66 67 66.50 87Q67 107 63 113Q53 101 43 90.50Q33 80 20 71Q7 62 25 82Q43 102 56 125Q69 148 74.50 162.50Q80 177 78.50 185Q77 193 84.50 190Q92 187 98 182Q104 177 100 174Q96 171 88 156.50Q80 142 67 120Z"  horiz-adv-x="256" vert-adv-y="256"  />

      
      <glyph glyph-name="uni4F5C" unicode="&#x4F5C;" d="M139 136Q145 135 162.50 139.50Q180 144 196.50 149.50Q213 155 223.50 152Q234 149 231 145Q228 141 201.50 135Q175 129 157 127Q170 119 168.50 114Q167 109 166 94Q182 97 193.50 100.50Q205 104 214.50 99Q224 94 203 89.50Q182 85 166 86L166 49Q184 53 196.50 56.50Q209 60 220 54Q231 48 209 44Q187 40 166 42Q166-6 161.50-19Q157-32 151.50-21Q146-10 149 1.50Q152 13 153 29.50Q154 46 154.50 80Q155 114 150 126Q140 124 135 130Q111 99 98 91Q85 83 97 97Q109 111 125.50 140.50Q142 170 146 182Q150 194 148.50 202Q147 210 158 203.50Q169 197 170.50 193.50Q172 190 169 188Q166 186 158 170.50Q150 155 139 136M72 128Q85 118 83.50 110.50Q82 103 82 80Q82 58 81.50 36Q81 14 78.50 3.50Q76-7 69 6Q62 19 65.50 29Q69 39 70.50 61Q72 83 72 97Q72 112 67 123Q57 110 46 98.50Q35 87 19.50 77.50Q4 68 18.50 82.50Q33 97 45.50 114.50Q58 132 65.50 145.50Q73 159 77.50 169.50Q82 180 80.50 185.50Q79 191 83 191.50Q87 192 96 184.50Q105 177 102.50 174.50Q100 172 97 168Q94 164 85 150Q76 136 72 128Z"  horiz-adv-x="256" vert-adv-y="256"  />

      
      <glyph glyph-name="uni4F60" unicode="&#x4F60;" d="M73 129Q85 118 82.50 111Q80 104 80 85Q80 67 79 41Q78 15 74 3.50Q70-8 64.50 5Q59 18 62.50 27Q66 36 67.50 54.50Q69 73 69 92Q69 112 67 120Q55 105 45.50 96.50Q36 88 23 80.50Q10 73 23.50 86.50Q37 100 49.50 117Q62 134 72 156Q82 178 80.50 189Q79 200 93 190Q107 180 103 176Q99 172 93.50 163Q88 154 73 129M154 125Q147 123 142.50 121.50Q138 120 131 126Q120 111 108 102.50Q96 94 104 105Q112 116 122.50 132.50Q133 149 139.50 167Q146 185 144 195Q142 205 157 197Q172 189 167 183.50Q162 178 156 167Q150 156 135 131Q141 131 155.50 134.50Q170 138 180 141.50Q190 145 195.50 148.50Q201 152 209 149Q217 146 226 139Q235 132 222 128Q209 124 196.50 110.50Q184 97 191 114.50Q198 132 197 134Q196 136 189.50 134.50Q183 133 162 128L154 125M152 112Q159 112 167 108Q175 104 172 98.50Q169 93 169 67Q169 42 170.50 24.50Q172 7 163-6Q154-19 149-9Q144 1 132 8.50Q120 16 131.50 14Q143 12 149 12.50Q155 13 155.50 33.50Q156 54 155 76Q154 98 150 105Q146 112 152 112M202 67Q224 59 228.50 49Q233 39 230 29.50Q227 20 215 33.50Q203 47 191.50 61Q180 75 202 67M115 74Q120 87 120.50 69Q121 51 111.50 34.50Q102 18 98.50 29Q95 40 102.50 51Q110 62 115 74Z"  horiz-adv-x="256" vert-adv-y="256"  />

      
      <glyph glyph-name="uni4F73" unicode="&#x4F73;" d="M166 108Q193 112 204.50 114.50Q216 117 222.50 115.50Q229 114 233 108.50Q237 103 231.50 102Q226 101 216 101Q207 101 194 100Q181 99 152 95Q170 89 168.50 83.50Q167 78 166 64Q174 65 182 67.50Q190 70 198 64.50Q206 59 196 56.50Q186 54 165 51L164 20Q202 25 212 27Q222 29 228.50 25.50Q235 22 239 16Q243 10 222.50 11.50Q202 13 183.50 11.50Q165 10 139.50 6Q114 2 107 0.50Q100-1 91 6.50Q82 14 93 13.50Q104 13 121 15Q138 17 152 19L152 49Q137 46 129.50 45.50Q122 45 115.50 50Q109 55 117 56Q125 57 152 61Q152 82 147 94Q129 90 119.50 88Q110 86 99.50 93Q89 100 103 100Q117 100 154 107L154 134Q137 131 131 130Q125 129 116 135Q107 141 119.50 141.50Q132 142 154 146Q154 161 153.50 174Q153 187 148.50 195Q144 203 153 201Q162 199 168 196Q174 193 171 185.50Q168 178 167 148Q178 150 188 153Q198 156 205.50 150Q213 144 204.50 142Q196 140 167 136L166 108M67 125Q71 121 75.50 116Q80 111 78.50 87.50Q77 64 77 35Q77 7 73.50-5.50Q70-18 64-5Q58 8 61 15.50Q64 23 65.50 46Q67 69 67 91Q67 114 62 118Q39 89 22.50 79Q6 69 17.50 81.50Q29 94 42 111.50Q55 129 68 152.50Q81 176 79 185.50Q77 195 85 191.50Q93 188 98 184Q103 180 100 177Q97 174 90 163Q83 152 67 125Z"  horiz-adv-x="256" vert-adv-y="256"  />

      
      <glyph glyph-name="uni4F7F" unicode="&#x4F7F;" d="M159 151Q178 155 188 158Q198 161 206 155.50Q214 150 202.50 147.50Q191 145 177.50 143Q164 141 159 140L158 121Q180 125 185.50 128.50Q191 132 199 128.50Q207 125 212.50 121Q218 117 211.50 112.50Q205 108 197 91Q206 84 198.50 83Q191 82 184 81.50Q177 81 157 79Q156 64 150 43Q172 27 191.50 18Q211 9 230.50 7.50Q250 6 240 1.50Q230-3 212-5.50Q194-8 183.50 0.50Q173 9 145 31Q133 15 118 7.50Q103 0 89-0.50Q75-1 87.50 3.50Q100 8 114 17.50Q128 27 135 40Q111 59 101 62.50Q91 66 98.50 67.50Q106 69 110.50 67Q115 65 139 50Q143 60 145 78Q132 76 124 75Q122 67 117.50 72.50Q113 78 109 90Q105 102 100.50 109Q96 116 101.50 115.50Q107 115 111.50 114.50Q116 114 124 115Q132 116 147 119L147 138Q130 135 127.50 134.50Q125 134 119 133Q113 132 105.50 136.50Q98 141 106 142Q114 143 147 149Q147 177 141 185Q135 193 143.50 192.50Q152 192 158.50 189Q165 186 162.50 180.50Q160 175 159 151M61 115Q77 106 74.50 95Q72 84 72 24Q69-9 65-13Q61-17 56.50-6Q52 5 55 16.50Q58 28 59.50 48Q61 68 60.50 87Q60 106 56 109Q40 85 22 72.50Q4 60 19 77Q34 94 50 121.50Q66 149 69 160.50Q72 172 70.50 179.50Q69 187 75.50 184.50Q82 182 90 176Q98 170 93.50 167Q89 164 79.50 146.50Q70 129 61 115M157 87Q168 88 188 91Q189 105 189 111Q189 118 183 117.50Q177 117 158 114L157 87M118 107Q120 93 123 82Q129 83 145 86L146 98L146 111Q127 108 118 107Z"  horiz-adv-x="256" vert-adv-y="256"  />

      
      <glyph glyph-name="uni4F8B" unicode="&#x4F8B;" d="M123 147Q135 138 131 133.50Q127 129 124 124Q121 119 117 112Q129 113 133 117Q137 121 144 118Q151 115 156 109.50Q161 104 156.50 100.50Q152 97 143.50 81Q135 65 119.50 44Q104 23 86 14.50Q68 6 83.50 20.50Q99 35 114 59Q108 64 103 71Q98 78 99 81.50Q100 85 108.50 81Q117 77 121 69Q129 83 132.50 92.50Q136 102 135 105Q134 108 126.50 105Q119 102 113 107Q101 90 88.50 81.50Q76 73 82.50 81Q89 89 95 97.50Q101 106 107.50 121Q114 136 114 146Q101 145 95 148.50Q89 152 111 156Q134 163 144 166.50Q154 170 160 165Q166 160 154 155Q142 150 123 147M218 182Q228 177 223 168Q218 159 218 120Q218 81 221 45Q224 9 216-7.50Q208-24 202.50-10.50Q197 3 185.50 11.50Q174 20 185.50 17.50Q197 15 201 15Q206 15 206.50 45.50Q207 76 207 122Q207 168 198.50 179.50Q190 191 199.50 189.50Q209 188 218 182M55 127Q67 119 66 107.50Q65 96 65.50 62.50Q66 29 62.50 9Q59-11 52 2Q45 15 49.50 28Q54 41 55 77.50Q56 114 51 122Q34 99 19 89.50Q4 80 19 97Q34 114 45.50 135.50Q57 157 60.50 169.50Q64 182 62 191Q60 200 76 191Q89 181 84 177Q79 173 71 156Q63 139 55 127M175 134Q188 127 185 122Q182 117 181.50 95.50Q181 74 178 65Q175 56 170 61.50Q165 67 167 75.50Q169 84 169.50 101.50Q170 119 164 129Q158 139 175 134Z"  horiz-adv-x="256" vert-adv-y="256"  />

      
      <glyph glyph-name="uni4F9D" unicode="&#x4F9D;" d="M171 80Q189 110 187 118.50Q185 127 192.50 124.50Q200 122 206.50 116Q213 110 205.50 105.50Q198 101 175 75Q184 64 198 51.50Q212 39 235.50 32.50Q259 26 239.50 23.50Q220 21 208 22Q196 23 183 42L160 77Q150 92 136 105Q127 93 122 87Q128 84 128 76Q128 68 127.50 43.50Q127 19 130 21L151 33Q169 43 152.50 27Q136 11 129.50 1.50Q123-8 120-11.50Q117-15 111.50-6Q106 3 109 8.50Q112 14 115.50 28Q119 42 118 59Q117 76 114 78Q109 72 99 64Q89 56 77.50 51.50Q66 47 79.50 58Q93 69 111.50 94Q130 119 135 134Q121 130 110.50 127.50Q100 125 90 130.50Q80 136 94.50 137.50Q109 139 139.50 146.50Q170 154 183 159Q196 164 204 157Q212 150 195 146Q178 142 148 137Q158 130 155 127L140 112Q148 107 155.50 98.50Q163 90 171 80M57 123Q66 118 68.50 113.50Q71 109 69.50 99Q68 89 68 72Q68 55 67 26Q66-3 62-7.50Q58-12 52-1.50Q46 9 49.50 20Q53 31 55 53.50Q57 76 57.50 93.50Q58 111 54 117Q36 94 18 82.50Q0 71 14 87Q28 103 38 117.50Q48 132 55 145.50Q62 159 65.50 168Q69 177 68.50 186Q68 195 74.50 192Q81 189 88 182Q95 175 91 172.50Q87 170 78 154Q69 138 57 123M148 198Q160 196 164.50 187Q169 178 166 172Q163 166 152.50 173.50Q142 181 133.50 190Q125 199 130.50 199.50Q136 200 148 198Z"  horiz-adv-x="256" vert-adv-y="256"  />

      
      <glyph glyph-name="uni4FE1" unicode="&#x4FE1;" d="M194 15Q209 4 193.50 3.50Q178 3 164.50 2Q151 1 136 0Q134-7 131-7Q129-7 126 7Q123 21 121 30Q119 39 115 44Q111 49 116 49Q122 49 127.50 47Q133 45 152 49.50Q171 54 177 57Q183 60 194 56.50Q205 53 209 48.50Q213 44 208 40.50Q203 37 194 15M65 124Q80 114 78 106.50Q76 99 75 65Q74 31 73.50 15.50Q73 0 69-9.50Q65-19 60-6Q55 7 58 14Q61 21 63 44.50Q65 68 65 90Q65 113 60 118Q50 104 40 92.50Q30 81 19 74Q8 67 21.50 82.50Q35 98 51 126.50Q67 155 71 168Q75 181 74 189Q73 197 81.50 192.50Q90 188 93.50 184.50Q97 181 93.50 177Q90 173 81.50 156.50Q73 140 65 124M148 142Q191 149 203.50 151.50Q216 154 225 151Q234 148 235.50 143Q237 138 225 138Q213 138 200 137Q187 136 172.50 134.50Q158 133 145 130.50Q132 128 127 127.50Q122 127 113 125.50Q104 124 95 131Q86 138 95.50 137Q105 136 148 142M133 39Q134 21 136 8Q170 11 182 13Q185 32 184.50 39Q184 46 175.50 45Q167 44 133 39M163 84Q186 90 193 85Q200 80 187.50 75.50Q175 71 156 69Q137 67 127.50 71.50Q118 76 129.50 77Q141 78 163 84M164 115Q185 120 190 116Q195 112 187 108.50Q179 105 162 101.50Q145 98 132 103Q119 108 131 109.50Q143 111 164 115M156 190Q165 189 172.50 184Q180 179 180 169Q180 159 169 164Q158 169 147 178.50Q136 188 141.50 189.50Q147 191 156 190Z"  horiz-adv-x="256" vert-adv-y="256"  />

      
      <glyph glyph-name="uni5019" unicode="&#x5019;" d="M139 135Q156 127 152 123.50Q148 120 137 101Q157 104 173 110Q189 116 197 111.50Q205 107 192 102.50Q179 98 158 95Q167 90 165.50 86Q164 82 162 72Q194 77 202.50 78.50Q211 80 218 78.50Q225 77 229 71Q233 65 220.50 65.50Q208 66 196 65Q184 64 161 62Q188 28 208 18Q228 8 239.50 4.50Q251 1 234.50-1Q218-3 207.50-1.50Q197 0 190 9.50Q183 19 159 54Q150 28 131.50 15.50Q113 3 97.50 0Q82-3 97.50 4Q113 11 127.50 25Q142 39 147 61Q126 58 119.50 56.50Q113 55 105.50 60.50Q98 66 108 66Q118 66 149 70Q151 86 148 94Q139 94 135 96Q120 80 112 76Q104 72 113 82.50Q122 93 129 110.50Q136 128 132 134Q118 130 113 129Q108 128 101 134Q94 140 101 140Q108 140 116 141Q124 142 163 148Q167 168 167 173Q167 178 155 175L137 170Q131 169 123.50 173.50Q116 178 127 178.50Q138 179 149.50 181.50Q161 184 166 188Q171 192 176 189.50Q181 187 188.50 182Q196 177 189.50 173.50Q183 170 175 150Q186 152 198 154.50Q210 157 215 155Q220 153 223.50 149Q227 145 218 144.50Q209 144 197 143Q185 142 139 135M59 125Q73 119 71 105Q69 91 68.50 62Q68 33 66.50 19Q65 5 62-2.50Q59-10 53.50 2Q48 14 52 25.50Q56 37 57 61.50Q58 86 58 99Q58 112 55 117Q52 110 41 95.50Q30 81 17.50 72Q5 63 17 78Q29 93 38 109Q47 125 54.50 142.50Q62 160 64.50 171.50Q67 183 64.50 190Q62 197 70.50 193.50Q79 190 84.50 185Q90 180 86 176Q82 172 76 158.50Q70 145 59 125M93 54Q91 45 86 53.50Q81 62 82.50 70Q84 78 84.50 97Q85 116 81 123Q77 130 83.50 128Q90 126 95 123Q100 120 98.50 114Q97 108 96.50 94Q96 80 95.50 72Q95 64 93 54Z"  horiz-adv-x="256" vert-adv-y="256"  />

      
      <glyph glyph-name="uni5065" unicode="&#x5065;" d="M170 158Q182 161 186 164Q190 167 195 166Q200 165 206 161.50Q212 158 208 154Q204 150 201 139Q208 141 216 143.50Q224 146 230 140.50Q236 135 228 133.50Q220 132 199 129L197 115Q206 108 198 106.50Q190 105 170 101L170 89Q180 91 186.50 93Q193 95 199 90Q205 85 193.50 83Q182 81 170 79L170 65Q183 68 190.50 70.50Q198 73 206 67.50Q214 62 199 60Q184 58 170 56Q170 30 167 22.50Q164 15 161.50 23Q159 31 159 54Q149 52 140 49.50Q131 47 124.50 52Q118 57 129 58Q140 59 159 63L159 77Q150 75 143 73.50Q136 72 130 76.50Q124 81 133 82Q142 83 159 87L159 99Q147 96 142.50 95.50Q138 95 132 99Q126 103 135 104Q144 105 159 108L159 121Q145 118 137 115.50Q129 113 122 118Q115 123 125 124Q135 125 159 130L159 148Q148 144 144 143Q140 142 134 146Q128 150 135.50 151Q143 152 158 156Q158 164 157 174Q156 184 151.50 191.50Q147 199 161 195Q175 192 172.50 185Q170 178 170 158M96 34Q86 37 81 37.50Q76 38 79 41Q82 44 86.50 44.50Q91 45 99 42Q106 64 105.50 72Q105 80 98 79.50Q91 79 90 81.50Q89 84 93.50 95.50Q98 107 100.50 119.50Q103 132 100.50 131Q98 130 92 128.50Q86 127 81 130Q76 133 82.50 134Q89 135 94 138.50Q99 142 101 145Q103 148 109.50 146Q116 144 120.50 140.50Q125 137 121 132.50Q117 128 112.50 119Q108 110 103.50 97.50Q99 85 103 85.50Q107 86 116 81Q125 76 122 71.50Q119 67 110 36Q153 19 175.50 14.50Q198 10 220 10Q243 10 247.50 8Q252 6 232-1Q212-8 198.50-8.50Q185-9 159.50 3Q134 15 107 29Q94 7 80.50-1.50Q67-10 76.50 1Q86 12 96 34M60 125Q73 115 71.50 100.50Q70 86 68.50 46Q67 6 62.50-2Q58-10 53.50 1Q49 12 53 25.50Q57 39 59.50 74Q62 109 56 119Q38 95 21 84Q4 73 18.50 89.50Q33 106 43 121Q53 136 62.50 157.50Q72 179 70 188Q68 197 76 193.50Q84 190 90 184Q96 178 91 174Q86 170 79 157.50Q72 145 60 125M189 136Q190 151 187.50 153Q185 155 170 151L170 132L189 136M170 110Q182 112 188 114L188 127Q178 125 170 124L170 110Z"  horiz-adv-x="256" vert-adv-y="256"  />

      
      <glyph glyph-name="uni5143" unicode="&#x5143;" d="M95 110Q78 106 67.50 103.50Q57 101 47 107.50Q37 114 49.50 115Q62 116 81 119.50Q100 123 122 128Q144 133 158.50 136.50Q173 140 180 140Q188 140 195 134Q202 128 187.50 126Q173 124 131 117Q147 110 142 103.50Q137 97 135 69Q133 41 139 28Q145 15 174 14.50Q203 14 214.50 19Q226 24 230.50 43.50Q235 63 235.50 61Q236 59 236.50 42Q237 25 240.50 18.50Q244 12 236.50 6Q229 0 196.50-2.50Q164-5 148.50 1Q133 7 128.50 19Q124 31 124.50 45Q125 59 126 81.50Q127 104 124 116Q116 114 106 112L112 106Q116 102 110.50 94Q105 86 93.50 66.50Q82 47 67 33.50Q52 20 38 13.50Q24 7 23.50 8.50Q23 10 35.50 19.50Q48 29 60 42.50Q72 56 83.50 76Q95 96 95 110M114 179Q129 182 144.50 185.50Q160 189 168 183.50Q176 178 162.50 174.50Q149 171 137 168.50Q125 166 112 164.50Q99 163 89.50 168.50Q80 174 90 175.50Q100 177 114 179Z"  horiz-adv-x="256" vert-adv-y="256"  />

      
      <glyph glyph-name="uni5148" unicode="&#x5148;" d="M89 139Q104 141 121 145Q121 164 120.50 178Q120 192 116.50 197Q113 202 114.50 204Q116 206 129.50 201Q143 196 139.50 188.50Q136 181 134 148Q144 150 156.50 154Q169 158 177.50 153Q186 148 169 143Q152 138 133 135Q132 119 132 106Q170 112 183 115.50Q196 119 205 111Q214 103 200 102Q186 101 141 96Q150 87 148 83.50Q146 80 143 56Q140 32 145.50 20Q151 8 180 8Q210 8 216.50 13.50Q223 19 226 40.50Q229 62 230.50 47Q232 32 233 25.50Q234 19 239 12.50Q244 6 231.50-0.50Q219-7 188.50-8Q158-9 144.50 1Q131 11 132.50 36.50Q134 62 134.50 75.50Q135 89 130 95Q116 93 110 92Q118 84 115.50 81Q113 78 100 56.50Q87 35 67 19Q47 3 30-2Q13-7 23-0.50Q33 6 48.50 17.50Q64 29 80 50Q96 71 97 91Q66 84 57 82Q48 80 38 87Q28 94 37 94Q46 94 65.50 96.50Q85 99 121 104L121 133Q103 130 98 129.50Q93 129 84 131Q72 115 61 108.50Q50 102 56.50 110Q63 118 69.50 130.50Q76 143 78 150.50Q80 158 78.50 165.50Q77 173 84.50 170.50Q92 168 98 162.50Q104 157 101 154.50Q98 152 89 139Z"  horiz-adv-x="256" vert-adv-y="256"  />

      
      <glyph glyph-name="uni514D" unicode="&#x514D;" d="M96 168Q122 172 129.50 177.50Q137 183 143.50 180.50Q150 178 157 173Q164 168 153 163Q142 158 118 131Q145 137 150 140.50Q155 144 163 141.50Q171 139 179.50 132Q188 125 179 120Q170 115 161 98Q169 89 160.50 88.50Q152 88 125 85Q137 78 134.50 72Q132 66 130 46Q128 26 134.50 16.50Q141 7 164.50 5.50Q188 4 203 7.50Q218 11 222 18.50Q226 26 229 41.50Q232 57 233 38Q234 19 239 12Q244 5 231-1.50Q218-8 187-9.50Q156-11 138.50-4Q121 3 120 22Q119 41 119.50 58.50Q120 76 117 83L110 82Q100 50 79 28Q58 6 37-2.50Q16-11 32.50 0.50Q49 12 66.50 31.50Q84 51 95 80L74 77Q72 67 68.50 70.50Q65 74 59.50 92.50Q54 111 48.50 116.50Q43 122 46 123Q49 124 57 123Q65 122 75.50 123Q86 124 109 129Q115 137 123 152Q131 167 127.50 166.50Q124 166 116 163L104 159Q100 158 93 162Q75 140 63.50 134.50Q52 129 62.50 140.50Q73 152 84 171.50Q95 191 92.50 199Q90 207 99 204Q108 201 113 197.50Q118 194 113 189Q108 184 96 168M116 123Q120 120 121.50 117Q123 114 120 108.50Q117 103 112 90Q127 93 149 96Q152 111 152 119Q152 127 149.50 127.50Q147 128 141.50 127.50Q136 127 116 123M67 115Q70 99 73 84L97 88Q100 96 102 105Q104 114 102 120Q85 118 67 115Z"  horiz-adv-x="256" vert-adv-y="256"  />

      
      <glyph glyph-name="uni516B" unicode="&#x516B;" d="M116 161Q125 159 127 153Q129 147 144.50 123Q160 99 179 77Q198 55 215.50 45Q233 35 240.50 31.50Q248 28 242 27Q236 26 221 26Q206 26 195.50 28.50Q185 31 176.50 46Q168 61 149.50 92Q131 123 121 136Q111 149 103.50 155.50Q96 162 102 162.50Q108 163 116 161M77 105Q75 114 83.50 110.50Q92 107 97.50 100.50Q103 94 97.50 89.50Q92 85 81.50 72Q71 59 56 44.50Q41 30 27 22Q13 14 20.50 21.50Q28 29 39.50 42Q51 55 65 76Q79 97 77 105Z"  horiz-adv-x="256" vert-adv-y="256"  />

      
      <glyph glyph-name="uni516C" unicode="&#x516C;" d="M158 32Q154 40 150 50.50Q146 61 163.50 48Q181 35 185 21Q189 7 182.50-2.50Q176-12 170.50 0.50Q165 13 160 26Q147 24 116.50 15Q86 6 75.50-2Q65-10 64.50 1.50Q64 13 72.50 19Q81 25 87 32Q93 39 102.50 57Q112 75 111 84.50Q110 94 117 91.50Q124 89 130.50 82Q137 75 130.50 70.50Q124 66 112 49.50Q100 33 96.50 28.50Q93 24 101 25Q109 26 158 32M125 189Q134 187 142 173.50Q150 160 162 143Q174 126 193.50 109Q213 92 234 85Q255 78 237.50 76Q220 74 205.50 74.50Q191 75 182.50 88Q174 101 156.50 129.50Q139 158 132.50 168Q126 178 117.50 183.50Q109 189 125 189M94 146Q107 138 102 134Q97 130 89.50 116.50Q82 103 67.50 83.50Q53 64 27.50 50Q2 36 26.50 57.50Q51 79 66 106Q81 133 79 145Q77 157 94 146Z"  horiz-adv-x="256" vert-adv-y="256"  />

      
      <glyph glyph-name="uni5171" unicode="&#x5171;" d="M108 133Q122 136 143 140Q144 150 144 165Q144 181 139 190.50Q134 200 145 197Q156 194 161.50 190.50Q167 187 163.50 180.50Q160 174 157 143Q171 146 177.50 147Q184 148 190.50 142.50Q197 137 186.50 135Q176 133 156 129Q154 104 152 82Q194 86 208.50 88Q223 90 233.50 83Q244 76 243 72.50Q242 69 224.50 70Q207 71 183 71Q160 71 122 66Q84 61 66 57.50Q48 54 39 51Q30 48 18.50 56Q7 64 24 64.50Q41 65 94 74Q95 94 95 116Q79 112 67 117.50Q55 123 68 125Q81 127 95 130Q95 140 93.50 148.50Q92 157 87 164.50Q82 172 90 171Q98 170 105.50 166.50Q113 163 111 157Q109 151 108 133M106 75Q126 78 139 81Q142 101 143 126Q123 122 107 119Q106 93 106 75M175 38Q187 33 196 23.50Q205 14 204 0Q203-14 191-2.50Q179 9 160.50 29Q142 49 153 46Q164 43 175 38M109 45Q124 36 117.50 33Q111 30 104 22.50Q97 15 83.50 4Q70-7 56-13Q42-19 55.50-7Q69 5 82 21Q95 37 94.50 45Q94 53 109 45Z"  horiz-adv-x="256" vert-adv-y="256"  />

      
      <glyph glyph-name="uni5176" unicode="&#x5176;" d="M161 61Q178 64 192.50 66.50Q207 69 216.50 68.50Q226 68 233 60Q240 52 233 51.50Q226 51 214 51Q202 51 182 50.50Q162 50 139 47.50Q116 45 85.50 40.50Q55 36 42.50 33Q30 30 21.50 36Q13 42 19.50 42.50Q26 43 44 44.50Q62 46 93 51Q94 75 93 136Q83 133 74 133Q66 133 59 137.50Q52 142 63 143Q74 144 92 148Q91 166 85.50 174.50Q80 183 96 178Q112 173 110 167.50Q108 162 107 151Q117 152 151 159Q152 185 146 196Q140 207 151.50 204Q163 201 168 196.50Q173 192 170 185Q167 178 166 164Q173 165 184.50 168.50Q196 172 203 165.50Q210 159 201 156.50Q192 154 166 150Q163 89 161 61M103 53Q122 56 148 60Q151 110 151 147Q138 145 106 139Q105 130 105 116Q112 118 121.50 121.50Q131 125 137 120.50Q143 116 130.50 112Q118 108 105 108Q104 92 104 88Q112 89 120.50 92.50Q129 96 134.50 93Q140 90 134.50 86Q129 82 104 79Q104 66 103 53M184 22Q193 15 196.50 4.50Q200-6 195.50-15Q191-24 181-10.50Q171 3 165.50 12.50Q160 22 154 33Q148 44 161.50 37Q175 30 184 22M107 35Q122 26 115.50 22Q109 18 92 2Q75-14 59-21.50Q43-29 55-19Q67-9 81.50 8.50Q96 26 94.50 35Q93 44 107 35Z"  horiz-adv-x="256" vert-adv-y="256"  />

      
      <glyph glyph-name="uni5178" unicode="&#x5178;" d="M113 148Q124 150 139 153Q142 186 137 195.50Q132 205 141 202.50Q150 200 157 196Q164 192 161 185Q158 178 155 156Q168 160 174 164Q180 168 189.50 164Q199 160 205.50 154Q212 148 206 142.50Q200 137 194.50 121.50Q189 106 180 70Q199 72 213 73Q227 74 236 68Q245 62 241 58.50Q237 55 206.50 56.50Q176 58 147.50 55.50Q119 53 92.50 48.50Q66 44 47.50 40Q29 36 18 43Q7 50 21.50 51.50Q36 53 74 58Q72 74 66 100.50Q60 127 53.50 136Q47 145 55 144Q63 143 68 141.50Q73 140 100 145Q98 171 92.50 178.50Q87 186 96 184.50Q105 183 112.50 179.50Q120 176 117 172Q114 168 113 148M149 104Q146 83 144 66L168 69Q175 99 178 122Q181 145 179 148Q177 151 170.50 150.50Q164 150 154 148L150 118Q167 121 167.50 116Q168 111 163 108.50Q158 106 149 104M76 133Q77 123 84 60L102 62Q102 76 101 95Q92 94 86 97Q80 100 84 101Q88 102 101 106Q101 118 100 138Q85 135 76 133M86 34Q87 44 94.50 40Q102 36 107.50 30Q113 24 108.50 21.50Q104 19 88.50 4.50Q73-10 55-17.50Q37-25 50.50-14Q64-3 75 11Q86 25 86 34M149 35Q142 42 152.50 39.50Q163 37 176.50 30Q190 23 199 12Q208 1 204-7.50Q200-16 188.50-4.50Q177 7 167 17.50Q157 28 149 35M113 109Q123 111 137 115L139 145L113 140L113 109M133 65Q134 87 135 101Q126 99 113 97L113 63L133 65Z"  horiz-adv-x="256" vert-adv-y="256"  />

      
      <glyph glyph-name="uni5185" unicode="&#x5185;" d="M132 149Q163 153 171 157.50Q179 162 189 158.50Q199 155 206 150Q213 145 209 138.50Q205 132 204.50 97Q204 62 207 38.50Q210 15 206.50 2Q203-11 194-20Q185-29 181-18Q177-7 162 2Q147 11 162.50 8Q178 5 183.50 5.50Q189 6 190.50 16Q192 26 191 70Q190 114 187.50 129Q185 144 177 145.50Q169 147 131 141Q130 124 125 110Q165 97 170 84Q175 71 170.50 65.50Q166 60 154.50 74Q143 88 123 104Q107 69 85.50 57Q64 45 79.50 60Q95 75 104.50 96.50Q114 118 117 139Q92 135 69 132Q69 88 68 61.50Q67 35 64.50 20.50Q62 6 57.50-1.50Q53-9 48.50 4Q44 17 49 33.50Q54 50 55.50 89Q57 128 52.50 137.50Q48 147 55 145Q62 143 65 141.50Q68 140 73 140Q79 140 118 146Q119 170 118.50 180.50Q118 191 113 199Q108 207 117 205.50Q126 204 133 200Q140 196 136.50 189.50Q133 183 132 149Z"  horiz-adv-x="256" vert-adv-y="256"  />

      
      <glyph glyph-name="uni5199" unicode="&#x5199;" d="M110 121Q136 124 153 129.50Q170 135 179 130Q188 125 178 121.50Q168 118 155 116Q142 114 129.50 112.50Q117 111 109 114Q106 105 99 82Q166 89 173 92.50Q180 96 189.50 92Q199 88 204 82.50Q209 77 204 71.50Q199 66 196.50 34Q194 2 179-13Q164-28 161-18Q158-8 148 0.50Q138 9 146.50 7Q155 5 161.50 2.50Q168 0 174 10.50Q180 21 183 49Q186 77 179 79.50Q172 82 155.50 80Q139 78 119.50 75Q100 72 92 68Q84 64 81.50 72Q79 80 84.50 85Q90 90 95 111Q100 132 100 140Q100 149 98.50 155Q97 161 103 158.50Q109 156 115.50 152Q122 148 119 143Q116 138 110 121M71 163Q64 144 55.50 136Q47 128 44.50 137Q42 146 48.50 153.50Q55 161 59 168.50Q63 176 65.50 180.50Q68 185 71 170Q77 170 97.50 172Q118 174 132.50 176Q147 178 163.50 181Q180 184 188 187Q196 190 202 187Q208 184 218 175Q228 166 215.50 164Q203 162 190.50 153Q178 144 182.50 153Q187 162 189.50 168Q192 174 188.50 174.50Q185 175 152 171Q119 167 99.50 165Q80 163 71 163M151 41Q141 42 132 42Q123 42 106 41Q89 40 71 36.50Q53 33 47 32.50Q41 32 32.50 38.50Q24 45 35 45Q46 45 76 48Q106 51 125.50 54.50Q145 58 154.50 53Q164 48 162.50 44.50Q161 41 151 41Z"  horiz-adv-x="256" vert-adv-y="256"  />

      
      <glyph glyph-name="uni51B5" unicode="&#x51B5;" d="M175 126Q182 118 178.50 116.50Q175 115 156 112Q167 103 163.50 97.50Q160 92 158 70Q156 48 159 36Q162 24 177 21Q192 18 205 21.50Q218 25 221.50 33.50Q225 42 227.50 57.50Q230 73 231.50 52.50Q233 32 236.50 24Q240 16 228.50 10Q217 4 191.50 4.50Q166 5 155.50 15Q145 25 147 49Q149 73 150 86.50Q151 100 146 111L133 108Q144 100 139.50 96Q135 92 127.50 76.50Q120 61 104 44Q88 27 67 17Q46 7 65 21.50Q84 36 103 62Q122 88 123 107L120 106Q117 99 114.50 101.50Q112 104 110 113.50Q108 123 104.50 141Q101 159 96 165.50Q91 172 96 173Q101 174 107.50 172Q114 170 125 171Q136 172 146 175Q156 178 161.50 182Q167 186 175 184Q183 182 192.50 175.50Q202 169 191.50 159.50Q181 150 175 126M120 114Q137 117 164 123Q167 150 166 160Q165 170 157.50 169Q150 168 115 162Q117 135 120 114M73 113Q85 129 78 112Q71 95 61 74Q51 53 49 40Q47 27 39 36Q31 45 27 55Q23 65 31 66Q39 67 50 82Q61 97 73 113M48 157Q35 173 50.50 170Q66 167 72.50 160.50Q79 154 77.50 144Q76 134 69 138Q62 142 48 157Z"  horiz-adv-x="256" vert-adv-y="256"  />

      
      <glyph glyph-name="uni51FA" unicode="&#x51FA;" d="M185 115Q188 134 184 144Q180 154 190 151Q200 148 205.50 143Q211 138 207 133.50Q203 129 201 116.50Q199 104 194.50 91.50Q190 79 185 86Q180 93 184 105Q148 101 131 97Q130 51 129 27Q166 32 185 34Q187 56 183 64.50Q179 73 190 69Q201 65 204.50 61.50Q208 58 205.50 53Q203 48 201 31Q199 14 197.50 7Q196 0 192.50-5Q189-10 185.50-4Q182 2 182.50 7.50Q183 13 185 25Q138 18 113.50 13.50Q89 9 76.50 5Q64 1 57-4Q50-9 46 0Q42 9 46.50 13.50Q51 18 55.50 30Q60 42 54.50 53.50Q49 65 58 63Q67 61 71.50 56.50Q76 52 73.50 47Q71 42 69 32.50Q67 23 67 20Q67 18 82 20.50Q97 23 117 25L117 95Q71 86 63 79.50Q55 73 51 82Q47 91 52 97.50Q57 104 57 117Q57 130 54 137Q51 144 58 142.50Q65 141 71 137Q77 133 74 127Q71 121 70 113.50Q69 106 68.50 102Q68 98 72.50 98.50Q77 99 117 105L117 163Q117 184 110.50 194Q104 204 116.50 201.50Q129 199 134.50 193.50Q140 188 137.50 182.50Q135 177 133.50 160Q132 143 131 107Q170 113 185 115Z"  horiz-adv-x="256" vert-adv-y="256"  />

      
      <glyph glyph-name="uni5206" unicode="&#x5206;" d="M170 97Q185 87 178.50 81Q172 75 168 64Q165 25 156 8Q147-9 133-15.50Q119-22 118.50-12Q118-2 110.50 8.50Q103 19 109.50 16Q116 13 128 8Q139 8 145.50 26.50Q152 45 153 60.50Q154 76 153 83Q152 90 144.50 89.50Q137 89 104 83Q117 77 112 71Q107 65 104.50 58Q102 51 90.50 34.50Q79 18 64 6.50Q49-5 38-6.50Q27-8 35.50-3Q44 2 57 14Q70 26 82 46.50Q94 67 92 80Q83 78 75 75.50Q67 73 58 80Q50 86 64 86.50Q78 87 110 92Q139 97 146.50 102Q154 107 170 97M111 203Q126 203 133 191.50Q140 180 158 161Q176 142 193 127.50Q210 113 230.50 105Q251 97 242.50 95Q234 93 212 94Q190 95 185 102Q180 109 167.50 127Q155 145 146.50 156.50Q138 168 130 179Q122 190 116.50 193Q111 196 107.50 197Q104 198 103 200.50Q102 203 111 203M94 143Q80 122 65.50 108Q51 94 38 85.50Q25 77 19 75.50Q13 74 19 79.50Q25 85 38 96.50Q51 108 64 126.50Q77 145 78.50 153Q80 161 78.50 166Q77 171 82 171Q87 171 98.50 166.50Q110 162 104 156.50Q98 151 94 143Z"  horiz-adv-x="256" vert-adv-y="256"  />

      
      <glyph glyph-name="uni5207" unicode="&#x5207;" d="M166 124Q176 117 171 112Q166 107 158 85.50Q150 64 134.50 44.50Q119 25 97 14.50Q75 4 97 22Q119 40 135 68.50Q151 97 153 121Q144 118 140 117.50Q136 117 129 122Q122 127 132 127.50Q142 128 155.50 130.50Q169 133 180.50 136.50Q192 140 197.50 143.50Q203 147 211.50 144Q220 141 227.50 135Q235 129 230 124Q225 119 222 100Q219 81 216.50 64.50Q214 48 207 32Q200 16 187 6Q174-4 173 7Q172 18 163.50 28.50Q155 39 162 36Q169 33 177.50 31.50Q186 30 191 38.50Q196 47 200 63.50Q204 80 206.50 100.50Q209 121 207.50 125.50Q206 130 200 130Q194 130 166 124M74 63Q88 70 103 78.50Q118 87 107 76.50Q96 66 80.50 51Q65 36 58.50 26.50Q52 17 46.50 28Q41 39 46 44Q51 49 55.50 56.50Q60 64 62.50 74.50Q65 85 65 107Q41 101 34 100.50Q27 100 20 104.50Q13 109 25 110.50Q37 112 65 120Q65 144 63.50 163Q62 182 56 190.50Q50 199 67.50 194Q85 189 82 181.50Q79 174 78 159.50Q77 145 76 123Q89 127 97.50 131Q106 135 115 130Q124 125 108.50 120Q93 115 76 110Q75 78 74 63Z"  horiz-adv-x="256" vert-adv-y="256"  />

      
      <glyph glyph-name="uni5224" unicode="&#x5224;" d="M103 115Q117 119 122 119Q128 119 131 115Q134 111 126 108.50Q118 106 103 101Q103 91 102 80Q118 83 128 85.50Q138 88 143 82.50Q148 77 133.50 75Q119 73 101 69Q96 40 83.50 19.50Q71-1 54.50-11Q38-21 50.50-8Q63 5 73 25Q83 45 86 64Q71 61 57 57Q43 53 35 48.50Q27 44 16 54Q5 64 17 63Q29 62 89 76Q90 91 90 98Q74 96 69.50 96.50Q65 97 59.50 100Q54 103 63 105Q72 107 90 112Q92 158 90.50 169.50Q89 181 83 190Q77 199 87 197.50Q97 196 104 192.50Q111 189 108.50 181Q106 173 105 157.50Q104 142 103 115M206 195Q216 193 224 188.50Q232 184 229.50 176.50Q227 169 226 160.50Q225 152 225.50 114Q226 76 228 48Q230 20 226.50 6.50Q223-7 215.50-15.50Q208-24 204.50-12Q201 0 188.50 13Q176 26 189.50 21.50Q203 17 206 18.50Q209 20 210.50 30.50Q212 41 212 71Q212 102 211 138.50Q210 175 203.50 186Q197 197 206 195M162 147Q170 146 177 142Q184 138 180.50 130.50Q177 123 178.50 98Q180 73 177 62Q174 51 167.50 60.50Q161 70 162 76Q163 82 163.50 88Q164 94 164 112Q164 130 159.50 139.50Q155 149 162 147M142 178Q149 174 154 167.50Q159 161 153.50 159Q148 157 137.50 151Q127 145 114.50 139.50Q102 134 112 142.50Q122 151 128 160Q134 169 134.50 175.50Q135 182 142 178M52 147Q45 158 59.50 154.50Q74 151 77 144.50Q80 138 77 131.50Q74 125 67 131Q60 137 52 147Z"  horiz-adv-x="256" vert-adv-y="256"  />

      
      <glyph glyph-name="uni522B" unicode="&#x522B;" d="M91 125Q101 122 103 118Q105 114 102.50 111.50Q100 109 96 96Q115 100 121.50 104.50Q128 109 133 106Q138 103 143 98.50Q148 94 143.50 89Q139 84 138.50 74Q138 64 136 46Q134 28 128.50 17.50Q123 7 115 0Q107-7 105 1.50Q103 10 93.50 18Q84 26 94 23.50Q104 21 108 21Q112 21 115.50 28.50Q119 36 121.50 50.50Q124 65 124 78Q124 91 117.50 91.50Q111 92 94 87Q83 57 68 36.50Q53 16 40.50 7.50Q28-1 25-1Q23-1 33.50 9.50Q44 20 59 43.50Q74 67 79 83Q64 79 57.50 76.50Q51 74 45 77Q39 80 35.50 83.50Q32 87 44 87Q56 87 82 93Q87 116 84 123L79 121Q75 114 72.50 119.50Q70 125 65 142Q60 159 56 166Q52 173 57 173Q63 173 68 172Q73 171 82.50 173.50Q92 176 102.50 178.50Q113 181 118.50 185Q124 189 130 186.50Q136 184 142.50 179.50Q149 175 142 170Q135 165 126 142Q134 134 128 132.50Q122 131 91 125M221 193Q229 189 225.50 182.50Q222 176 221.50 140.50Q221 105 222.50 62Q224 19 221 8Q218-3 211.50-10.50Q205-18 200-7Q195 4 183 14Q171 24 183 21Q195 18 199.50 18.50Q204 19 206 28Q208 37 208 69L208 141Q208 181 202 191.50Q196 202 205 200Q214 198 221 193M79 129Q99 135 115 139Q117 156 117 164Q117 173 110 172Q103 171 75 164Q76 148 79 129M176 147Q183 144 180.50 137Q178 130 179.50 102Q181 74 178.50 64Q176 54 172 58.50Q168 63 166 69Q164 75 165.50 82.50Q167 90 166 113Q165 136 160.50 144Q156 152 163 151Q170 150 176 147Z"  horiz-adv-x="256" vert-adv-y="256"  />

      
      <glyph glyph-name="uni5230" unicode="&#x5230;" d="M94 160Q104 152 97.50 147.50Q91 143 83 133.50Q75 124 70.50 118.50Q66 113 74.50 114.50Q83 116 113 120Q111 128 108 136.50Q105 145 113 141Q121 137 127 130Q133 123 133.50 115.50Q134 108 129.50 103Q125 98 117 114Q97 110 89 108Q100 101 98 96Q96 91 96 76Q101 77 110.50 79.50Q120 82 126 77Q132 72 120 69Q108 66 95 63Q94 47 94 39Q103 41 122.50 45Q142 49 145.50 46Q149 43 118.50 35Q88 27 70 20Q52 13 46.50 10Q41 7 36 11Q31 15 27 22Q23 29 35 28.50Q47 28 82 37L82 60Q70 58 64.50 57Q59 56 52.50 61Q46 66 54 66.50Q62 67 82 72Q82 93 77 105Q60 99 53 95Q46 91 43 93.50Q40 96 39 102.50Q38 109 48.50 113Q59 117 69.50 131Q80 145 81 157Q70 155 62.50 155.50Q55 156 49.50 159.50Q44 163 52.50 164Q61 165 85.50 170.50Q110 176 118 178.50Q126 181 132.50 176.50Q139 172 130 168Q121 164 94 160M215 186Q222 182 218 176Q214 170 213 141.50Q212 113 212.50 83.50Q213 54 214 34Q215 14 212.50 2Q210-10 204-17Q198-24 193-12Q188 0 175.50 11.50Q163 23 176 19Q189 15 192.50 15.50Q196 16 197.50 23Q199 30 199.50 60Q200 90 200 131Q200 173 193.50 184.50Q187 196 197.50 193.50Q208 191 215 186M165 149Q178 145 174 137.50Q170 130 171.50 100.50Q173 71 168 62Q163 53 159 64.50Q155 76 156.50 82.50Q158 89 158 112Q158 136 153 146.50Q148 157 165 149Z"  horiz-adv-x="256" vert-adv-y="256"  />

      
      <glyph glyph-name="uni523B" unicode="&#x523B;" d="M90 138Q96 130 88.50 125Q81 120 59 95Q73 94 94 95Q106 115 105 122Q104 129 111.50 126Q119 123 124 118Q129 113 125 111Q121 109 114 100Q107 91 95 76.50Q83 62 66.50 48.50Q50 35 32 27.50Q14 20 29.50 31Q45 42 59.50 55Q74 68 90 89Q62 85 55 81Q48 77 44 85Q40 93 47 97Q54 101 63 112.50Q72 124 73 136Q61 133 52.50 131Q44 129 33.50 135Q23 141 39 142Q55 143 86 149Q118 156 129 160Q140 164 148 157.50Q156 151 138.50 147.50Q121 144 90 138M214 191Q222 187 218 180.50Q214 174 214 129Q214 84 216 52.50Q218 21 216 9.50Q214-2 207.50-10.50Q201-19 196-6.50Q191 6 178.50 15Q166 24 178.50 21.50Q191 19 195.50 19.50Q200 20 201.50 29.50Q203 39 202.50 72.50Q202 106 201.50 141.50Q201 177 192.50 189Q184 201 195 198.50Q206 196 214 191M106 43Q128 36 138 28.50Q148 21 145 9Q142-3 132 9.50Q122 22 102 39Q86 25 74.50 19Q63 13 48 9.50Q33 6 52 15.50Q71 25 91.50 47Q112 69 111 76.50Q110 84 117 81Q124 78 129.50 72.50Q135 67 129 64Q123 61 106 43M175 137Q182 133 179 128Q176 123 176.50 96Q177 69 173.50 58Q170 47 164.50 56.50Q159 66 161 77Q163 88 162.50 107.50Q162 127 156.50 135.50Q151 144 160 142.50Q169 141 175 137M98 188Q107 184 110.50 177Q114 170 110 165.50Q106 161 96.50 167.50Q87 174 77.50 183.50Q68 193 79 192.50Q90 192 98 188Z"  horiz-adv-x="256" vert-adv-y="256"  />

      
      <glyph glyph-name="uni524D" unicode="&#x524D;" d="M66 103Q66 92 67 82Q73 83 79 85.50Q85 88 89.50 83Q94 78 84 75.50Q74 73 67 75Q66 62 65 51Q70 52 77 54Q84 56 88 51.50Q92 47 84 45Q76 43 64 44Q60 20 53.50 6Q47-8 43.50 2.50Q40 13 43.50 20Q47 27 50.50 38.50Q54 50 55.50 74.50Q57 99 53 105.50Q49 112 53 112Q57 112 61 111Q65 110 70 111Q75 112 81 114Q87 116 91 118.50Q95 121 101.50 119Q108 117 113.50 113Q119 109 115.50 103Q112 97 112 81Q112 65 114.50 38.50Q117 12 109.50-3Q102-18 98-7.50Q94 3 84 10.50Q74 18 82 16.50Q90 15 94 16Q98 17 99.50 33Q101 49 100.50 65Q100 81 99 94.50Q98 108 91 108Q84 108 66 103M180 138Q189 137 196 132.50Q203 128 200 123Q197 118 197 99Q197 80 198.50 57.50Q200 35 201 23Q202 11 200 1Q198-9 190.50-17.50Q183-26 180-16Q177-6 167 3Q157 12 166.50 9.50Q176 7 180 7Q185 7 185.50 17.50Q186 28 185.50 58Q185 88 183 106Q181 124 176.50 132Q172 140 180 138M83 144Q104 147 121.50 149Q139 151 157.50 153.50Q176 156 195 160.50Q214 165 223.50 163.50Q233 162 238.50 155Q244 148 237.50 147Q231 146 219.50 147Q208 148 188.50 146.50Q169 145 126.50 140.50Q84 136 68.50 133Q53 130 45.50 128Q38 126 26 133Q14 140 24 140Q34 140 48 141Q62 142 83 144M144 113Q153 111 157 107.50Q161 104 158.50 99.50Q156 95 156.50 78.50Q157 62 156 52.50Q155 43 152.50 39.50Q150 36 145 43Q140 50 142 57.50Q144 65 144.50 75Q145 85 143.50 93Q142 101 138.50 108Q135 115 144 113M163 207Q171 206 178 201Q185 196 179.50 192.50Q174 189 164.50 179Q155 169 143.50 160Q132 151 140 162.50Q148 174 153 185.50Q158 197 156.50 203Q155 209 163 207M80 180Q75 189 90.50 184Q106 179 108.50 171Q111 163 107.50 157Q104 151 94.50 161Q85 171 80 180Z"  horiz-adv-x="256" vert-adv-y="256"  />

      
      <glyph glyph-name="uni529E" unicode="&#x529E;" d="M130 143Q151 147 156.50 150Q162 153 168.50 151.50Q175 150 183.50 144.50Q192 139 186 133.50Q180 128 178.50 109.50Q177 91 173.50 59Q170 27 162.50 13.50Q155 0 145-5.50Q135-11 133-1.50Q131 8 120 18.50Q109 29 119 25.50Q129 22 137 21Q145 20 149.50 28Q154 36 157.50 57.50Q161 79 163 103.50Q165 128 162.50 133.50Q160 139 151 138Q142 137 129 134Q121 98 110.50 71.50Q100 45 83.50 27Q67 9 46-0.50Q25-10 48 9Q71 28 87.50 54.50Q104 81 113 131Q88 127 80 124.50Q72 122 63.50 130Q55 138 66 136.50Q77 135 114 141Q117 163 117 175Q117 187 114 195Q111 203 120 200Q129 197 135 193Q141 189 138 184Q135 179 133 166Q131 153 130 143M208 70Q191 89 189 95Q187 101 206 93.50Q225 86 231 75Q237 64 232 57Q227 50 208 70M69 103Q70 91 62.50 77.50Q55 64 47 57.50Q39 51 37 61Q35 71 45.50 82Q56 93 62 104Q68 115 69 103Z"  horiz-adv-x="256" vert-adv-y="256"  />

      
      <glyph glyph-name="uni52A0" unicode="&#x52A0;" d="M218 61Q232 48 219 47.50Q206 47 162 43Q157 31 154.50 36Q152 41 150.50 53.50Q149 66 146.50 83.50Q144 101 139.50 109.50Q135 118 141.50 117Q148 116 153 114.50Q158 113 167 114Q176 115 188.50 117.50Q201 120 206.50 123Q212 126 220.50 123.50Q229 121 235.50 116Q242 111 236 105.50Q230 100 218 61M93 134Q106 137 111 140Q116 143 123 141Q130 139 135 134.50Q140 130 135 123.50Q130 117 128 103Q126 89 122.50 68Q119 47 111 32.50Q103 18 92.50 13Q82 8 81.50 16Q81 24 74 35Q67 46 76 41Q85 36 90 36Q95 36 99 44.50Q103 53 107 68.50Q111 84 113.50 104Q116 124 113 127Q110 130 91 124Q78 87 67.50 70Q57 53 45 40.50Q33 28 18.50 19.50Q4 11 19 25.50Q34 40 48.50 62Q63 84 75 121Q56 117 46.50 114Q37 111 27.50 118Q18 125 31 124.50Q44 124 77 131Q81 144 83 159.50Q85 175 81.50 184.50Q78 194 94 186Q108 180 104 175Q100 170 93 134M158 106Q160 67 161 51Q184 55 206 58Q209 73 210 88Q211 103 209 107Q207 111 197.50 110.50Q188 110 158 106Z"  horiz-adv-x="256" vert-adv-y="256"  />

      
      <glyph glyph-name="uni52BF" unicode="&#x52BF;" d="M162 165Q176 169 182 173.50Q188 178 194 175.50Q200 173 205 168.50Q210 164 201.50 160Q193 156 188 137.50Q183 119 187 109Q191 99 200.50 96.50Q210 94 214.50 95Q219 96 221.50 111.50Q224 127 226 111Q228 95 233.50 89.50Q239 84 233 79.50Q227 75 206 79Q185 83 178 98Q171 113 174.50 129.50Q178 146 181 154Q184 162 180 162Q177 162 161 155Q158 139 154 129Q168 116 165.50 106.50Q163 97 147 115Q138 103 129.50 96Q121 89 110 84Q99 79 108.50 87Q118 95 125 104.50Q132 114 137 124Q131 129 128 133.50Q125 138 130 137.50Q135 137 143 134Q146 139 148 152L131 147Q126 146 118.50 151Q111 156 121 156Q131 156 149 162Q152 191 147 199Q142 207 146 207Q151 207 160.50 204Q170 201 167.50 196Q165 191 164 184Q163 177 162 165M136 70Q149 73 154.50 76Q160 79 165.50 78Q171 77 179 72Q187 67 182 62.50Q177 58 173 38Q169 18 164.50 4Q160-10 147-18Q134-26 132.50-18Q131-10 122-2Q113 6 124 2.50Q135-1 140 0Q149 6 153.50 22.50Q158 39 159 49.50Q160 60 158.50 62.50Q157 65 150.50 64.50Q144 64 132 62Q114 30 94.50 12.50Q75-5 55.50-12Q36-19 52-9Q68 1 84.50 18.50Q101 36 113 58Q92 53 85 51Q78 49 69.50 54.50Q61 60 70 60Q80 60 92.50 62Q105 64 117 67Q122 77 121.50 84Q121 91 127 89Q133 87 138 83.50Q143 80 140.50 77Q138 74 136 70M95 168Q108 171 112.50 168.50Q117 166 112 161.50Q107 157 95 154Q94 144 94 138Q111 146 112 143.50Q113 141 94 128Q94 112 95 97.50Q96 83 88 73.50Q80 64 77.50 72Q75 80 65 87Q55 94 65 92Q75 90 77.50 91.50Q80 93 81 100Q82 107 82 122Q53 107 46.50 101Q40 95 30 104Q20 113 29 113.50Q38 114 52 119Q66 124 82 133L82 152Q75 151 66 150.50Q57 150 50.50 153Q44 156 55.50 158.50Q67 161 82 165Q82 176 81.50 184Q81 192 77.50 198.50Q74 205 80.50 204Q87 203 94 199.50Q101 196 98.50 191.50Q96 187 95 168Z"  horiz-adv-x="256" vert-adv-y="256"  />

      
      <glyph glyph-name="uni5316" unicode="&#x5316;" d="M139 102Q151 114 164.50 131.50Q178 149 177 157.50Q176 166 182.50 163Q189 160 195.50 152.50Q202 145 196 141.50Q190 138 176.50 122.50Q163 107 139 84Q138 64 140.50 49.50Q143 35 153.50 27.50Q164 20 186.50 21.50Q209 23 217.50 30.50Q226 38 230 57.50Q234 77 234 57Q234 38 238 27Q242 16 225.50 9.50Q209 3 180.50 4Q152 5 141 15Q130 25 128 41.50Q126 58 127 73Q119 66 109 60.50Q99 55 90 52.50Q81 50 88.50 55.50Q96 61 107 70.50Q118 80 127 91Q128 117 128 134Q128 152 127 164Q126 176 121 185Q116 194 125 192Q134 190 141.50 185.50Q149 181 146 175Q143 169 141.50 146Q140 123 139 102M64 124Q79 115 77 101Q75 87 75.50 56Q76 25 72 5Q68-15 61.50-0.50Q55 14 59 23.50Q63 33 64.50 52.50Q66 72 65.50 94Q65 116 59 118Q43 94 24.50 80Q6 66 21 83.50Q36 101 49.50 125.50Q63 150 67.50 164.50Q72 179 70 187Q68 195 75 192.50Q82 190 89 183.50Q96 177 91 172.50Q86 168 79 153.50Q72 139 64 124Z"  horiz-adv-x="256" vert-adv-y="256"  />

      
      <glyph glyph-name="uni5343" unicode="&#x5343;" d="M123 159Q132 156 135.50 152.50Q139 149 136.50 143Q134 137 134 110Q180 116 197 119Q214 122 222 118Q230 114 233.50 107.50Q237 101 222.50 102.50Q208 104 185.50 103.50Q163 103 134 100L134 24Q134-8 129-21Q124-34 122-19Q120-4 120 26L120 98Q90 95 70 91.50Q50 88 42 87.50Q34 87 26.50 93Q19 99 24 99Q30 99 53 101.50Q76 104 120 109Q120 149 114 155Q96 147 80.50 145Q65 143 78.50 149Q92 155 108.50 163.50Q125 172 136.50 180Q148 188 148.50 192.50Q149 197 157 193Q165 189 170 184Q175 179 166.50 177Q158 175 144.50 169Q131 163 123 159Z"  horiz-adv-x="256" vert-adv-y="256"  />

      
      <glyph glyph-name="uni534F" unicode="&#x534F;" d="M163 142Q183 146 188.50 149.50Q194 153 200 150.50Q206 148 212.50 143Q219 138 214 133.50Q209 129 206.50 113.50Q204 98 199.50 70.50Q195 43 186.50 25Q178 7 165-3Q152-13 151-3.50Q150 6 146.50 10.50Q143 15 138.50 22Q134 29 147 21.50Q160 14 166.50 21Q173 28 178 43Q183 58 186.50 77.50Q190 97 191.50 117Q193 137 185 137Q178 137 162 133Q157 111 150.50 91.50Q144 72 136 58Q128 44 116 31Q104 18 88 10Q72 2 86.50 15Q101 28 112 43Q123 58 129 72.50Q135 87 140 102.50Q145 118 147 130Q135 127 128 125Q121 123 111.50 129Q102 135 114 135Q126 135 149 140Q151 155 152 166Q153 177 150 184.50Q147 192 153 190.50Q159 189 167 185Q175 181 172 176Q169 171 167.50 164Q166 157 163 142M69 125Q80 128 87.50 129Q95 130 99.50 126Q104 122 94.50 119Q85 116 69 113Q69 93 68.50 59Q68 25 64.50 7.50Q61-10 55 0Q49 10 50 17.50Q51 25 53 36.50Q55 48 55.50 62Q56 76 57 111Q49 110 43 109Q37 108 27 112Q17 116 28.50 117.50Q40 119 57 123Q57 137 56 156Q55 175 54 179Q53 183 50.50 188Q48 193 56 191.50Q64 190 70.50 186Q77 182 73 175.50Q69 169 69 125M213 73Q207 83 205.50 88.50Q204 94 220 85.50Q236 77 238.50 65Q241 53 237.50 48.50Q234 44 226.50 53.50Q219 63 213 73M105 94Q108 102 110.50 103Q113 104 115 93.50Q117 83 107.50 67.50Q98 52 94 61.50Q90 71 96 78.50Q102 86 105 94Z"  horiz-adv-x="256" vert-adv-y="256"  />

      
      <glyph glyph-name="uni5355" unicode="&#x5355;" d="M168 191Q166 191 140 159Q163 163 168.50 166.50Q174 170 181 167Q188 164 196 158.50Q204 153 199.50 148.50Q195 144 190.50 138.50Q186 133 180 117Q174 101 167.50 93.50Q161 86 158 96L132 94L132 69Q158 72 181.50 74Q205 76 215.50 74.50Q226 73 230.50 67.50Q235 62 225 61.50Q215 61 189 61.50Q163 62 132 58Q132 16 130-4.50Q128-25 123.50-27Q119-29 119-6L119 57Q96 55 78 52.50Q60 50 48.50 48.50Q37 47 26 54Q15 61 27 61Q40 61 61 62.50Q82 64 119 68L119 92Q107 92 90 90Q85 76 80.50 86.50Q76 97 71.50 114.50Q67 132 64.50 139Q62 146 58 152Q54 158 61.50 157Q69 156 74.50 154.50Q80 153 85 153Q90 153 105.50 155Q121 157 132 158Q139 169 145 183Q151 197 149.50 206.50Q148 216 165 207Q179 198 168 191M80 145Q84 114 87 98Q110 100 119 101L119 118Q105 117 98.50 120Q92 123 99.50 125.50Q107 128 119 130Q119 140 117 149Q96 147 80 145M159 105Q163 111 167.50 130.50Q172 150 168 152.50Q164 155 156 154Q148 153 130 151Q136 146 134.50 141.50Q133 137 132 132Q142 134 147.50 134.50Q153 135 155 131Q157 127 148.50 124Q140 121 132 120L132 103Q150 105 159 105M89 181Q81 194 79 199Q77 204 86 202Q95 200 102.50 193.50Q110 187 110.50 179.50Q111 172 107 167Q103 162 89 181Z"  horiz-adv-x="256" vert-adv-y="256"  />

      
      <glyph glyph-name="uni5366" unicode="&#x5366;" d="M110 157Q122 161 129 163Q136 165 140 160.50Q144 156 135.50 152Q127 148 110 143Q109 131 109 122Q125 125 135.50 127.50Q146 130 153.50 124.50Q161 119 146.50 117.50Q132 116 96 110Q114 101 112 96.50Q110 92 108 78Q116 80 124 82.50Q132 85 139 80Q146 75 135 72Q124 69 108 67L107 43Q149 50 147 46Q145 42 133.50 39.50Q122 37 93.50 29Q65 21 55.50 17Q46 13 41 15Q36 17 28.50 24Q21 31 34 31Q48 31 95 41L95 64Q85 62 75 60.50Q65 59 54.50 63.50Q44 68 56 68.50Q68 69 95 75Q95 89 94 95Q93 101 90 108Q54 100 42.50 96.50Q31 93 21.50 98.50Q12 104 15.50 105.50Q19 107 34.50 108.50Q50 110 97 120L97 141Q79 138 70.50 142Q62 146 71 147.50Q80 149 97 153Q97 166 95.50 178Q94 190 89 199Q84 208 93.50 206Q103 204 111 199.50Q119 195 115 188.50Q111 182 110 157M204 128Q217 128 228 122.50Q239 117 241.50 106Q244 95 237.50 96Q231 97 217 105.50Q203 114 181 123L181 78Q181 39 182 20.50Q183 2 179.50-14Q176-30 168.50-18Q161-6 164 5Q167 16 169 58Q171 100 169 143Q167 186 161.50 194Q156 202 161 202.50Q166 203 177.50 198Q189 193 184.50 183Q180 173 181 128L204 128Z"  horiz-adv-x="256" vert-adv-y="256"  />

      
      <glyph glyph-name="uni5373" unicode="&#x5373;" d="M97 107Q76 100 56 95Q56 70 55.50 58.50Q55 47 61.50 51Q68 55 93 69Q87 74 83 81Q79 88 87.50 86.50Q96 85 103.50 81.50Q111 78 116 70.50Q121 63 119.50 56Q118 49 111.50 52.50Q105 56 98 64Q57 34 50 23.50Q43 13 37 24Q31 35 35.50 42Q40 49 43 61Q46 73 45 103Q44 133 41.50 147.50Q39 162 33 169Q27 176 35 175.50Q43 175 53 173Q80 178 86.50 180.50Q93 183 98 187Q103 191 119 183Q132 176 128 170Q124 164 121.50 157.50Q119 151 115.50 135.50Q112 120 106.50 107Q101 94 97 107M159 142Q159 74 157.50 23.50Q156-27 150-27.50Q144-28 144 7Q144 42 144.50 76Q145 110 143.50 124Q142 138 137 145Q132 152 138 151.50Q144 151 149.50 150Q155 149 170.50 153.50Q186 158 193 163.50Q200 169 208.50 165.50Q217 162 224 156.50Q231 151 227 146.50Q223 142 220.50 131Q218 120 218.50 103.50Q219 87 215.50 78Q212 69 204.50 62Q197 55 192.50 65Q188 75 175.50 83Q163 91 175.50 88.50Q188 86 194.50 85Q201 84 203 96Q205 108 205 124Q205 141 202.50 147Q200 153 187.50 150Q175 147 159 142M56 104Q79 111 97 115Q100 129 101.50 146Q103 163 101 168.50Q99 174 90.50 172.50Q82 171 54 165L55 138Q68 141 74 143.50Q80 146 85.50 142Q91 138 78.50 134Q66 130 56 131L56 104Z"  horiz-adv-x="256" vert-adv-y="256"  />

      
      <glyph glyph-name="uni5386" unicode="&#x5386;" d="M149 118Q173 124 177.50 127.50Q182 131 190 128Q198 125 204.50 118.50Q211 112 205.50 106.50Q200 101 199.50 80.50Q199 60 197 41.50Q195 23 189.50 11.50Q184 0 172-8Q160-16 158-6.50Q156 3 144 13.50Q132 24 144 19.50Q156 15 162 15Q169 15 173.50 23Q178 31 180.50 46.50Q183 62 183.50 85Q184 108 180.50 112Q177 116 168 114Q159 112 146 109Q140 76 131 54Q122 32 108 19.50Q94 7 77 0.50Q60-6 74.50 4Q89 14 97.50 24.50Q106 35 115 52.50Q124 70 130 106Q119 102 111.50 99.50Q104 97 94.50 103.50Q85 110 97.50 110.50Q110 111 132 116Q136 144 131.50 151Q127 158 136.50 156Q146 154 152.50 150Q159 146 155 140.50Q151 135 149 118M86 162Q82 110 75 79Q68 48 54 27Q40 6 21.50-4Q3-14 19.50 1Q36 16 47 39Q58 62 62.50 85.50Q67 109 69 133.50Q71 158 67 167.50Q63 177 68.50 176Q74 175 80 171.50Q86 168 109.50 172Q133 176 153.50 180Q174 184 183 187.50Q192 191 201.50 184.50Q211 178 198 174.50Q185 171 149 166.50Q113 162 86 162Z"  horiz-adv-x="256" vert-adv-y="256"  />

      
      <glyph glyph-name="uni539F" unicode="&#x539F;" d="M140 173Q151 171 154.50 166Q158 161 152 157.50Q146 154 124 131Q167 138 174.50 142.50Q182 147 190.50 143.50Q199 140 205.50 135Q212 130 206.50 123.50Q201 117 196 100Q191 83 185 73.50Q179 64 173 75Q157 74 145 72Q152 67 155 63.50Q158 60 156.50 50Q155 40 156.50 19Q158-2 149-14.50Q140-27 136.50-18Q133-9 121.50-1Q110 7 120 5Q130 3 136 4Q142 5 142.50 20Q143 35 142.50 50Q142 65 137 71L119 68Q114 59 110.50 71.50Q107 84 102.50 101.50Q98 119 94.50 125Q91 131 96 131Q101 131 117 130Q130 150 132.50 159.50Q135 169 133 173Q121 171 109.50 170.50Q98 170 89 171Q86 142 82.50 118.50Q79 95 70.50 74.50Q62 54 51 39Q40 24 26.50 13Q13 2 14 5Q15 8 22.50 17Q30 26 43 47.50Q56 69 63.50 98Q71 127 72.50 149Q74 171 70.50 178Q67 185 73.50 183Q80 181 85.50 179Q91 177 121 183Q151 189 168 193.50Q185 198 192.50 194.50Q200 191 198 187.50Q196 184 183 181Q170 178 140 173M118 75Q146 81 158 84Q170 87 176 84Q180 94 181.50 106Q183 118 182 124.50Q181 131 174 131.50Q167 132 145.50 127.50Q124 123 111 121Q116 95 118 75M201 42Q210 38 217.50 30Q225 22 222 11.50Q219 1 208 11.50Q197 22 183.50 37.50Q170 53 181.50 49.50Q193 46 201 42M90 30Q95 38 98.50 45Q102 52 105 40Q108 28 96.50 13Q85-2 80.50 3Q76 8 80.50 15Q85 22 90 30M126 106Q134 107 147.50 111.50Q161 116 166.50 111Q172 106 155.50 101.50Q139 97 132.50 97.50Q126 98 122.50 101.50Q119 105 126 106Z"  horiz-adv-x="256" vert-adv-y="256"  />

      
      <glyph glyph-name="uni53C8" unicode="&#x53C8;" d="M132 73Q166 39 189 28Q212 17 232 12.50Q252 8 238 5.50Q224 3 203.50 1.50Q183 0 172.50 9.50Q162 19 125 62Q107 38 86 26.50Q65 15 44 14Q23 13 42 18.50Q61 24 80.50 37Q100 50 115 74Q99 96 87.50 109Q76 122 65 126.50Q54 131 67.50 133.50Q81 136 87.50 127.50Q94 119 123 85Q134 108 141.50 133Q149 158 144 160Q139 162 117 156Q95 150 85 148Q75 146 65 153.50Q55 161 67.50 159.50Q80 158 109 164Q138 170 142 173.50Q146 177 154.50 174Q163 171 168 167Q173 163 169 158.50Q165 154 162 145.50Q159 137 151 115Q143 93 132 73Z"  horiz-adv-x="256" vert-adv-y="256"  />

      
      <glyph glyph-name="uni53CC" unicode="&#x53CC;" d="M176 69Q191 50 207 40Q223 30 240 24.50Q257 19 239 17Q221 15 210 16Q199 17 193.50 22Q188 27 182 35.50Q176 44 165 58Q153 47 140.50 42Q128 37 115 36Q102 35 112 39Q122 43 135 51Q148 59 157 70Q149 82 138 96Q127 110 119.50 115Q112 120 123.50 119.50Q135 119 137.50 114Q140 109 147 100.50Q154 92 164 81Q173 97 176.50 114Q180 131 180.50 138.50Q181 146 171 144Q159 140 154 138.50Q149 137 140 141.50Q131 146 141 147Q151 148 161 151.50Q171 155 176 160.50Q181 166 189.50 162Q198 158 203 154Q208 150 204.50 146.50Q201 143 198.50 134Q196 125 189.50 104.50Q183 84 176 69M86 73Q97 62 101.50 52Q106 42 101.50 34.50Q97 27 88 40Q79 53 75 59Q63 44 46.50 34Q30 24 18 21.50Q6 19 18 26.50Q30 34 42.50 45Q55 56 67 71Q57 83 50.50 91Q44 99 36.50 108Q29 117 43 110Q57 103 75 86Q82 100 86.50 121.50Q91 143 84 142.50Q77 142 70 140Q63 138 56.50 137Q50 136 41 141Q32 146 41 146Q50 146 66.50 149.50Q83 153 88.50 157.50Q94 162 100.50 159Q107 156 113 151.50Q119 147 113.50 142.50Q108 138 106 130.50Q104 123 98.50 105Q93 87 86 73Z"  horiz-adv-x="256" vert-adv-y="256"  />

      
      <glyph glyph-name="uni53CD" unicode="&#x53CD;" d="M92 155Q89 128 84 103Q101 106 116 110Q131 114 138.50 117Q146 120 150.50 124Q155 128 162 125.50Q169 123 175.50 118Q182 113 176.50 108.50Q171 104 166.50 83Q162 62 152 40Q172 23 188.50 14.50Q205 6 228 0Q251-6 234-9Q217-12 200-12Q184-12 178-7Q172-2 164.50 6Q157 14 143 30Q127 14 105.50 7Q84 0 71 0.50Q58 1 71.50 4.50Q85 8 104 18Q123 28 133 41Q125 51 118.50 58.50Q112 66 105.50 71.50Q99 77 92 81Q85 85 96 86Q107 87 112.50 80.50Q118 74 123 68.50Q128 63 141 50Q149 69 151 85.50Q153 102 152 106.50Q151 111 134 105L106 96Q94 92 84 99Q79 73 69 50.50Q59 28 46.50 14Q34 0 17.50-8.50Q1-17 18-2Q35 13 47.50 37Q60 61 66 87.50Q72 114 73.50 134Q75 154 71.50 163.50Q68 173 75.50 171Q83 169 88 166.50Q93 164 99.50 165.50Q106 167 125 177.50Q144 188 145.50 196Q147 204 157.50 199.50Q168 195 174.50 189Q181 183 171 180.50Q161 178 141 171Q121 164 92 155Z"  horiz-adv-x="256" vert-adv-y="256"  />

      
      <glyph glyph-name="uni53D1" unicode="&#x53D1;" d="M126 136Q165 145 176 146.50Q187 148 194 141.50Q201 135 183 134Q165 133 123 125Q119 114 109 90Q125 92 137.50 95.50Q150 99 154 103.50Q158 108 164 105.50Q170 103 176 98.50Q182 94 177 89.50Q172 85 167.50 70Q163 55 156 40Q166 29 188 16Q210 3 229.50-2Q249-7 228.50-9Q208-11 195-9.50Q182-8 173 1L148 30Q135 16 119 8.50Q103 1 89.50-0.50Q76-2 89 3.50Q102 9 115.50 18.50Q129 28 138 40Q129 50 121 58.50Q113 67 107 70Q101 73 109 74.50Q117 76 122 71L145 48Q152 63 154 76.50Q156 90 151 90Q146 90 139.50 88Q133 86 126 83.50Q119 81 108 87Q95 58 79.50 37Q64 16 42 3Q20-10 41 10Q62 30 77.50 55.50Q93 81 107 122Q82 117 73.50 110Q65 103 61.50 108Q58 113 58 118Q58 124 63.50 128.50Q69 133 73.50 144Q78 155 75 164Q72 173 80.50 170Q89 167 93 162Q97 157 94 154Q91 151 88 145.50Q85 140 82 133Q79 126 87 127Q95 128 110 133Q116 147 119 167Q122 187 118 195Q114 203 122 201Q130 199 138 194.50Q146 190 141.50 184.50Q137 179 134.50 169.50Q132 160 126 136M170 180Q163 187 176.50 185.50Q190 184 197.50 179Q205 174 204.50 166Q204 158 198.50 159.50Q193 161 185 167Q177 173 170 180Z"  horiz-adv-x="256" vert-adv-y="256"  />

      
      <glyph glyph-name="uni53EA" unicode="&#x53EA;" d="M174 116Q189 104 167 103Q145 102 97 95Q91 79 86 97.50Q81 116 77.50 133.50Q74 151 67 160Q60 169 68 169Q76 169 83.50 166.50Q91 164 124.50 169.50Q158 175 165 180Q172 185 180.50 179.50Q189 174 197 166.50Q205 159 196.50 154Q188 149 174 116M91 153Q95 125 97 105Q129 111 161 116Q164 129 166.50 144.50Q169 160 164 162.50Q159 165 133 160L91 153M172 64Q195 55 206.50 40Q218 25 213 8.50Q208-8 192.50 14.50Q177 37 163.50 55.50Q150 74 172 64M101 66Q108 61 103 56.50Q98 52 88.50 42Q79 32 61.50 17.50Q44 3 27.50-2Q11-7 19.50-1.50Q28 4 43 17Q58 30 70 46.50Q82 63 80.50 71.50Q79 80 87 76Q95 72 101 66Z"  horiz-adv-x="256" vert-adv-y="256"  />

      
      <glyph glyph-name="uni53EF" unicode="&#x53EF;" d="M163 165Q177 154 174.50 148.50Q172 143 172 118Q172 94 173 69.50Q174 45 174 26Q174 7 165.50-5.50Q157-18 151.50-6Q146 6 132 16Q118 26 132.50 22Q147 18 152 20Q157 22 158.50 33.50Q160 45 159.50 90.50Q159 136 156.50 146.50Q154 157 150 164Q111 162 93 159.50Q75 157 58.50 154.50Q42 152 31 160.50Q20 169 31.50 168Q43 167 65.50 168Q88 169 135 174.50Q182 180 201.50 183Q221 186 231 180.50Q241 175 241.50 170Q242 165 227.50 166.50Q213 168 198.50 167.50Q184 167 163 165M122 95Q134 82 123 81.50Q112 81 79 76Q77 64 74 65.50Q71 67 68 80.50Q65 94 63 104Q61 114 56.50 121Q52 128 57 128Q62 128 68 125.50Q74 123 86.50 125.50Q99 128 105.50 133.50Q112 139 128 131Q140 123 134 117.50Q128 112 122 95M76 116Q77 98 78 84Q96 87 109 91Q111 106 111 112Q111 119 108 120Q105 121 98 120Q91 119 76 116Z"  horiz-adv-x="256" vert-adv-y="256"  />

      
      <glyph glyph-name="uni53F2" unicode="&#x53F2;" d="M128 152Q158 158 163.50 162.50Q169 167 177 164Q185 161 194.50 154.50Q204 148 193 141Q182 134 170 114Q176 103 167 102Q158 101 125 96Q124 70 119 46Q149 22 177.50 12.50Q206 3 224.50 0.50Q243-2 233.50-6Q224-10 200.50-14Q177-18 170-12.50Q163-7 150 3.50Q137 14 112 35Q99 14 75.50 3Q52-8 33-9Q14-10 33-3.50Q52 3 72 14Q92 25 102 43Q76 68 63.50 75.50Q51 83 44 84.50Q37 86 39.50 88.50Q42 91 55 89.50Q68 88 74 82.50Q80 77 107 56Q110 67 112 94Q104 93 92 91Q87 81 83 87.50Q79 94 72.50 111.50Q66 129 58.50 137Q51 145 58 145Q66 145 71.50 143.50Q77 142 114 150Q114 172 111.50 181.50Q109 191 105 196Q101 201 104 201.50Q107 202 121.50 197.50Q136 193 132.50 187Q129 181 128 152M126 106Q144 109 156 112Q161 130 163 140.50Q165 151 154 149.50Q143 148 127 145Q127 130 126 106M80 136Q82 125 89 98Q99 100 113 103Q114 126 114 142Q99 139 80 136Z"  horiz-adv-x="256" vert-adv-y="256"  />

      
      <glyph glyph-name="uni53F7" unicode="&#x53F7;" d="M121 103Q129 96 124 92.50Q119 89 113 81.50Q107 74 111 74Q116 74 129 76Q142 78 148.50 81Q155 84 161 81Q167 78 175.50 72Q184 66 179.50 62Q175 58 172.50 48.50Q170 39 166 19.50Q162 0 155-9.50Q148-19 139.50-24Q131-29 129.50-21Q128-13 113.50-3Q99 7 114.50 2.50Q130-2 136-1Q142 0 146 10Q150 20 154 42Q158 64 153 67.50Q148 71 127.50 68Q107 65 96 58.50Q85 52 84 60.50Q83 69 94 75.50Q105 82 109 101Q65 95 51.50 92.50Q38 90 26.50 98Q15 106 30 106Q46 106 65.50 107.50Q85 109 115.50 112.50Q146 116 169 119Q192 122 207 124.50Q222 127 232 118Q242 109 226.50 109.50Q211 110 192 109Q173 108 121 103M160 150Q175 140 156 138.50Q137 137 100 132Q95 121 92 129Q89 137 86.50 155Q84 173 78.50 180.50Q73 188 80 187Q87 186 92 185Q97 184 120.50 188Q144 192 149 195.50Q154 199 162 195.50Q170 192 176.50 187Q183 182 175 176.50Q167 171 160 150M100 140Q126 144 148 148Q151 165 151.50 172.50Q152 180 148 182Q144 184 134.50 182Q125 180 99 175Q99 155 100 140Z"  horiz-adv-x="256" vert-adv-y="256"  />

      
      <glyph glyph-name="uni53F8" unicode="&#x53F8;" d="M84 171Q74 178 85 178Q96 178 112 180Q128 182 147 186Q166 190 174 194Q182 198 192 194Q202 190 209.50 183Q217 176 211 166Q205 156 205.50 125Q206 94 206.50 60Q207 26 203.50 10Q200-6 189.50-16Q179-26 175-14Q171-2 159.50 9.50Q148 21 161 15Q174 9 180 9.50Q186 10 188.50 39Q191 68 190.50 107Q190 146 188.50 163.50Q187 181 172.50 179.50Q158 178 137 174Q116 170 105 167.50Q94 165 84 171M139 61Q153 51 137.50 50Q122 49 78 42Q74 25 70 36.50Q66 48 61.50 64.50Q57 81 50.50 89.50Q44 98 55.50 95.50Q67 93 90.50 98Q114 103 122 107Q130 111 138 107.50Q146 104 152 99.50Q158 95 151 88Q144 81 139 61M70 87Q72 74 77 50Q98 53 129 59Q131 71 130.50 81Q130 91 128 94Q126 97 111 94.50Q96 92 70 87M91 127Q79 127 71.50 131.50Q64 136 77 138Q90 140 100.50 141.50Q111 143 125.50 146.50Q140 150 146.50 143.50Q153 137 128 132.50Q103 128 91 127Z"  horiz-adv-x="256" vert-adv-y="256"  />

      
      </font>
</defs>
</svg>
